<?xml version="1.0" encoding="UTF-8" standalone="no"?>
<svg
   version="1.1"
   width="512"
   height="512"
   id="svg1"
   xmlns="http://www.w3.org/2000/svg"
   xmlns:svg="http://www.w3.org/2000/svg">
  <defs
     id="defs1" />
  <path
     d="m 298.875,133.5 c 5.53084,3.98357 10.89492,8.12998 16.125,12.5 l 1.53271,1.27539 c 13.46007,11.23749 26.10978,23.29275 38.52979,35.66211 l 2.37964,2.36548 c 4.18128,4.19291 8.17801,8.479 12.04101,12.96631 1.8633,2.126 3.84893,4.09031 5.89185,6.04321 14.0034,13.86051 28.77931,32.28504 29,52.875 -0.30188,16.17454 -8.56719,28.47598 -18.79688,40.35547 l -1.55853,1.81227 c -5.54336,6.36378 -11.4518,12.34501 -17.4483,18.27928 -1.83957,1.82107 -3.67076,3.65026 -5.50098,5.48071 -5.36366,5.34707 -10.73638,10.61542 -16.50439,15.53052 -2.07968,1.79857 -3.97934,3.74264 -5.87842,5.72925 -4.09776,4.15419 -8.46757,7.81345 -13.02344,11.45312 -2.35463,1.91962 -4.57059,3.91152 -6.78906,5.98438 -18.03284,16.13634 -45.07199,34.43343 -70.1875,33.125 C 239.48233,393.77616 232.20084,389.94438 226,383 c -4.8861,-7.55509 -6.18388,-15.29456 -4.35156,-24.125 3.02507,-10.96264 8.54898,-18.55519 16.75,-26.28125 C 240.09576,331.07394 240.09576,331.07394 241,329 l -1.81885,0.18359 c -35.14027,3.438 -81.06992,7.30359 -110.82568,-16.21093 L 126,311 124.05078,309.49609 C 112.76355,299.78147 108.23089,282.17914 107,268 c -1.1008,-22.19663 -0.84142,-44.55945 14.25,-62.3125 18.85288,-19.60575 47.85437,-24.11908 73.9375,-24.94141 14.99413,-0.24132 29.8912,0.87729 44.8125,2.25391 -2.96376,-6.54365 -7.19849,-12.17747 -11.34961,-18.01172 -5.21121,-7.45813 -8.27255,-14.77118 -7.47461,-24.02734 1.4996,-7.60404 5.84832,-13.89448 12.13672,-18.33594 21.87477,-13.03794 46.39264,-2.4081 65.5625,10.875 z M 138,219 c -7.24936,8.84585 -11.20856,19.52907 -11,31 0.46791,3.72013 1.14579,11.2185 2,11 h 3 c 0.29439,0.0693 0.19189,-1.11817 0.28784,-1.67725 C 135.96107,238.37334 135.96107,238.37334 141,231 l 1.38281,-2.08594 C 151.20205,217.34712 167.15025,211.99754 181,210 c 2.60717,-0.14427 5.19602,-0.2533 7.80469,-0.31641 l 2.19388,-0.063 c 2.29205,-0.0649 4.58421,-0.1241 6.87643,-0.18312 1.56251,-0.0432 3.12501,-0.0869 4.6875,-0.13086 3.81239,-0.10655 7.62489,-0.20798 11.4375,-0.30664 1.36542,0.0207 -5.02829,-3.90671 -8.875,-5.125 l -3.11719,-1.00781 C 180.07792,196.54454 153.62711,201.76185 138,219 Z m -7,54 c -0.45901,-0.34945 -3.058,4.08004 -2.85937,7.23047 1.07606,5.65857 3.4465,10.00437 4.85937,9.76953 2.16299,-0.22758 2.16299,-0.22758 4,-1 0.62537,-0.14878 -0.48434,-3.83544 -0.75,-5.75 l -0.42187,-3.23438 C 134.89023,276.60025 133.68083,275.24492 131,273 Z m 235.9375,5.4375 -1.92993,1.81274 c -7.88994,7.48079 -15.53154,15.22029 -23.17383,22.95264 C 336.39895,308.68987 330.88957,313.99755 325,319 c -1.60768,1.45446 -3.2124,2.91221 -4.8125,4.375 -4.28035,3.86339 -8.69212,7.52374 -13.17188,11.15234 -3.54355,2.90554 -7.03504,5.8672 -10.51562,8.84766 l -1.81738,1.552 c -2.65331,2.27799 -8.1547,5.83204 -7.68262,7.073 l 1,2 c 1.49705,3.13958 71.01939,-45.93467 87,-79 0.20699,-0.64243 0.5449,-1.25576 0,-2 -1.39361,-1.47041 -5.63313,3.15422 -8.0625,5.4375 z"
     fill="#fefefe"
     id="path1" />
</svg>
