<?xml version="1.0" encoding="utf-8"?>
<!-- Generator: Adobe Illustrator 24.2.0, SVG Export Plug-In . SVG Version: 6.00 Build 0)  -->
<svg version="1.1" id="Layer_1" xmlns="http://www.w3.org/2000/svg" xmlns:xlink="http://www.w3.org/1999/xlink" x="0px" y="0px"
	 width="876px" height="720.5px" viewBox="0 0 876 720.5" style="enable-background:new 0 0 876 720.5;" xml:space="preserve">
<style type="text/css">
	.st0{fill:#FFFFFF;}
	.st1{fill:#00B0FC;}
	.st2{fill:#08497A;}
	.st3{fill:#37BBFB;}
	.st4{fill:#FED12F;}
	.st5{fill:#FBFBFB;}
	.st6{fill:#39F1FF;}
	.st7{fill:#FF54A0;}
</style>
<path class="st0" d="M367.1,720.5c-1.2,0-2.3,0-3.4-0.1c-15.7-0.5-30-4.3-42.4-11.4c-8.4,5.3-17.4,8.1-27.6,8.6c-1,0-2,0.1-2.9,0.1
	c-13.7,0-25.9-4-35.6-11.7c-4.4,2.9-9.2,5.1-14.3,6.6c-5.3,1.5-11,2.3-17,2.3c-8.5,0-17-1.6-24.6-4.6c-5.5,0.9-12.1,1.3-19.4,1.3
	c-21.4,0-50-3.7-65.4-11.9c-12.9-6.7-22.8-18.7-26.9-32.9c-1.8-5.8-2.7-12.2-2.7-18.9c0-14.3,1.7-28.3,3.3-41.9l0-0.1
	c0.5-3.7,0.9-7.4,1.3-11.1c0.4-3.5,0.7-7.2,1.1-10.7l0-0.2c1-10.5,2.1-21.3,4.1-32.2c0.9-4.5,2.4-11.2,6-17.8
	c2.7-4.9,6-9.3,9.9-13.1c-1.5,0.3-3.1,0.6-4.5,0.9c-5.7,1.2-11.6,2.5-18.2,2.5c-6.2,0-11.7-1.2-16.7-3.6c-9.2-4.4-15.8-12-18.6-21.4
	c-1.9-6.2-2-12.8-0.4-19.2c-5.9-2.8-11.1-6.1-15.6-10c-11.7-10.2-19.1-24.6-19.7-38.3c-0.3-7.4,1-14.7,4-21.6
	c-11.7-6.4-19.7-18.3-20.9-31.9c-0.9-10.8,2.4-21.2,9.3-29.5c6.9-8.2,16.5-13.2,27.2-14.2c-0.1-0.7-0.2-1.4-0.3-2
	c-3.5-24.7,1.1-47.1,13.2-62.9c8.9-11.7,20.3-18.4,35-20.4c1.8-0.3,3.7-0.4,5.5-0.4c6,0,12.3,1.4,18,4c6.5,2.9,12,7.2,16.2,12.4
	c5.5-4,11.4-7,17.7-8.9c1.5-0.5,3.1-0.8,4.7-0.9c1.3-0.1,2.5-0.1,3.7-0.1c6.4,0,12,1.3,17.3,3.9c2-1.1,4.1-2,6.4-2.7
	c2.6-0.8,5.4-1.1,8.1-1.1c1.6,0,3.3,0.1,4.9,0.4c16.6-49.9,48.5-94.6,90.2-126.4c7.8-5.9,16.1-11.4,24.5-16.4
	c0.5-0.3,1.1-0.6,1.6-0.9c-0.6-8.6-0.2-19.2,3.8-27.7c7.9-16.9,25.5-22.7,36.1-26.1c2.2-0.7,4.3-1.4,5.8-2
	c13.6-5.4,27.1-13.5,41.2-24.8c2.2-1.8,5.1-4.6,8.2-7.7c9-8.8,18.4-17.9,29.9-21.9c3.7-1.3,7.8-1.9,12-1.9c6.9,0,14.3,1.9,20.3,5.1
	c7.2,3.9,12.5,9.5,16.7,14c1.5,1.6,2.9,3.1,4.1,4.2c6.8,6.3,14.1,12.1,21.6,17.4c9.9,7.1,19.3,12.2,28.8,15.8
	c1.8,0.7,3.9,1.4,6.1,2.1c5,1.6,10.3,3.3,15.8,6.1c23.6,11.9,24.1,34.3,23,46.4c0.3,0.2,0.7,0.4,1,0.5c2.5,1.3,4.9,2.6,6.9,3.8
	c6.2,3.8,11.6,7.3,16.3,10.7c29,21.3,53.5,48.9,71.4,80.2c4.4-3.3,9.6-5.6,15.1-6.6c2-0.3,4-0.5,6-0.5c12.5,0,23.7,6.5,30,16.8
	c1.2-0.3,2.5-0.5,3.8-0.5c0.8,0,1.6-0.1,2.3-0.1c0.5,0,1,0,1.5,0c12.3,0,23.6,4.5,32.9,13c5.9-6,13.6-10.1,23.4-12.3
	c1.2-0.3,2.3-0.4,3.5-0.5c1.3-0.1,2.6-0.1,3.8-0.1c10.6,0,19.6,2.9,27.5,8.7c11.4,8.4,18.6,22,20.9,39.2c1.3,9.6,0.9,19.4-1,29.4
	c16.7,2.9,30.2,15.9,33.3,33c2,10.8-0.4,21.7-6.6,30.7c-4.4,6.4-10.5,11.3-17.5,14.4c3.9,9.7,4.9,20.7,2.7,31.1
	c-3.3,15.4-13.6,29.7-28.6,39.5c3.3,5.6,5.4,11.9,6,18.3c0.9,11-2.3,21.4-9.2,29.4c-7.1,8.4-17.9,13.8-28.7,14.5
	c-0.9,0.1-1.8,0.1-2.7,0.1c-8.7,0-16.5-2.7-22.2-4.6c-1.5-0.5-2.8-1-4-1.3c-3.3-1-7-1.5-10.8-1.5c-6.1,0-12.7,1.3-19.4,3.8
	c0.2,1.8,0.4,3.5,0.6,5.2c6.7,0.2,13.3,1.6,19.7,4c13.9,5.3,24.5,15.3,30.7,29.1c2.8,6.2,4.6,12.9,5.8,21.6
	c1.8,12.9,2.3,25.9,2.9,38.5c0.2,4.2,0.4,8.5,0.6,12.7c0.2,3.5,0.4,7,0.7,10.7c0.8,11.2,1.6,22.7,0.9,34.3
	c-0.4,6.6-1.8,13.1-4.2,19.3c-5.8,14.7-17.3,26.6-31.7,32.8c-7.3,3.1-15.4,4.8-23.5,4.8c-8,0-16-1.6-23.2-4.5
	c-2.9-1.2-5.6-2.6-8.3-4.2c-5,4.2-10.6,7.3-17,9.5c-6.3,2.1-12.9,3.2-19.6,3.2c-9.1,0-18.1-2-25.9-5.9c-2.8-1.4-5.4-2.9-7.8-4.7
	c-0.3,0.2-0.5,0.3-0.8,0.5c-12.5,7.8-30,12.2-47.9,12.2c-2.4,0-4.7-0.1-7.1-0.2c-18.3-1.2-35.4-7.2-48.6-16.9
	c-12.8,9.5-27.6,14.9-44.9,16.6c-3.4,0.3-6.9,0.5-10.3,0.5c-19.5,0-37.8-5.5-52.3-15.7c-0.7,0.6-1.5,1.1-2.2,1.6
	C406.3,715,387.3,720.5,367.1,720.5C367.1,720.5,367.1,720.5,367.1,720.5z"/>
<path class="st1" d="M367.6,709.5c-17.3,0-34.1-4.5-47.5-12.7c-5.2,4.1-11.3,7-18.1,8.5c-3.7,0.9-7.7,1.3-11.6,1.3
	c-6.7,0-16.7-1.3-26.1-7.3c-3.3-2.1-6.3-4.6-9-7.6c-6.8,6.5-14,9.6-19.1,11c-4,1.1-8.3,1.6-12.8,1.6c-8.7,0-17.6-2.1-24.8-5.9
	c-1.6,0.4-2.9,0.7-3.8,1c-2.1,0.5-4.3,0.8-6.5,0.8c-1.5,0-3.2,0.1-5.1,0.1c-13,0-45-0.8-61.1-8c-11.8-5.3-20.4-14.5-24.9-26.7
	c-3.3-8.9-2.8-17-2.5-21.8l0.1-1c0.6-11,1.8-21.7,3.1-32c0.5-4,1-8.2,1.4-12.1c0.4-3.8,0.8-7.7,1.1-11.5c0.9-9.3,1.8-19,3.3-28.8
	l0-0.2c0.7-4.2,1.8-11.3,5.6-18.5c5.7-11,15.4-18.7,28.8-22.7c2-0.6,4.1-1,6.2-1.2c1.7-0.2,3.5-0.3,5.6-0.3c0.3,0,0.7,0,1.2,0
	c11.6,0,22.2,3.3,30.5,9.5c-4.2-10-6.7-20.9-7.4-32.3c-1.8-29.6,7.4-57.8,25-77.3c22.4-24.8,50.9-29,70.3-30
	c1.5-0.1,3.2-0.1,4.9-0.1c2.8,0,5.7,0.1,8.9,0.3c27.4,2,43.9,12,53.3,21.1c12.4-11,28.4-18,46.4-20.1c4.2-0.6,8.6-0.9,13-0.9
	c19.6,0,38.1,5.7,52.2,16c3.2,2.3,6.2,4.9,8.9,7.7c12.7-12.6,29.7-20.4,49.2-22.8c3.9-0.6,8-0.9,12.2-0.9c19,0,38,5.9,52.2,16.2
	c13.1-14.8,30-16.1,39.2-16.9l0.8-0.1c3.9-0.4,8.2-0.6,12.7-0.6c5.9,0,12.4,0.3,19.3,1c17.7,1.7,43.2,6.4,60,27.5
	c10.7,13.4,15,30.6,12.6,49.7c-0.5,3.6-1.2,7.1-2.2,10.4c0.9,1.3,1.7,2.6,2.5,4c6.5,11.2,9.3,25.2,8,39.2c1.5-0.3,2.8-0.5,3.8-0.6
	c1.5-0.2,3.1-0.3,4.7-0.3c0.3,0,0.6,0,1,0c4.3,0.1,17.2,0.5,29.3,10.2c7.6,6,17,17.5,18.6,37.7c1.2,15.1,1.8,30.2,2.3,44.8
	c0.2,5.2,0.4,10.4,0.6,15.6c0.1,2.2,0.3,4.7,0.5,7.4c0.7,9.1,1.5,19.3-0.2,30.2c-1.5,9.2-5.5,17.6-11.7,24.4
	c-8.4,9.4-20.3,15.2-32.7,15.8c-1,0.1-2,0.1-3,0.1c-10.1,0-19.7-2.6-27.8-7.6c-1.7-1-3.4-2.2-5-3.5c-10.3,12-23.1,14.1-29.5,15.2
	l-0.5,0.1c-1.8,0.3-3.6,0.5-5.4,0.5c-0.2,0-0.5,0-0.7,0c-5.5-0.1-16.8-0.4-28.2-8c-1.7-1.1-3.3-2.4-4.8-3.7
	c-13.9,9.9-28.5,12.8-38.5,14.2c-0.4,0-0.7,0.1-1.1,0.1c-3,0.3-6.1,0.5-9.2,0.5c-18.5,0-36.1-5.4-49.8-15.3c-2-1.4-3.8-2.9-5.7-4.6
	c-15.3,13.8-32.4,17.6-44.1,19.3c-0.6,0.1-1.2,0.2-1.8,0.2c-3.2,0.3-6.3,0.4-9.4,0.4c-18.7,0-34.9-4.9-48.3-14.5
	c-1.8-1.3-3.6-2.7-5.3-4.2c-10.2,8.9-22.9,15-37,17.6C379.4,709,373.6,709.5,367.6,709.5z M198.7,551.3c0.7,3.4,0.9,6.1,1,7.7
	c0.6,8.6-0.4,16.2-1.2,22.9l0,0.3c-0.2,1.5-0.4,2.9-0.5,4.4c-0.1,0.6-0.1,1.2-0.2,1.8c3.7-10.6,7.1-20,10.8-27.7
	c-0.7-0.6-1.4-1.2-2.1-1.8C203.7,556.5,201.1,553.9,198.7,551.3z"/>
<path class="st2" d="M326.9,123.5c-2-7.8-3.6-22.6-0.2-30c5-10.7,20.3-13.3,30.3-17.2c17-6.7,32.6-16.7,46.8-28.1
	c9.1-7.3,21.3-22.4,31.7-26c4.6-1.6,10.7-0.6,14.9,1.7c6.3,3.4,11.3,10.4,16.6,15.3c7.5,6.9,15.4,13.2,23.6,19.1
	c10.4,7.4,21.6,13.8,33.6,18.3c6.5,2.4,13.5,4.1,19.7,7.2c20,10.1,6.9,33.8,11.3,39.1c2.7,3.3,13.7,8.1,18.1,10.8
	c5,3,10,6.3,14.8,9.7c32.2,23.7,57.9,55.2,74.8,91.4c5,11,8.9,22.3,12.7,33.7c12.6,0.9,25,3.6,36.9,7.9c20.8,7.6,39.5,22.7,48.9,43
	c7.6,16.4,8.8,37.7,2.6,54.7c4.5-3,9-6.5,13.7-9c8.7-4.7,21.2-6.6,31-4.7c8.2,1.6,15.4,6.5,19.9,13.4c4.5,6.9,5.9,15.6,4.2,23.6
	c-2.4,11.1-10.7,20.5-20.1,26.4c-12.4,7.9-28.6,8.2-40.1,17.3c10.3-1,20.7-1.4,29.2,5.6c4.5,3.7,7.4,9.1,8,14.9
	c0.4,4.9-0.9,9.7-4.1,13.5c-3.3,3.9-8.5,6.6-13.7,7c-7.2,0.5-14.5-2.9-21.3-4.9c-15.1-4.6-31.4-2.3-45.9,3.4
	c-5.3,2.1-10.3,4.9-15.7,6.8c3.7,11.2,5.6,21.8,3.5,33.6c-0.7,3.7-1.7,7.4-2.4,11.1c12-5.3,24.1-7.5,36.6-2.7
	c8.7,3.3,14.9,9.4,18.7,17.8c2.2,5,3.4,10.4,4.1,15.7c2.2,16.2,2.4,33.1,3.3,49.4c0.7,13.9,2.5,28.6,1.6,42.5
	c-0.3,4.4-1.2,8.8-2.8,12.9c-3.7,9.4-10.9,16.9-20.2,20.8c-9.4,4-20.6,4-30.1,0.1c-8.2-3.3-14.1-9.1-19.2-16.1
	c-4.9,9.8-10.4,17.4-21.2,21c-9.4,3.2-20.2,2.8-29.1-1.6c-6.7-3.3-11-8.5-15-14.7c-4.6,4-9.2,8.2-14.4,11.4
	c-11.8,7.3-28.6,9.7-42.2,8.8c-17.2-1.2-34.6-7.5-46.1-20.8c-1.2-1.5-2.4-3-3.6-4.5c-12.5,15.3-27.8,23.2-47.4,25.1
	c-18,1.8-37.2-2.2-51.4-13.9c-3.2-2.6-6.1-5.6-9-8.6c-4.7,4.4-9.3,9-14.6,12.7c-12.4,8.6-29,12-43.9,11.5
	c-16.6-0.5-31.9-5.8-44.1-17.2c-7.9,8.5-15.5,13.9-27.5,14.4c-9.5,0.4-19-2-26.1-8.6c-4.7-4.4-6.6-9.9-10.1-15
	c-4.9,8.9-11.6,16.5-21.7,19.4c-10.2,3-23.3,1.4-32.6-3.9l-0.4-0.2c-16.9,5.3-61.9,1.2-77.3-7c-7.9-4.1-13.9-11.3-16.4-19.9
	c-1.3-4.1-1.8-8.5-1.8-12.8c0-16.8,2.7-34.1,4.5-50.8c1.5-13.7,2.4-27.8,5-41.3c0.8-4,1.8-8,3.8-11.6c4.4-8.1,11.5-13.6,20.3-16.2
	c12.2-3.5,22.1-0.6,33.3,4.4c2.9,1.3,6.2,3.1,9.4,3.5c-0.3-1.8-0.8-3.6-1.4-5.3c-6.1-16.2-32.8-26.8-48.2-30.1
	c-6.1-1.3-12.4-1.9-18.7-1.8c-10.3,0-24.7,6.8-33.7,2.5c-3.4-1.6-6.2-4.5-7.3-8.2c-1.2-4-0.5-8.3,1.5-11.9c4.7-8.6,16.1-9,24.8-8.1
	c2.4,0.2,5.7,1.1,7.9,0.5c-3.6-5.7-26.5-6.9-33.6-8.7c-8.1-2.1-16.6-5.5-22.9-11.1c-6.5-5.6-12-14.3-12.3-23
	c-0.3-8,2.7-15.3,8.1-21.2c4.8-5.3,10.9-8.7,18.2-8.9c19.1-0.6,30.4,14.9,42.9,26.6c-0.1-1.6-0.5-3.2-0.7-4.7
	c-3.4-22-0.1-41.8,13.3-60c17.9-24.2,46.4-36.7,75.5-41c0-11.1,2.3-22.8,4.7-33.6c12.1-56.4,43.9-106.6,89.8-141.5
	c7.1-5.4,14.6-10.4,22.3-14.9C317.3,128.9,322.2,126.5,326.9,123.5z"/>
<path class="st3" d="M764,374.1c4.5-3,9-6.5,13.7-9c8.7-4.7,21.2-6.6,31-4.7c8.2,1.6,15.4,6.5,19.9,13.4c4.5,6.9,5.9,15.6,4.2,23.6
	c-2.4,11.1-10.7,20.5-20.1,26.4c-12.4,7.9-28.6,8.2-40.1,17.3c10.3-1,20.7-1.4,29.2,5.6c4.5,3.7,7.4,9.1,8,14.9
	c0.4,4.9-0.9,9.7-4.1,13.5c-3.3,3.9-8.5,6.6-13.7,7c-7.2,0.5-14.5-2.9-21.3-4.9c-15.1-4.6-31.4-2.3-45.9,3.4
	c-5.3,2.1-10.3,4.9-15.7,6.8c-2.4-3.9-4.6-7.6-7.6-11.1c5-13.7,6.2-24.8,1.9-38.9C729.6,422.1,753.7,403.5,764,374.1z"/>
<path class="st1" d="M182.6,535.9c-2.6-0.8-5.4-3.2-6-4.9c-1.4-3.8-5.7-8.1-2.7-10.9c-10.7-10.3-29.1-17.1-40.9-19.6
	c-6.1-1.3-12.4-1.9-18.7-1.8c-10.3,0-24.7,6.8-33.7,2.5c-3.4-1.6-6.2-4.5-7.3-8.2c-1.2-4-0.5-8.3,1.5-11.9c4.7-8.6,16.1-9,24.8-8.1
	c2.4,0.2,5.7,1.1,7.9,0.5c-3.6-5.7-26.5-6.9-33.6-8.7c-8.1-2.1-16.6-5.5-22.9-11.1c-6.5-5.6-12-14.3-12.3-23
	c-0.3-8,2.7-15.3,8.1-21.2c4.8-5.3,10.9-8.7,18.2-8.9c19.1-0.6,30.4,14.9,42.9,26.6c2.3,5.3,4.1,10.8,7,15.9
	c11.8,21.1,32.6,36.1,54.7,45c5.2,2.1,10.5,3.7,15.7,5.5c0.8,12,3.7,25.2,9.5,35.9c0.7,1.3,3.1,4.4,1.9,5.7
	c-1.5,1.5-3.8,1.8-5.8,1.8C189.3,537,183.5,536.8,182.6,535.9z"/>
<path class="st4" d="M655.9,282.6c14.6-1.7,31.9,0.7,45.7,5.3c18.8,6.3,37.2,18.7,46.2,37c6.8,13.9,7.4,29.6,2.3,44.1
	c-8.7,24.9-30.8,41.4-53.5,52.5c-9.1-13.8-24.2-19.5-39.7-23.3c-4.6-0.8-9.2-1.4-13.9-1.9c-18.3-1.9-41.3-0.6-57.9,7.7
	c-5.5,2.8-10.3,6.5-15,10.4c3-11.8,7.8-18.5,9.2-32.2c2.1-20.3-5.6-39.3-18.2-54.9C587.8,299.6,617.7,285.8,655.9,282.6z"/>
<path class="st2" d="M656.2,328.1c8.9-0.9,20.9-1,29,3.2c4.2,2.2,6,4.5,7.4,9c-0.7,2.6-1.3,4.8-3,6.9c-9.2,11.9-34.2,16.9-48.7,18.6
	c-10.1,0.9-25.9,1.9-34.4-4.7c-1.6-1.2-2.9-2.9-3.1-4.9c-0.3-3.1,1.3-6.4,3.1-8.7C616.2,334.9,641.3,329.8,656.2,328.1z"/>
<path class="st5" d="M628.1,296c2.1-0.2,4.3-0.1,6.4,0c2.4,1.3,5.1,3,6.3,5.5c0.7,1.4,0.8,3,0.2,4.4c-0.9,2.4-3.2,4.2-5.4,5.5
	c-6.9,4.1-15.5,6.2-22.8,9.7c-6.9,3.3-12.9,8.1-20,11.1c-0.3,0.1-0.5,0.2-0.8,0.2c-2.7,0.8-5.6,0.2-8-1.2c-2-1.3-4-3.5-4.4-5.9
	c-0.4-2.3,0.5-4.5,1.9-6.3C588.5,309.9,617,297.4,628.1,296z"/>
<path class="st4" d="M379.5,135.8c3.3,2.2,6.6,4.1,10.3,5.6c-0.1,9.2-0.1,18.4,0,27.6c-15.9,4.3-36.2,10.3-45,25.6
	c-2.6,4.6-3.4,9.6-1.9,14.7c2.5,8.6,10.1,14.6,17.7,18.6c3.5,1.8,7.2,3.2,10.9,4.7c-23.8,4.5-54.4,12.8-68.9,33.9
	c-5.5,8-8.3,18.6-6.5,28.3c2.1,11.1,10.1,19.2,19.2,25.1c2.4,1.5,4.8,2.9,7.3,4.3c-9.1,3.2-17,7.2-25.2,12.2
	c-16.6-9.3-37.2-13.7-56.1-15c-5.8-0.4-12.2,0.2-17.9-0.7c1.8-15.9,4.6-31.9,9.5-47.2c19.4-61.2,56.9-101.4,113.3-130.7
	C359.2,144.3,368.8,143.9,379.5,135.8z"/>
<path class="st5" d="M313.2,218c5.5-0.5,10,0.6,15.2,2.2c-6.1,1-12,2-16.7,6.4c-4.7,4.3-6.1,9.8-6.5,15.9c-5.1-5.1-9.4-7.7-16.8-8.2
	c-5.5,0.6-9.3,2.5-14.2,4.9l-0.6-0.3c0-1.3,0.2-2.3,0.8-3.5c1.7-3.3,6.7-6.2,10.1-7.4c5.1-1.8,10.4-1.5,15.3,0.9
	c0.9-1.6,1.9-3.3,2.9-4.8C305.3,220.2,308.6,218.9,313.2,218z"/>
<path class="st6" d="M498.9,178.8c4.4,0,10.4,3,14.1,5.4c4.8,3.1,7.8,6.5,8.8,12.2c8.9,46.4-158,45.5-175.9,72.7
	c-1.6,2.4-2.7,5.4-1.9,8.2c4.5,16.8,86.3,24.8,103.1,27.1c15.9,2.2,32,4.1,47.7,7.4c13.6,2.9,27.7,7.3,39.6,14.5
	c14,8.5,24.2,20.1,28.1,36.2c3.1,12.9,1.3,31-5.7,42.5c-16.2-9-35.5-11-53.7-8.6c-19.2,3.8-34.3,12.1-46.3,27.7
	c-2.6-3.6-5.7-6.8-8.8-9.9c8.3-6.3,16.3-14.1,21.4-23.3c4.9-8.8,6.4-18.9,3.6-28.7c-12.4-43-107.8-49.5-143.5-69.1
	c-7.5-4.1-14.2-9-16.6-17.5c1.1-5.6,3.6-9.7,8.1-13.3c13.6-11.1,34.4-14.3,51.2-17.8c21.7-4.5,43.5-8.5,65.3-12.8
	c14.7-2.9,30.2-5.5,44.2-10.8c7.8-2.9,16.1-6.8,21.6-13.3c3.5-4.1,5.3-9.3,4.6-14.6C507.3,186.8,503.7,182.5,498.9,178.8z"/>
<path class="st7" d="M214.1,335.1c2.7-0.3,5.7-0.2,8.4-0.2c33.3,0.2,71.1,9.7,94.8,34c14.5,14.8,20.5,33.6,20.2,54
	c-1.6-2-3.3-4-5.1-5.8c-15.2-15.2-36.3-21.2-57.4-21.2c-0.1-1.5-0.3-3-0.7-4.5c-1.4-4.7-5.7-8.4-9.9-10.8
	c-16.7-9.4-45.9-8.4-63.8-3.3c-7.2,2.1-18.6,5.9-22.2,13c-1.2,2.3-0.9,4.1-0.2,6.6c1.5,2.8,3.4,5.1,5.9,7c9.2,7.4,23.1,8.2,34.3,7
	c-22,17.1-30.4,37.3-34.5,64.3c-14.2-3.6-28.9-11.3-40-20.9c-12.8-11.1-21.7-27-22.8-44c-1.1-15.9,5.4-31.6,15.9-43.4
	C156.8,344.8,185.6,336.9,214.1,335.1z"/>
<path class="st4" d="M503.4,135.3c1.2,1.3,2.4,2.4,3.9,3.4c7.7,5.3,17.5,5.8,26.4,4.1c52.8,25.2,93.5,67.9,113.1,123.4l0.8,2.3
	c-6.3,1.3-12.7,1.9-19,3.4c-30.2,7.5-57.9,23.2-78.2,46.9c-4.7-3.2-9.3-6.3-14.2-9.2c7.4-4.6,14.5-10.2,17.3-18.9
	c2-6.2,1.3-12.4-1.7-18.2c-8.8-16.7-31-24-47.7-29.1c5.6-3,11.6-5.6,16.8-9.2c9.1-6.2,16.4-14.2,18.3-25.3
	c1.3-7.2-0.4-14.3-4.7-20.3c-9.6-13.6-28.1-19-43.8-21.6c0.2-8.4,0.2-16.9,0.1-25.3C495.4,140,499.4,138,503.4,135.3z"/>
<path class="st5" d="M561.6,232c5.1-0.2,10,0.1,14.7,2.4c4.4,2.3,7.4,5.8,8.8,10.6c2.4-0.9,4.9-1.7,7.4-2.2
	c5.7-1.2,11.9-0.5,16.8,2.8c2.1,1.4,5.1,4.2,5.6,6.8l-0.6,0.5c-2.5-0.1-6.9-3-10-3.7c-9.8,0-17,4.7-24.9,9.9
	c-0.8-4.3-1.7-8-4.1-11.7c-3.4-5-9.5-8.9-15.5-9.5c-2.2-0.2-4.3,0.2-6.6-0.3l-0.3-0.8c0.1-0.1,0.1-0.3,0.2-0.4
	C555,233.5,558.4,232.6,561.6,232z"/>
<path class="st7" d="M440.6,50.3c9.6,10.6,19.1,21.2,30.4,30c8,6.3,24,14.2,29.7,21c3.3,4,3.4,7.5,3.2,12.4l-0.1,1.9
	c-3.5,5.3-4.6,9.3-10.7,12.4c-4.9,2.5-11,2.7-16.2,1c-7.8-2.6-11.7-8.5-15.1-15.5c-1.5,5.7-4.4,10.4-9.6,13.5
	c-5.4,3.1-12.3,3.7-18.2,1.9c-4.8-1.4-9.2-4.7-11.6-9.1c-0.9-1.6-1.6-3.3-2.2-5c-2.3,5.3-5.3,9.2-10.3,12.1
	c-5.3,3.1-12,4.2-17.9,2.4c-7.6-2.3-10.4-7.5-14-13.9c-0.4-5.1-0.5-9.9,3-14.1c4.6-5.4,12.1-9.2,17.9-13.2
	c5.2-3.5,10.4-7.2,15.2-11.3c5.4-4.6,10.6-9.5,15.5-14.7C433.3,58.3,436.7,54,440.6,50.3z"/>
<path class="st5" d="M440.4,57c3.1,9,7,18.2,11.3,26.7c3.1,6.2,7.3,12.1,9.2,18.8c1.1,3.8,0.9,7.2,0.8,11.1
	c-1.5,5.7-4.4,10.4-9.6,13.5c-5.4,3.1-12.3,3.7-18.2,1.9c-4.8-1.4-9.2-4.7-11.6-9.1c-0.9-1.6-1.6-3.3-2.2-5
	c-0.7-4.1-0.7-7.8,0.3-11.8c1.6-6.3,5-12.1,7.9-17.9C432.8,76.1,437.5,66.8,440.4,57z"/>
<path class="st4" d="M379.1,342.9c14.2,0.2,47.3,15.5,57.1,25.3c3.9,3.9,7.3,9,7.2,14.7c-0.2,8.3-6.1,15.5-11.7,21
	c-5-2-10.1-3.6-15.2-5c-16.9-3.2-33.1-3-49.4,3.1c-5.5-5.1-10.9-10.6-13.7-17.6c-2.6-6.5-2.7-13.4,0.2-19.8
	C358.3,353.6,368.6,347.2,379.1,342.9z"/>
<path class="st2" d="M367.6,699.4c-17,0-33.2-4.7-45.6-13.4c-1-0.7-2-1.5-3-2.2c-4.8,5.8-11.5,9.9-19.3,11.6c-3,0.7-6.2,1-9.4,1
	c-5.4,0-13.3-1-20.6-5.7c-6.9-4.4-11.1-10.4-13.8-16.4c-6.7,12.1-15.9,16.8-22.4,18.6c-3.1,0.9-6.5,1.3-10.1,1.3
	c-7.7,0-15.5-2-21.3-5.4c-0.8-0.4-1.5-0.9-2.2-1.4c-3,1.2-5.7,1.8-7.3,2.2c-1.5,0.3-3,0.5-4.5,0.6c-1.4,0-3,0.1-4.8,0.1
	c-9.7,0-42.3-0.5-57-7.1c-9.3-4.1-16-11.4-19.5-21c-2.5-7-2.1-13.5-1.9-17.8c0-0.4,0-0.7,0.1-1.1c0.6-10.7,1.8-21.2,3-31.4
	c0.5-4,1-8.2,1.4-12.2c0.4-3.8,0.8-7.6,1.1-11.7c0.8-9.1,1.7-18.6,3.3-28.1l0-0.2c0.6-3.9,1.6-9.7,4.6-15.5
	c6.7-12.9,18.8-16.5,22.7-17.7c1.4-0.4,2.8-0.7,4.3-0.8c1.5-0.1,3.1-0.3,4.8-0.3c0.3,0,0.6,0,1,0c11.6,0,21.8,4,28.8,11.2
	c8.5,8.8,9.3,19.6,9.5,23.1c0.5,7.6-0.4,14.7-1.2,20.9c-0.2,1.6-0.4,3.3-0.6,4.9c-0.5,4.7-1.1,9.5-1.6,14.2
	c-0.6,5.3-1.3,10.7-1.8,16c4.1,0.5,8.5,1.2,12.8,2.7c0.8-2,1.6-4.1,2.3-6c1.6-4.1,3.1-8,4.4-11.5c0.8-2.1,1.8-5,2.8-8
	c5.1-14.7,9.4-26.6,14.5-34.4c0.2-0.2,0.3-0.5,0.5-0.7c-3.1-2-6-4.1-8.7-6.5c-17-14.8-27.2-35.8-28.5-59.3
	c-1.6-26.9,6.6-52.4,22.4-70c19.9-22,45.7-25.8,63.3-26.6c1.4-0.1,2.9-0.1,4.4-0.1c2.5,0,5.2,0.1,8.2,0.3
	c29.9,2.1,44.7,14.9,50.9,22.3c1,1.2,1.9,2.4,2.7,3.6c11.7-14.1,28.3-22.7,48.1-25c3.8-0.5,7.8-0.8,11.8-0.8c17.5,0,33.9,5,46.2,14
	c5.7,4.2,10.7,9.2,14.9,15c0.6-0.9,1.3-1.7,1.9-2.5c11.6-14.4,28.4-23.3,48.6-25.7c3.5-0.5,7.2-0.8,10.9-0.8
	c17.1,0,34.1,5.3,46.6,14.5c2.7,2,5.2,4.2,7.6,6.5c1.3-2.7,2.9-5.1,4.7-7.3c10.5-12.7,24.8-13.8,33.3-14.5l0.9-0.1
	c3.7-0.4,7.6-0.5,11.8-0.5c5.6,0,11.7,0.3,18.3,1c15.9,1.5,38.6,5.7,53.1,23.8c8.9,11.2,12.6,25.8,10.5,42.1
	c-0.6,5-1.9,9.5-3.6,13.4c1.8,2.1,3.6,4.6,5.1,7.3c7,12.2,8.9,28.3,5,43.1c-0.6,2.5-1.5,4.8-2.4,7.1c7.4-5,15.4-6.1,19.5-6.7
	c1.1-0.2,2.1-0.2,3.2-0.2c0.2,0,0.4,0,0.6,0c3.4,0.1,13.9,0.4,23.4,8c6,4.8,13.5,14,14.9,30.7c1.2,14.9,1.8,29.9,2.3,44.4
	c0.2,5.2,0.4,10.4,0.6,15.6c0.1,2.4,0.3,5.1,0.5,7.9c0.7,8.4,1.4,18-0.1,27.7c-1.2,7.2-4.4,13.9-9.2,19.3c-6.6,7.4-16,12-25.7,12.5
	c-0.8,0-1.7,0.1-2.5,0.1c-8.3,0-16-2.1-22.5-6.1c-5.1-3.1-9.1-7-12.5-10.8c-1,2.8-2.3,5.2-4,7.4c-8.1,10.8-19.1,12.7-25,13.6
	l-0.5,0.1c-1.2,0.2-2.5,0.3-3.7,0.3c-0.2,0-0.3,0-0.5,0c-4.8-0.1-13.9-0.3-22.8-6.3c-3-2-6.4-5-9.3-9.3
	c-13.5,13-29.4,16.6-40.9,18.1c-0.2,0-0.5,0.1-0.7,0.1c-2.7,0.3-5.5,0.4-8.2,0.4c0,0,0,0,0,0c-16.4,0-31.9-4.8-43.8-13.4
	c-4.3-3.1-8.2-6.8-11.5-11c-14.5,17.7-32.9,22.1-45.6,23.9c-0.4,0.1-0.8,0.1-1.2,0.1c-2.9,0.2-5.8,0.4-8.5,0.4c0,0,0,0,0,0
	c-16.5,0-30.8-4.2-42.4-12.6c-4.1-3-7.9-6.5-11.2-10.4c-9.5,11.4-23.1,19.1-38.8,22.1C378.2,699,372.9,699.4,367.6,699.4z
	 M306.1,566.7c0.3,0.7,0.6,1.4,0.9,2.1c1-1.2,1.9-2.4,3-3.6C308.7,565.8,307.4,566.3,306.1,566.7z M696,552.2
	c0.1-0.2,0.1-0.4,0.2-0.6c-0.1,0.1-0.3,0.2-0.4,0.4C695.8,552,695.9,552.1,696,552.2z M335.7,546.6c0.2-0.1,0.4-0.2,0.6-0.3
	c-0.1-0.1-0.1-0.2-0.2-0.2C336,546.3,335.8,546.5,335.7,546.6z M456.4,543.1c0.4-0.1,0.7-0.2,1.1-0.3c-0.1-0.2-0.3-0.4-0.4-0.6
	C457,542.4,456.5,543,456.4,543.1z"/>
<path class="st4" d="M427.8,178.1c17.8-1.1,46-0.5,61.4,8.4c2.5,1.4,5.5,3.6,6.1,6.6c0.4,2-0.4,3.9-1.5,5.5
	c-9,13.1-47,19.8-62.6,22.7c-0.5,0.1-0.9,0.2-1.4,0.3c-18.1,3-43.8,1.3-59.1-10.1c-3-2.2-6.1-5.3-6.6-9.2c-0.3-2.6,0.8-5.1,2.5-7.1
	C377.5,182.6,411.6,179.1,427.8,178.1z"/>
<path class="st4" d="M465.4,255c1.4,0.2,2.8,0.5,4.2,0.9c9.4,2.7,27.1,8.1,31.9,17.5c1.4,2.8,1.6,5.8,0.5,8.7
	c-2.4,6.4-10.2,11.2-16.1,14.1c-21.9-5.7-44.9-6.5-67.2-10c-15.9-2.2-33.6-4.2-48.6-9.7c11.5-8.8,48.2-11.4,63.8-14.3
	C444.4,260.3,454.9,257.5,465.4,255z"/>
<path class="st4" d="M461.8,133.4c5.3,3.9,9.4,6.4,15.7,8.6l0,23.5c-19.6-3.2-43.3-2.7-62.9-0.4c-3.6,0.4-7.3,0.7-10.9,1l0-23.9
	c6.2-1.9,10.9-4.8,16-8.7c5.1,4.2,10.4,7.4,17.1,8.3C446.8,143.1,454,139.4,461.8,133.4z"/>
<path class="st1" d="M87.5,270.5c3.9-0.6,8.1,0.3,11.7,1.9c5.4,2.4,9.7,6.8,11.6,12.4c4.2,12.5-4.3,23.2-9.6,33.6
	c-3.2,6.4-6.1,12.8-8.4,19.5c-3.4,9.6-5.8,19.8-6.7,30c-0.3,2.9,0.2,15.7-0.5,17l-1.2-0.8c-15-14.7-23.8-34.1-26.7-54.7
	c-2.2-15.7-0.9-33.7,9-46.8C72.1,275.5,78.7,271.8,87.5,270.5z M792.1,237c6.3-0.4,12,0.6,17.2,4.4c7.8,5.7,11.1,15.5,12.3,24.7
	c3.3,25-8.2,49.1-22.9,68.4l-4.6,5.5c-0.6-4.6-0.4-9.3-0.7-14c-0.6-9.1-2.5-18.5-5.4-27.1c-3.6-10.8-10.8-23.9-13.3-33.9
	c-1.6-6.1-1.4-12.9,2-18.4C780.3,241.1,786,238.4,792.1,237z M728.3,237c0.6,0,1.2-0.1,1.9-0.1c7.6-0.2,14.4,2.6,19.9,7.9
	c13.7,13.1,19.4,34.6,20.3,52.9c0.3,6.4-0.3,12.8-0.2,19.2c-1.3-4.2-2.9-8-5-11.9c-9.9-16.7-22.6-27.2-39.5-36.3
	c-5.5-2.9-11-6-12.7-12.5c-1-3.7-0.2-7.7,1.8-10.9C718,240.1,722.8,238.3,728.3,237z M148.1,277c3.8-0.3,7.2,0,10.6,1.8
	c3.8,2,6.7,6,7.9,10.1c3.4,12.1-9.6,17.8-18.1,22.5c-4.6,2.5-9.4,5.2-13.6,8.3c-7.6,5.7-14.2,13.6-19,21.7c-2.5,4-4.2,8.6-5.9,13
	c-3.3-16.2,1.9-36,9.6-50.4C125.8,292.3,135,280.9,148.1,277z M831.5,314c10.6-2,20.7,5,22.7,15.6c1.9,10.6-5.1,20.7-15.7,22.6
	c-10.5,1.9-20.7-5.1-22.6-15.6C814,326.1,821,316,831.5,314z M38.8,356c10.4-0.9,19.5,6.8,20.4,17.2c0.9,10.4-6.8,19.5-17.1,20.4
	c-10.4,0.9-19.5-6.8-20.4-17.2C20.7,366,28.4,356.9,38.8,356z M691.1,220.9c7.4-1.3,14.4,3.7,15.7,11.1c1.2,7.4-3.8,14.4-11.2,15.6
	c-7.3,1.2-14.2-3.8-15.5-11.1C678.9,229.1,683.8,222.1,691.1,220.9z M180,277.2c4.1-1.2,8.3,1.1,9.6,5.2c1.2,4.1-1,8.4-5.1,9.6
	c-2.7,0.8-5.6,0.2-7.6-1.7s-2.9-4.8-2.3-7.5C175.2,280.2,177.3,278,180,277.2z"/>
<path class="st5" d="M166.6,377.1c7.9-0.6,16-5,23.4-7.5c5.7-1.9,11.7-3.3,17.3-5.7c2.2-0.9,4.4-1.9,6-3.7c2.2-2.4,3-5.5,3.6-8.6
	c-0.8-2.8-1.6-6-4.3-7.7c-1.5-0.9-3.5-1.2-5.2-0.9c-15.4,1.2-36.3,6-46.9,18.3c-2,2.3-4.4,5.5-4.1,8.7c0.1,1.8,1.8,4,3.2,5.1
	C161.6,376.8,164.2,376.9,166.6,377.1z"/>
<path class="st5" d="M378,115.5c-0.4-5.1-0.5-9.9,3-14.1c4.6-5.4,12.1-9.2,17.9-13.2c5.2-3.5,10.4-7.2,15.2-11.3
	c5.4-4.6,10.6-9.5,15.5-14.7c3.6-3.9,7.1-8.2,10.9-11.9c9.6,10.6,19.1,21.2,30.4,30c8,6.3,24,14.2,29.7,21c3.3,4,3.4,7.5,3.2,12.4
	l-0.1,1.9l0.4,2.2c0.1,0.6,0.2,1.2,0.4,1.9c1.1,3.6,4.5,6.2,7.7,8c4.7,2.6,11.4,3.2,16.5,1.5c4-1.3,7.5-4.7,9.3-8.5
	c2.3-4.8,3.6-14.3,1.6-19.4c-0.2-0.6-0.8-2-1.2-2.4c-3.6-3.4-17.6-6.9-23.1-9c-18.3-7.2-34.8-18.1-49.6-30.8
	c-4.7-4-20.8-20.2-24.2-21.6c-4.8-0.2-15.8,12.7-19.9,16.2c-15.7,13.5-34.1,26.6-53.3,34.6c-6.8,2.9-19.4,6-24.8,9.2
	c-1.7,1-2.8,2.6-3.3,4.5c-1.1,4.9,0.5,16.4,3.2,20.7c2.3,3.7,6.1,6.1,10.4,7c5.6,1.2,11.8,0.1,16.6-3.2c3.7-2.6,6.3-6.1,7.2-10.6
	C377.9,115.8,377.9,115.7,378,115.5z"/>
<path class="st5" d="M545.6,136.7c-3.6,2.8-7.6,4.4-11.8,6c52.8,25.2,93.5,67.9,113.1,123.4l0.8,2.3c3.4-0.3,6.8-0.5,10.3-0.7
	l-0.9-2.7c-14.3-44.4-42.5-83.1-80.5-110.1C566.6,147.9,556.2,142.3,545.6,136.7z"/>
<path class="st5" d="M346.3,142.7c-3.7-1.7-7.2-3.3-10.6-5.5c-7,2.4-14.1,7.1-20.4,11c-35.4,22.2-62.4,54.3-80.8,91.6
	c-9.2,19-15.8,39.1-19.7,59.9c-1.3,7.1-2,14.2-3.2,21.3c3.9-0.1,8,0,11.9-0.4c1.8-15.9,4.6-31.9,9.5-47.2
	C252.4,212.2,289.9,171.9,346.3,142.7z"/>
<path class="st5" d="M450.7,467c-2.3-15.2-8.6-30.1-21.3-39.4c-11.4-8.4-28.1-11.1-42-9.1c-13.8,1.6-25.8,7-34.5,18.1
	c-13.1,16.6-16.1,40.9-13.6,61.5c1.9,15.4,8.1,30.2,20.6,39.9c12.4,9.7,27.7,11.9,43.1,10.8c14.4-2.2,26.9-7.4,35.9-19.4
	C451.5,512.3,453.7,487.5,450.7,467z M412.6,506.4c-3.2,5.6-7.6,9.3-13.8,11c-4.8,0.6-9.3,0.1-13.5-2.5c-5.8-3.6-8.9-10-10.3-16.5
	c-2.7-12-1.6-27.5,5.1-38c3.4-5.3,7.7-8.1,13.8-9.4c4-0.2,7.6,0.2,11.2,2.2c5.9,3.3,9.3,9.6,11,15.9
	C419.2,480.5,418.6,495.9,412.6,506.4z M573.3,466.8c-2.1-14.9-8.6-29.5-21-38.6c-11.1-8.1-27.9-11.7-41.4-9.6
	c-13.5,1.5-25.5,6.7-34.2,17.5c-13.1,16.3-16.2,39.8-13.9,60c1.8,15.7,7.8,31.6,20.6,41.6c12.2,9.6,27.2,12,42.3,11.1
	c14.5-2,26.3-6.6,35.4-18.7C574.1,513.1,576.3,487.2,573.3,466.8z M536.1,504.4c-3.3,6.6-7.6,10-14.4,12.3
	c-4.3,0.4-8.1,0.4-12.1-1.7c-5.5-2.9-8.7-8.5-10.4-14.2c-3.8-12-3.2-28,2.9-39.3c3.2-6,7.5-9.5,14-11.4c4-0.3,7.8-0.1,11.5,1.7
	c5.6,2.7,8.7,8.1,10.7,13.7C542.3,477.4,541.8,492.9,536.1,504.4z M687.9,493.1c-4.4-7.6-10.7-10.5-18.7-12.8
	c7.6-5.9,13.1-11.9,14.4-22c1.2-9,0-18.1-5.8-25.4c-8.8-11-24.5-14.2-37.8-15.5c-8.3-0.8-17.7-1.2-26-0.4c-6.9,0.6-14.3,0.8-19,6.6
	c-2.8,3.4-4,8.7-4.7,13.1c-1.6,11.4-0.8,23.8-0.9,35.2c-0.1,16.9-1,37.2,1.1,53.7c0.8,6.5,2.8,14.1,8.3,18.2
	c11.3,8.4,41.7,5.1,55.3,2.7c6.7-1.2,13.2-3,19.4-5.9c8.4-4.9,14.6-11.8,17.1-21.3C692.8,510.9,692.3,500.7,687.9,493.1z
	 M627.1,445.2c0.3-0.8,1-0.9,1.7-1.2c2.7-0.1,5.5-0.2,8.2-0.1c4.4,0.1,9.8,1,12.8,4.4c2.3,2.7,2.9,6.3,2.5,9.7
	c-0.4,4-2.2,6.3-5.3,8.8c-5.9,3.3-13.2,2.7-19.7,2.4C627.1,463.9,625.5,449.7,627.1,445.2z M655.8,509c-0.2,4.6-2.2,7.1-5.6,10
	c-7.1,3.8-14.6,3-22.3,2.6c-0.1-4.8-1.3-22.5,0.1-26c0.3-0.8,1.1-0.8,1.8-1.1c2.3-0.1,4.7-0.2,7-0.2c5.4,0.1,12.3,0.8,16.1,5
	C655.3,502,656,505.5,655.8,509z M271.4,417.6c3.3-0.2,6.6-0.1,9.9,0.2c11.9,0.9,27.3,4.7,35.3,14.3c3.3,3.9,4.9,8,4.4,13.1
	c-0.5,4.7-2.6,8.5-6.3,11.4c-15.2,12-22.8-4.2-37.3-5.7c-8.2-0.9-16.7,1-23,6.4c-6.9,5.9-10.7,15-11.4,23.9
	c-0.8,10.1,1.1,20.5,8,28.3c5.3,5.9,12.9,9,20.7,9.4c6,0.3,12.6-0.9,17.1-5.1c3.5-3.4,4.3-6.9,4.4-11.6c-3.2,0.4-6.5,0.8-9.8,0.8
	c-5.1-0.1-10.4-1.2-14-5.1c-2-2.1-3.2-4.9-3-7.9c0.3-3.6,2.5-6.7,5.2-8.9c9.2-7.6,26.5-6.2,37.5-5c4.9,0,10.8,1.7,14.5,4.8
	c4,3.3,5.5,8.2,5.9,13.2c1.2,13.5-1.9,28-10.9,38.5c-9.4,11-22.9,15.7-37,16.7c-19,1.4-39-1.9-53.8-14.7
	c-12.8-11.1-19.9-27-20.9-43.8c-1.1-19,3.7-39.3,16.7-53.7C236.3,422.7,253.1,418.5,271.4,417.6z M525.4,605.1
	c-1.8-12.8-7.4-25.5-18-33.4c-10.6-7.9-24.8-10.2-37.7-8.7c-12.9,2-24,7.4-32,18.2c-11.1,14.9-13.2,35.5-10.4,53.4
	c2.1,13.1,8,25.7,19,33.6c10.5,7.5,23.5,9.1,36,8.1c13.4-1.9,24.1-6.4,32.5-17.4C526,644.4,527.9,622.7,525.4,605.1z M488.7,642
	c-3.4,4.2-7,6-12.3,6.6c-3.7-0.4-6.9-1-10-3.2c-5.3-3.8-7.5-10.3-8.5-16.5c-1.6-10.2-0.1-23.3,6.4-31.7c3.5-4.6,7.5-6.5,13.1-7.3
	c3.2,0.5,5.9,1.2,8.6,3.2c5.7,4.2,8.1,11.3,9.1,18C496.3,621.3,495.2,633.9,488.7,642z M635.4,605.1c-1.8-12.9-7.3-25.6-18-33.6
	c-10.1-7.5-24.5-10.2-36.8-8.5c-12.9,2.1-23.8,7.2-31.7,17.9c-11.2,15.3-13.7,36.4-10.8,54.7c1.9,12.2,7.4,24.4,17.6,31.8
	c10.3,7.5,24.2,10.1,36.8,8.9c13.3-1.8,24.2-5.9,32.6-16.9C636.2,644.8,637.9,622.7,635.4,605.1z M599.2,642.9
	c-3.4,4.3-6.9,5.8-12.2,6.4c-3.6-0.2-6.6-0.8-9.7-2.8c-5-3.3-7.4-8.8-8.6-14.5c-2.1-10.6-0.8-24.4,5.6-33.5
	c3.3-4.6,6.9-6.5,12.4-7.5c3.6-0.1,7.1,0.8,10.1,2.9c5.3,3.7,7.5,10.4,8.4,16.5C606.8,620.7,605.9,634.3,599.2,642.9z M732.4,547.5
	c3.7,0.1,7.1,0.7,10.1,3.1c4.5,3.6,6.1,9.6,6.5,15c1.6,19.6,2,39.4,2.9,59.1c0.4,9.9,2.3,21.3,0.7,31.1c-0.5,2.9-1.8,5.7-3.8,7.9
	c-2.6,2.9-6.3,4.9-10.3,5.1c-4.1,0.2-8.6-0.5-12.1-2.7c-4.9-3-9-8.3-12.8-12.6c-6-6.8-11.9-13.7-17.8-20.6
	c-4.3-5.1-8.6-10.8-13.7-15.2l-0.6-0.5c0,9.8,3.6,44.5-1.3,51c-2.9,3.9-7,4.4-11.4,5.2c-3.9-0.1-7.5-0.3-10.9-2.5
	c-3.5-2.3-5.1-6.1-5.9-10.1c-2.1-10.7-1.1-22.9-1.5-33.8l-1.1-31.9c-0.3-7-0.9-14.2-0.5-21.2c0.2-3.2,0.6-7.2,2.5-9.9
	c1.6-2.3,4.2-3.5,6.9-4c5.7-0.9,11.5,0.3,16.3,3.3c5.5,3.5,9.1,8.7,13.2,13.6c7.6,9.2,21,27.4,30.2,33.9l0.6,0.5
	c0.3-11.4-0.6-23-1.2-34.4c-0.3-5.3-0.9-10.8-0.4-16.1c0.3-2.6,0.9-5.6,2.5-7.8C722.5,549.2,727.8,548.2,732.4,547.5z M359.1,563
	c6.9-1,15.4-0.4,22.2,1.1c8.8,2,20.2,6.7,25.1,14.8c2.3,3.8,3,8.4,1.9,12.8c-0.8,3.3-2.7,5.4-5.6,7c-12.4,6.9-17.2-4.1-28-6.9
	c-6.4-1.7-13.3-1-19,2.5c-6.4,4-10.5,10.9-12.1,18.2c-2.1,9.1-1,19.4,4.2,27.4c4,6.2,10.3,10,17.5,11.3c4.6,0.8,10.6-0.4,14.3-3.2
	c2-1.5,5.6-4.6,5.5-7.4c0-1.2-0.1-1.6-0.9-2.5l-0.7,0.1c-6,0.5-12.6,0.5-17.4-3.7c-2.2-2-3.8-4.9-3.8-8c0-3.5,2-6.7,4.4-9
	c5.2-5.1,13-5,19.8-5c6.9,0.3,15.1,0.2,21.1,4c3.5,2.2,5.6,5.6,6.4,9.6c2.1,10.1-0.7,23.6-6.4,32.1c-6.5,9.7-17,15.7-28.3,17.8
	c-14.5,2.7-32.1,0.2-44.3-8.3c-11.9-8.3-18.9-21.6-21.3-35.7c-2.7-16.4,0.3-34.6,10.2-48.2C332.6,571.6,344.4,565.4,359.1,563z
	 M304.6,658.6c-0.6-15.2-5.4-32.1-8.9-46.9c-2-8.4-3.6-17-6.1-25.3c-2.5-8.5-6.1-17.6-14.2-22.2c-6.2-3.5-12.6-3.4-19.5-3.2
	c-6.6,1.4-12.1,3.9-16,9.8c-5.3,8-11.5,28.2-15.1,37.9c-5,13.5-12.4,30.8-16,44.5c-0.8,3.1-1.6,6-0.7,9.1c0.8,3.1,2.5,5.7,5.3,7.4
	c3.6,2.1,10.1,3,14.3,1.8c4.2-1.1,7-4.6,9-8.3c2.3-4.2,3.7-8.9,5.2-13.4c5.6,0.3,11.2,0.6,16.8,1c4.7,0.1,9.5-0.1,14.1,0.5
	c1.3,7,2.4,16.6,9,20.8c3.6,2.3,9,2.6,13,1.7c3.4-0.8,6.3-2.6,8.1-5.6C304.6,665.3,304.7,661.8,304.6,658.6z M257.3,629.7
	c-3.2-0.2-6.3-0.5-9.5-0.9c3.5-9.9,8.1-29.3,12.9-37.3c2.5,2.7,7.5,33,8.8,38.9C265.5,629.9,261.4,629.9,257.3,629.7z M147.6,547.9
	c1-0.1,2.1-0.2,3.2-0.2c4.6-0.1,10,0.9,13.3,4.4c2.4,2.5,3.1,5.8,3.3,9.2c0.5,7.1-0.9,14.8-1.7,21.8c-1.8,16.7-4.7,35.6-5,52.1
	l0,0.8c10.2,2.3,23.1,0,32.5,4.8c3.1,1.6,5.3,4.1,6.2,7.4c1.1,4,0.3,10.4-1.9,14c-2.2,3.6-6,4.7-9.8,5.6
	c-11.9,0.3-42.4-0.7-52.2-5.1c-3.8-1.7-6.2-4.3-7.7-8.2c-1.1-3-0.6-6.9-0.5-10.1c0.7-14.1,2.8-28.4,4.3-42.5
	c1.4-12.8,2.2-25.9,4.2-38.6c0.5-2.9,1-6.3,2.4-8.9C140.3,550.6,143.6,549.1,147.6,547.9z"/>
</svg>
