<?xml version="1.0" encoding="UTF-8" standalone="no"?>
<svg
   width="650"
   height="650"
   viewBox="0 0 3900 3900"
   version="1.1"
   id="svg11"
   sodipodi:docname="Flag_of_the_United_States.svg"
   xml:space="preserve"
   inkscape:export-filename="Flag_of_the_United_States.png"
   inkscape:export-xdpi="159.50769"
   inkscape:export-ydpi="159.50769"
   xmlns:inkscape="http://www.inkscape.org/namespaces/inkscape"
   xmlns:sodipodi="http://sodipodi.sourceforge.net/DTD/sodipodi-0.dtd"
   xmlns:xlink="http://www.w3.org/1999/xlink"
   xmlns="http://www.w3.org/2000/svg"
   xmlns:svg="http://www.w3.org/2000/svg"><defs
     id="defs11"><clipPath
       clipPathUnits="userSpaceOnUse"
       id="clipPath102"><circle
         style="fill:#0a3161;fill-opacity:1;stroke-width:5.45602"
         id="circle102"
         cx="2970"
         cy="1950"
         r="1950" /></clipPath><radialGradient
       id="base"
       cx="256"
       cy="256"
       r="200"
       fx="256"
       fy="256"
       gradientUnits="userSpaceOnUse"><stop
         offset="0%"
         stop-color="#ffffff"
         stop-opacity="0.03"
         id="stop1" /><stop
         offset="100%"
         stop-color="#ffffff"
         stop-opacity="0.005"
         id="stop2" /></radialGradient><radialGradient
       id="rim"
       cx="256"
       cy="256"
       r="200"
       fx="256"
       fy="256"
       gradientUnits="userSpaceOnUse"><stop
         offset="85%"
         stop-color="#ffffff"
         stop-opacity="0"
         id="stop3" /><stop
         offset="100%"
         stop-color="#ffffff"
         stop-opacity="0.4"
         id="stop4" /></radialGradient></defs><sodipodi:namedview
     id="namedview11"
     pagecolor="#ffffff"
     bordercolor="#000000"
     borderopacity="0.25"
     inkscape:showpageshadow="2"
     inkscape:pageopacity="0.0"
     inkscape:pagecheckerboard="0"
     inkscape:deskcolor="#d1d1d1"><inkscape:page
       x="0"
       y="0"
       width="3900"
       height="3900"
       id="page2"
       margin="0"
       bleed="0" /></sodipodi:namedview><g
     id="g101"
     clip-path="url(#clipPath102)"
     transform="translate(-1020)"><g
       id="g96"
       style="display:inline"><g
         id="g12"><path
           d="M 0,0 H 7410 V 3900 H 0"
           fill="#b31942"
           id="path1" /><path
           d="m 0,450 h 7410 m 0,600 H 0 m 0,600 h 7410 m 0,600 H 0 m 0,600 h 7410 m 0,600 H 0"
           stroke="#ffffff"
           stroke-width="300"
           id="path2" /><path
           d="M 0,0 H 2964 V 2100 H 0"
           fill="#0a3161"
           id="path3" /><g
           fill="#ffffff"
           id="g11"><g
             id="s18"><g
               id="s9"><g
                 id="s5"><g
                   id="s4"><path
                     id="s"
                     d="M 247,90 317.53423,307.08204 132.87322,172.91796 H 361.12678 L 176.46577,307.08204 Z" /><use
                     xlink:href="#s"
                     y="420"
                     id="use3" /><use
                     xlink:href="#s"
                     y="840"
                     id="use4" /><use
                     xlink:href="#s"
                     y="1260"
                     id="use5" /></g><use
                   xlink:href="#s"
                   y="1680"
                   id="use6" /></g><use
                 xlink:href="#s4"
                 x="247"
                 y="210"
                 id="use7" /></g><use
               xlink:href="#s9"
               x="494"
               id="use8" /></g><use
             xlink:href="#s18"
             x="988"
             id="use9" /><use
             xlink:href="#s9"
             x="1976"
             id="use10" /><use
             xlink:href="#s5"
             x="2470"
             id="use11" /></g></g><path
         style="display:none;fill:#0a3161;fill-opacity:1;stroke-width:6"
         d="m 474,258.75 c -486.526198,362.39016 497.35074,352.29012 0,0 z"
         id="path13" /><path
         style="fill:#0a3161;fill-opacity:1;stroke-width:6"
         d="m 575.25,546 -13.5,-12.75 c 2.47933,-15.68169 -4,-31.5 -6,-47.25"
         id="path14" /><path
         style="fill:#0a3161;fill-opacity:1;stroke-width:6"
         d="m 530.25,489 c 134.53998,74.62675 33.80255,77.64013 -1.5,-16.5"
         id="path15" /><path
         style="fill:#0a3161;fill-opacity:1;stroke-width:6"
         d="m 621,408 c -59.19219,-172.64929 -4.10532,36.94808 0,0 z"
         id="path16" /><path
         style="fill:#0a3161;fill-opacity:1;stroke-width:6"
         d="m 571.5,350.25 c 6.00971,9.02819 19.5,9.5 29.25,14.25"
         id="path17" /><path
         style="fill:#0a3161;fill-opacity:1;stroke-width:6"
         d="m 603.75,389.25 c 9.8415,-5.94467 -1.19808,3.14489 -6,15.75"
         id="path18" /><path
         style="fill:#0a3161;fill-opacity:1;stroke-width:6"
         d="m 618,381 1.5,2.25"
         id="path20" /><path
         style="fill:#0a3161;fill-opacity:1;stroke-width:6"
         d="m 627.75,364.5 c -134.72374,-52.69436 -20.16084,141.12603 0,0 z"
         id="path21" /><path
         style="fill:#0a3161;fill-opacity:1;stroke-width:6"
         d="m 396.6869,189.85817 c -603.82543,-648.79732 17.84389,701.85967 0,0 z"
         id="path22" /><path
         style="fill:#0a3161;fill-opacity:1;stroke-width:6"
         d="M 293.80286,328.80465 70.003572,196.22213"
         id="path23" /><path
         style="fill:#0a3161;fill-opacity:1;stroke-width:6"
         d="m 155.91704,355.32116 c 262.10693,-191.97156 -208.559205,-393.945178 0,0 z"
         id="path24" /><path
         style="fill:#0a3161;fill-opacity:1;stroke-width:6"
         d="m 138.94648,514.42018 c -211.788376,629.39562 647.76452,-107.02197 0,0 z"
         id="path25" /><path
         style="fill:#0a3161;fill-opacity:1;stroke-width:6"
         d="M 296.98485,754.12938 316.07673,675.6405"
         id="path26" /><path
         style="fill:#0a3161;fill-opacity:1;stroke-width:6"
         d="m 289.56023,791.25246 c 144.27778,-126.12204 -55.15224,-264.27107 0,0 z"
         id="path27" /><path
         style="fill:#0a3161;fill-opacity:1;stroke-width:6"
         d="m 96.520074,922.77432 c -0.88824,702.49378 648.916746,-72.67866 0,0 z"
         id="path28" /><path
         style="fill:#0a3161;fill-opacity:1;stroke-width:6"
         d="m 610.5,399 c -144.33422,-41.42772 123.94722,26.05331 -51,-23.25"
         id="path19" /><path
         style="fill:#0a3161;fill-opacity:1;stroke-width:6"
         d="m 373.35238,985.3533 c 643.57562,-70.62702 -206.89371,-540.74492 0,0 z"
         id="path29" /><path
         style="fill:#0a3161;fill-opacity:1;stroke-width:6"
         d="M 510.17754,889.8939 430.62803,749.88672"
         id="path30" /><path
         style="fill:#0a3161;fill-opacity:1;stroke-width:6"
         d="m 452.90189,685.18644 c 107.18532,156.2391 55.26428,77.87244 0,0 z"
         id="path31" /><path
         style="fill:#0a3161;fill-opacity:1;stroke-width:6"
         d="M 531.39074,768.9786 445.47727,708.52098"
         id="path32" /><path
         style="fill:#0a3161;fill-opacity:1;stroke-width:6"
         d="m 475.17575,692.61108 29.69849,67.88226"
         id="path33" /><path
         style="fill:#0a3161;fill-opacity:1;stroke-width:6"
         d="m 513.35952,675.6405 -62.57895,33.94116"
         id="path34" /><path
         style="fill:#0a3161;fill-opacity:1;stroke-width:6"
         d="m 540.93668,722.30958 -76.36753,24.39516"
         id="path35" /><path
         style="fill:#0a3161;fill-opacity:1;stroke-width:6"
         d="m 464.56915,712.76364 14.84925,8.48526"
         id="path36" /><path
         style="fill:#0a3161;fill-opacity:1;stroke-width:6"
         d="m 537.7547,713.82432 c -147.84663,-102.26202 -92.41218,161.7213 0,0 z"
         id="path37" /><path
         style="fill:#0a3161;fill-opacity:1;stroke-width:6"
         d="m 622.60752,797.61642 -80.61017,27.5772"
         id="path38" /><path
         style="fill:#0a3161;fill-opacity:1;stroke-width:6"
         d="m 634.27476,818.82966 -73.18553,3.18198"
         id="path39" /><path
         style="fill:#0a3161;fill-opacity:1;stroke-width:6"
         d="m 567.45319,797.61642 c 35.32367,-141.58572 95.82371,153.31794 0,0 z"
         id="path40" /><path
         style="fill:#0a3161;fill-opacity:1;stroke-width:6"
         d="m 584.42375,927.01698 c -9.10391,-22.93788 -46.17438,-7.9917 -55.15432,-9.54594"
         id="path41" /><path
         style="fill:#0a3161;fill-opacity:1;stroke-width:6"
         d="m 586.54507,955.6548 c -5.83785,-47.57634 -114.16991,-65.23992 0,0 z"
         id="path42" /><path
         style="fill:#0a3161;fill-opacity:1;stroke-width:6"
         d="m 569.57451,1388.4041 c 293.16939,-570.32654 -579.3865332,30.2289 0,0 z"
         id="path43" /><path
         style="fill:#0a3161;fill-opacity:1;stroke-width:6"
         d="M 519.72348,1446.7405 389.26228,1253.7003"
         id="path44" /><path
         style="fill:#0a3161;fill-opacity:1;stroke-width:6"
         d="m 359.5638,1243.0937 c 110.80838,-91.0011 171.41201,8.9433 0,0 z"
         id="path45" /><path
         style="fill:#0a3161;fill-opacity:1;stroke-width:6"
         d="m 479.4184,1243.0937 -117.73328,-2.1213 c -21.21121,-196.9847 113.75401,65.0023 0,0"
         id="path46" /><path
         style="fill:#0a3161;fill-opacity:1;stroke-width:6"
         d="m 488.96434,1187.9394 c 77.00083,-189.89676 -120.9443,45.3541 0,0 z"
         id="path47" /><path
         style="fill:#0a3161;fill-opacity:1;stroke-width:6"
         d="m 516.5415,1201.728 c 87.11718,-170.3714 -164.82118,16.4821 0,0 z"
         id="path48" /><path
         style="fill:#0a3161;fill-opacity:1;stroke-width:6"
         d="m 337.28993,1362.9483 c -813.13092,-134.5222 446.39221,559.4782 0,0 z"
         id="path49" /><path
         style="fill:#0a3161;fill-opacity:1;stroke-width:6"
         d="m 205.76807,1649.3266 c 213.89945,-222.2195 -155.401572,-271.3361 0,0 z"
         id="path50" /><path
         style="fill:#0a3161;fill-opacity:1;stroke-width:6"
         d="m 608.81892,1763.8778 c 86.21184,-644.078 -604.8346945,270.7356 0,0 z"
         id="path51" /><path
         style="fill:#0a3161;fill-opacity:1;stroke-width:6"
         d="m 299.10617,1664.1758 c 211.1172,32.5702 130.55317,-112.5909 -10.6066,6.3639"
         id="path52" /><path
         style="fill:#0a3161;fill-opacity:1;stroke-width:6"
         d="m 330,490.5 c 476.39958,271.77198 143.83058,-613.94386 -5.25,9"
         id="path53" /><path
         style="fill:#0a3161;fill-opacity:1;stroke-width:6"
         d="M 483,592.5 629.25,438.75"
         id="path54" /></g><path
       style="fill:#0a3161;fill-opacity:1;stroke-width:6"
       id="path97"
       d="m 1060.3904,276.17411 c -0.537,0.0414 -1.0728,0.14352 -1.611,0.12408 -6.0601,-0.21894 -12.2117,-1.85491 -18.0727,-3.18439 -3.2429,-0.73559 -21.5966,-5.09437 -23.8778,-5.63495 -4.9723,-1.14785 -9.9429,-2.30367 -14.917,-3.44355 -10.99066,-2.51858 -22.40092,-5.13263 -33.43042,-7.4476 -16.3941,-3.44093 -32.8638,-6.43763 -49.35708,-9.35414 -12.05964,-1.7467 -24.04116,-4.83243 -36.31398,-4.70006 -3.04392,0.033 -6.10896,0.20784 -9.09888,0.77936 -7.17474,1.37145 -8.7054,2.93211 -14.8653,6.48862 -6.58164,4.36378 -11.85636,10.25267 -17.60772,15.57593 -1.66176,1.53809 -3.37968,3.01469 -5.09448,4.49342 -1.44282,1.2442 -3.00936,2.34906 -4.37766,3.67478 -1.2168,1.17892 -2.23698,2.54513 -3.3555,3.81769 -0.75576,1.44333 -1.70712,2.80008 -2.26728,4.32999 -1.89138,5.16585 -1.38264,10.94132 -0.93528,16.28363 0.426,5.08747 0.97998,9.0827 1.61586,14.19509 1.97304,13.67712 5.03358,27.19839 8.82648,40.48218 1.11972,3.92159 2.20776,7.85664 3.53028,11.71456 1.39572,4.07144 3.07932,8.03842 4.61898,12.05762 5.48274,13.06034 12.78906,25.12332 21.97338,35.91873 3.35082,3.9386 6.81426,7.80924 10.63194,11.29719 9.29982,8.49657 16.82076,13.08392 27.0945,20.04371 33.06858,20.5696 66.4515,40.21635 103.10336,53.27102 4.9736,1.77152 9.6827,3.16655 14.7047,4.70996 5.1154,1.77782 6.49,2.01444 11.1565,4.53012 1.4726,0.79389 5.7238,3.46526 4.2691,2.63893 -145.41294,-112.56958 -90.67284,-47.96363 -66.60672,-38.28812 0.86106,-0.39396 0.4434,-0.042 0.5502,-1.54406 26.18634,13.33286 51.76792,27.92705 78.55912,39.99857 2.0393,0.91887 -2.3427,-3.8549 -3.0513,-5.97646 -3.1925,-9.55773 -4.502,-21.42796 -6.0176,-31.05698 -2.623,-25.73144 -2.9718,-51.67486 -0.2664,-77.42079 1.5315,-14.57513 4.3343,-31.74708 9.0105,-45.84675 1.6474,-4.96734 4.2281,-9.57483 6.3422,-14.36225 26.9619,-3.03672 87.0338,-8.274 -64.24186,-32.71908 -6.7137,-1.08488 2.4444,13.44571 2.52048,20.24606 0.1998,17.84578 -3.31206,35.93807 -8.40876,52.93546 -2.7198,9.07067 -6.54498,17.77248 -9.8175,26.65871 -4.04538,7.70241 -7.67316,15.63904 -12.1362,23.10721 -4.5174,7.55919 -15.80256,24.47753 -24.32964,30.03935 -3.00906,1.96266 -13.50456,0.78107 -10.44378,2.66205 82.74266,50.84866 82.13986,55.58205 64.78746,22.44214 -0.528,-7.0607 -1.7631,-14.10396 -1.58394,-21.18211 0.3846,-15.20655 3.6465,-31.90766 9.06904,-46.13976 2.2723,-5.96423 4.0597,-12.65331 8.6609,-17.07663 2.8871,-2.77562 15.1555,-0.44226 11.7435,-2.53941 -22.1457,-13.61172 -46.94106,-22.34699 -70.41156,-33.52049 1.91622,5.54043 4.83444,10.83056 5.74866,16.62129 2.18538,13.84311 -0.09,31.11213 -3.61146,44.46467 -2.23674,8.4813 -7.85826,24.55892 -15.36396,31.18857 -2.3592,2.08384 -5.9604,2.02638 -8.9406,3.03957 23.73666,11.26719 46.33266,25.34598 71.21004,33.80158 4.50078,1.52978 -5.9142,-7.65303 -7.48164,-12.14082 -2.20584,-6.31584 -3.10956,-13.06698 -3.65148,-19.73497 -1.15362,-14.19507 0.627,-28.59078 3.666,-42.42343 1.36596,-6.21762 3.48318,-12.24607 5.2248,-18.3691 2.02026,-5.00686 3.8029,-10.11627 6.0607,-15.02058 1.4802,-3.21532 7.3677,-15.40467 11.8173,-17.9683 1.5996,-0.92155 7.1521,1.05916 5.5356,0.16788 -78.78718,-43.43793 -78.7726,-67.41368 -75.67594,-31.80798 -1.59552,8.24656 -1.2135,9.6082 -5.25654,17.115 -1.22052,2.26611 -2.2161,4.94277 -4.35276,6.37787 -1.39332,0.93586 -6.49842,-0.89447 -5.0349,-0.0726 79.36774,44.57198 81.60784,67.43325 73.88084,30.41063 1.6485,-10.54726 1.7861,-14.75599 5.7155,-25.1077 1.567,-4.12824 3.5995,-8.074 5.703,-11.95646 3.0526,-5.6346 7.1949,-12.27463 12.114,-16.66746 1.529,-1.36542 3.4881,-2.15452 5.2321,-3.23179 31.3784,14.52257 -46.49816,-26.48005 -70.98596,-37.12998 -2.21454,-0.96313 1.46142,4.64485 1.66308,7.05136 0.237,2.83146 -0.054,5.69189 -0.3588,8.51661 -0.74418,6.83986 -1.86102,9.88163 -3.66744,16.39096 -2.12802,6.90245 -5.18544,13.44687 -8.68416,19.74793 -2.64558,4.7647 -0.4356,0.43872 -2.5728,4.73797 -1.68786,5.85968 -2.55066,11.88786 -4.9836,17.53461 -0.80742,1.87394 -1.80642,3.6594 -2.7096,5.4891 -4.2909,8.01573 -9.73482,15.2612 -16.22358,21.61917 -3.2448,3.1794 -5.0535,4.59639 -8.47188,7.47197 -4.69194,3.60977 -9.306,7.38533 -14.27628,10.61778 -2.05146,1.33421 -4.20162,2.51025 -6.30126,3.7674 -4.04286,2.49789 -8.36238,4.57623 -12.33618,7.17808 -0.1836,0.111 -2.43408,1.64619 -2.94666,1.3278 -0.4686,-0.29118 -0.93702,-1.85682 -0.4524,-1.59259 25.5276,13.9217 50.5725,28.71293 76.01004,42.79857 0.8805,0.48756 -1.81974,-1.08156 -2.28468,-1.97423 -0.92304,-1.77214 -1.15506,-3.82567 -1.73256,-5.73851 -1.60656,-8.43898 -1.4862,-16.58278 -0.4044,-25.06841 0.3528,-2.76587 0.71892,-5.53815 1.33428,-8.25764 1.06104,-4.689 2.4732,-7.7927 4.21164,-12.14824 0.68244,-1.27841 1.26048,-2.61824 2.04726,-3.8352 0.5118,-0.79129 1.0056,-1.69523 1.82688,-2.15715 2.81424,-1.58288 4.62258,8.77547 -0.69006,6.05877 -69.98994,-35.79041 -88.34274,-70.80727 -73.37022,-42.92705 1.10946,5.52015 -0.225,11.1252 -1.23876,16.56599 -0.90264,2.85632 -0.5232,6.33064 -1.76154,9.07791 -0.3462,0.76749 -0.78516,1.48944 -1.17774,2.23416 26.57856,13.70166 52.69728,28.33462 79.73562,41.10499 0.95694,0.45198 0.60258,-2.03443 0.7776,-3.07813 0.1824,-1.0863 0.189,-2.19485 0.291,-3.2916 0.348,-3.75054 0.918,-7.39947 1.60938,-11.10087 0.95844,-2.59544 1.30776,-7.00917 3.14796,-9.20026 0.63564,-0.7569 2.13666,-1.31703 2.90148,-1.68038 1.16916,-0.40416 2.30526,-0.92085 3.50736,-1.21251 4.64574,-1.12715 8.55486,-1.37385 13.42068,-1.32659 6.89328,0.067 13.3785,0.76378 20.1855,1.9154 3.6766,0.622 7.3072,1.49034 10.9608,2.23551 9.7237,2.1103 19.2781,4.9059 28.7167,8.03695 5.356,1.77674 7.9216,2.90246 13.2241,4.3151 1.782,0.47472 3.5985,0.80862 5.3978,1.21294 1.6984,0.23676 3.386,0.57204 5.0952,0.71032 6.1721,0.49926 12.5481,-0.18792 18.7315,-0.2709 8.1332,-0.10914 8.6857,-0.005 17.0318,0.22644 14.628,0.23238 29.219,2.20096 43.8634,1.81608 2.1752,-0.057 4.3427,-0.28524 6.514,-0.4278 0.264,-0.0336 7.8479,-0.79919 8.7113,-1.56383 1.6862,-1.49336 5.6123,-4.35375 3.7502,-5.62104 -24.6897,-16.80333 -50.9814,-31.25663 -77.6597,-44.68046 -1.6807,-0.84571 -2.9996,2.27808 -4.5796,3.29976 -2.3658,1.52986 -4.8319,2.89891 -7.2478,4.34837 -15.6991,9.49123 -31.3905,19.02234 -48.1692,26.52565 -9.1633,4.09779 -13.8485,5.61144 -22.9904,8.90231 -2.7113,0.6202 -5.3589,1.67046 -8.1337,1.86063 -1.74108,0.11934 -3.43242,-0.63357 -5.1486,-0.95036 24.8789,14.63425 48.8378,30.95894 74.6366,43.90273 1.8569,0.93165 -0.097,-4.21894 0.4824,-6.21382 2.3001,-7.90999 6.4451,-13.11073 10.873,-20.01488 7.8269,-10.08595 16.7059,-19.62558 27.6774,-26.37231 2.48,-1.52506 5.0698,-3.00577 7.8796,-3.76823 1.7773,-0.48222 7.0872,1.10308 5.5229,0.1314 -24.5396,-15.24288 -50.0394,-28.88274 -75.0592,-43.32411 -0.4764,3.01646 -0.2208,6.24464 -1.4286,9.04939 -3.0042,6.97528 -10.0549,13.58649 -15.9576,17.93828 -4.2769,3.15316 -12.4948,8.23333 -18.5186,8.01522 -2.1205,-0.0768 -3.8395,-1.80742 -5.7593,-2.71113 23.7863,12.92389 47.5726,25.84777 71.3589,38.77167 -0.6349,-1.36583 -1.7745,-2.59694 -1.9046,-4.09746 -0.4764,-5.49546 3.7653,-13.39188 7.6879,-17.04325 1.0748,-1.00051 2.527,-1.49653 3.7904,-2.24479 18.2558,26.02302 -2.4832,-4.528 -70.4879,-36.08712 -2.5652,-1.19043 3.1326,4.76105 4.1492,7.39995 1.3844,3.59379 2.2274,7.38447 2.9996,11.15748 1.9864,9.70569 2.233,16.61871 3.0267,26.49368 0.5322,12.27579 0.3996,24.56592 0.2892,36.84823 -0.072,8.04724 -0.088,13.80035 -0.4854,21.80207 -0.1638,3.30246 -0.4392,6.59846 -0.6585,9.89769 -0.7662,7.27006 -1.8218,14.58426 -4.8198,21.31941 -0.582,1.30728 -1.1303,2.67985 -2.0642,3.76398 -0.5298,0.61512 -1.7408,1.83223 -2.1556,1.13424 -0.7582,-1.27611 0.1236,-2.96619 0.186,-4.44929 175.8918,97.00816 84.1033,61.46023 71.7583,36.66665 -1.0827,-2.17464 -1.8694,-4.48947 -2.6325,-6.79582 -2.381,-7.19716 -2.4458,-9.02724 -3.9274,-16.48786 -0.6929,-3.48897 -1.4042,-6.97427 -2.1063,-10.46141 -2.1843,-16.96152 -1.437,-33.17827 3.0039,-49.73624 2.8704,-10.7022 4.7316,-14.18198 9.0038,-24.39024 9.5377,-19.16991 21.3006,-37.93778 38.4314,-51.26735 2.5598,-1.99176 5.4044,-3.58743 8.1066,-5.38114 2.2835,-0.65487 4.505,-2.3414 6.8504,-1.96461 1.6669,0.26778 5.0128,4.43849 3.5297,3.6321 -24.8164,-13.49228 -47.8045,-30.55171 -73.7185,-41.7927 -2.9061,-1.26065 0.018,6.40799 -0.7951,9.47011 -2.9877,11.27496 -10.4838,23.0529 -15.8386,32.85034 -5.9153,6.64501 -11.4143,13.68544 -17.746,19.93502 -14.389,14.20248 -29.8956,25.78542 -46.48106,37.26054 -14.09526,9.75218 -32.4855,21.02799 -47.34792,29.78835 -6.7524,3.98008 -13.60956,7.77975 -20.41434,11.66963 -5.77836,3.07017 -11.50056,6.24837 -17.33502,9.21051 -5.55942,2.82248 -17.28894,9.13656 -24.5256,9.64945 -2.1906,0.15528 -8.24268,-2.87597 -6.34674,-1.76765 78.43122,45.8491 71.6622,69.64506 76.00266,27.73697 7.42572,-15.00096 9.94218,-21.99942 21.03426,-35.56219 4.80132,-5.87087 10.29126,-11.17176 15.91626,-16.25896 7.68666,-6.95176 19.8559,-15.97421 29.5196,-20.70909 3.2421,-1.58854 6.8358,-2.32598 10.2537,-3.48898 30.9514,5.74376 58.7415,11.56367 -69.99176,-39.96918 -3.04866,-1.22042 -1.81308,6.35148 -3.27924,9.28993 -4.3023,8.6227 -10.37448,16.20733 -17.1291,23.01384 -3.72762,3.75629 -7.93002,7.00955 -11.89506,10.51433 -7.48212,5.11111 -14.06646,10.69648 -23.01948,13.0826 -2.62332,0.69915 -10.49466,-1.07571 -8.13996,0.27564 24.01704,13.78333 49.44912,24.94037 74.0907,37.57333 0.95112,0.48762 -3.10272,-0.0641 -3.0015,-1.12809 0.2742,-2.8838 2.56686,-5.19402 3.85026,-7.79103 4.91862,-5.20693 7.51656,-8.81113 13.88406,-12.28669 2.11656,-1.15529 4.41576,-2.32169 6.82602,-2.39508 1.71576,-0.0522 6.23116,2.87034 4.72698,2.04327 -74.75124,-41.10105 -85.25268,-64.0328 -70.38414,-34.72101 -0.3012,2.87469 -0.2334,5.8123 -0.9033,8.62405 -2.28624,9.59834 -7.81872,17.7223 -14.33244,24.93321 -19.7667,21.88257 7.6797,-9.98827 -9.68598,10.36209 -5.37852,6.02376 -8.25036,14.24576 -14.82696,19.21886 -1.0923,0.82596 -2.26932,1.94522 -3.63828,1.90806 -0.96954,-0.0264 -1.36836,-1.37504 -2.05254,-2.06256 163.30262,89.46622 75.264,65.66357 73.54002,35.71766 -0.1338,-2.32663 0.036,-4.68128 0.4272,-6.97838 1.16304,-6.79588 4.44894,-13.24244 7.48758,-19.33865 6.08946,-11.02474 -0.2148,0.93227 5.47788,-11.82547 1.11066,-2.48906 2.4756,-4.85794 3.62772,-7.32807 1.59042,-3.40961 2.76336,-7.02324 4.59828,-10.3077 2.37156,-4.24486 14.74848,-21.65436 16.8564,-24.66201 4.1082,-4.39979 7.99824,-9.01389 12.32464,-13.19937 4.3499,-4.20834 8.994,-8.10793 13.6708,-11.94976 12.4806,-10.25234 25.8702,-19.38637 39.8916,-27.3941 3.8678,-2.20895 7.8523,-4.20718 11.7784,-6.31077 9.0176,-4.57676 18.4121,-8.31581 28.1644,-10.98677 0.9058,-0.2481 9.0948,-1.74478 10.2487,-3.34541 1.3104,-1.81758 1.2137,-4.31388 1.8205,-6.47083 -1.5409,-1.74732 -2.7986,-3.79263 -4.6225,-5.24196 -1.6316,-1.29646 -15.3665,-8.76798 -16.5928,-9.47562 -6.6155,-3.81735 -11.3654,-6.71622 -17.5502,-11.17543 -2.469,-1.78014 -4.8177,-3.72153 -7.2265,-5.58231 -6.2316,-5.23448 -12.3162,-10.87622 -16.862,-17.69316 -2.4948,-3.74122 -2.6481,-4.56827 -4.5258,-8.75334 -1.4685,-4.41394 -2.5605,-9.09872 -2.1614,-13.79381 0.076,-0.89722 0.1542,-1.85145 0.6,-2.63394 0.626,-1.09949 1.6783,-1.89379 2.5175,-2.84068 -26.5894,-11.22502 -53.1788,-22.45004 -79.76816,-33.67505 3.28026,15.94925 3.01824,31.31096 -1.66926,46.99221 -1.02828,3.43996 -2.27454,6.8353 -3.86868,10.05237 -1.16646,2.35409 -2.9097,4.37533 -4.36452,6.56299 -30.5232,12.78749 -6.1023,1.28792 72.70792,37.99493 1.5792,0.73553 -3.7222,-0.93741 -4.6299,-2.42434 -1.4804,-2.42514 -1.6049,-5.48108 -1.9195,-8.30487 -0.8187,-7.34644 0.1944,-10.42682 1.3985,-17.50416 0.891,-2.62049 2.1467,-8.43442 5.0129,-10.44548 0.768,-0.53892 1.8757,-0.0558 2.8135,-0.0841 -25.8695,-13.30146 -51.08072,-27.96975 -77.60852,-39.90438 -1.82736,-0.82212 1.46202,3.77352 1.71624,5.7611 0.3288,2.56894 0.012,5.17975 0.012,7.76963 -0.89424,7.66852 -2.85888,15.36997 -7.02894,21.97573 -1.01262,1.60414 -3.32496,4.70241 -5.71044,5.06064 -0.5322,0.0799 -0.95208,-0.5022 -1.42812,-0.7533 0,0 76.86548,45.0622 76.86548,45.0622 v 0 c -0.2106,-1.19199 -0.9273,-5.13725 -0.9565,-5.90055 -0.2496,-6.53064 1.4704,-14.44229 3.6139,-20.53449 0.9184,-2.61009 2.1853,-5.08412 3.278,-7.62618 1.2598,-2.05373 2.3157,-4.24744 3.7795,-6.16119 1.0803,-1.41243 5.2986,-2.79184 3.7981,-3.74602 -24.8591,-15.80802 -51.492,-28.63649 -77.238,-42.95474 0.60864,1.1106 1.48998,2.11073 1.82604,3.33179 1.21284,4.4075 0.5964,9.37762 0.4224,13.79741 -0.4056,2.90992 -0.64374,5.84821 -1.21716,8.72977 -1.14258,5.74139 -2.43012,10.05013 -5.19198,15.14887 -1.28022,2.36346 -6.642,5.42918 -4.33104,6.80191 83.15444,49.39511 85.25554,64.7353 77.18654,31.43122 -0.018,-3.05783 -0.2574,-6.12251 -0.054,-9.1735 0.5334,-7.93106 2.169,-16.33778 4.3082,-23.96165 2.1201,-7.5561 4.4851,-14.38374 8.6978,-21.0215 1.2063,-1.90064 2.9155,-3.43081 4.3732,-5.14622 -25.9599,-13.29553 -52.48018,-25.54934 -77.87956,-39.8866 -1.24926,-0.70519 2.48442,-2.28096 3.86538,-1.89241 1.2189,0.34296 1.2129,2.23693 1.62024,3.43585 1.75212,5.15641 1.9119,10.72227 3.11316,15.99794 1.15842,4.64584 1.3689,6.83606 3.78942,11.07128 5.25126,9.18823 14.66268,15.47665 22.37118,22.36368 7.50838,5.8893 14.98468,11.76172 22.92288,17.07014 1.9573,1.3089 3.9484,2.56728 5.9503,3.80693 1.3379,0.82845 2.5784,1.8873 4.0674,2.39635 0.834,0.28512 1.7613,-0.0684 2.642,-0.10254 1.2695,-0.83953 2.299,-2.32407 3.8086,-2.51859 0.6726,-0.0867 0.8064,1.32293 0.5616,1.95544 -0.5262,1.35998 -1.6645,2.40762 -2.6611,3.47206 -6.0073,6.41629 -13.5456,11.19795 -20.1592,16.91154 -3.2728,2.64239 -6.6022,5.2162 -9.8184,7.92716 -21.36926,18.01213 -40.57472,38.44991 -62.41646,55.9167 -24.45186,18.17525 -5.23638,3.24908 -25.3584,20.38298 -3.21498,2.73755 -6.78012,5.07114 -9.82302,7.99873 -2.09898,2.01937 -3.72672,4.47822 -5.52606,6.76855 -5.65308,7.19545 -3.92388,4.28627 -6.85968,12.09185 -2.3841,6.78301 -4.55052,13.77798 -7.67514,20.2702 -1.02078,2.12087 -2.21532,4.15522 -3.40968,6.1834 -0.98022,1.66455 -4.67808,3.75995 -3.11094,4.88939 23.82888,17.17345 49.81002,31.14375 74.715,46.71562 0.5676,-1.94603 1.4973,-5.38195 2.33904,-7.14815 3.54852,-7.44562 9.78384,-13.19356 13.43106,-20.59434 1.02942,-1.92733 2.13756,-3.81464 3.08832,-5.78198 4.4979,-9.30742 1.6521,-5.11389 7.09152,-15.089 4.87914,-8.94766 10.78812,-17.24259 17.13672,-25.19758 21.71132,-30.21459 9.93782,-8.96399 -70.026,-51.4467 -1.20834,-0.64199 -1.16892,2.48344 -1.9116,3.63268 -2.74788,4.25226 -6.17472,8.21865 -9.78192,11.73833 -2.4324,2.37342 -5.08644,4.50856 -7.62972,6.76284 -1.09944,0.71682 -21.2433,13.31095 -19.34298,14.70268 169.32184,124.00868 63.78912,61.37469 77.36754,33.52749 3.62064,-7.42535 9.52002,-12.48796 15.12774,-18.38359 4.04466,-3.51641 7.95708,-7.19089 12.13392,-10.54922 7.87154,-6.32906 17.08834,-12.99925 26.19814,-17.53993 3.4973,-1.74321 13.8725,-1.64374 10.9363,-4.22225 -21.0274,-18.46567 -46.30172,-31.44336 -69.45254,-47.16504 1.40256,1.33485 2.80512,2.6697 4.20768,4.00455 -0.402,2.95836 -0.225,6.05565 -1.2069,8.87507 -3.17592,9.11697 -11.55054,21.21708 -17.24694,28.21304 -4.76544,5.8526 -9.78054,11.54158 -15.29196,16.69777 -12.43854,11.63671 -22.1637,17.45032 -35.9859,26.74851 -41.52276,15.82932 -24.15252,4.24539 54.2337,53.82591 1.38936,0.87879 -1.91508,-2.9592 -1.78404,-4.59794 0.2202,-2.75313 1.41834,-5.40172 2.77608,-7.80688 4.24716,-7.52366 13.57212,-17.44403 18.86202,-23.52854 5.00784,-4.99732 9.8448,-10.17195 15.02352,-14.99197 12.98898,-12.08928 26.71248,-23.20016 40.83538,-33.93287 24.1174,-18.32803 49.2643,-35.27458 75.1254,-51.03829 32.9818,-17.88349 12.4821,-5.81267 36.8173,-21.79481 3.2587,-2.14014 12.765,-3.61718 9.8874,-6.24754 -21.2155,-19.39274 -47.141,-32.9004 -70.7115,-49.3506 -0.068,1.38466 0.1392,2.81084 -0.204,4.154 -0.501,1.96061 -1.5295,3.74714 -2.2943,5.62071 -1.669,2.56607 -3.2695,5.17805 -5.007,7.69821 -12.4895,18.11485 -27.0596,34.95827 -36.7011,54.9011 -1.856,4.16292 -3.9223,8.23829 -5.5679,12.48876 -4.8224,12.45639 -7.6965,25.63356 -10.0895,38.73432 -0.7372,4.03565 -1.4695,8.07558 -2.0038,12.14306 -0.4788,3.64401 -0.6889,7.31828 -1.0333,10.97742 -0.2622,3.19687 -0.7486,6.38323 -0.786,9.59061 -0.03,2.7099 0.3864,5.40636 0.5796,8.10954 0.048,2.39272 0.1878,4.78539 0.1422,7.17816 -0.036,1.93406 -0.1314,3.87288 -0.3876,5.79027 -0.1968,1.47305 -2.2063,3.53229 -0.9668,4.35228 24.8354,16.43089 51.1482,30.51131 76.7224,45.76696 0.7011,-1.60711 1.7608,-3.10173 2.1033,-4.82134 0.2556,-1.28216 -0.2808,-2.60037 -0.3654,-3.905 -0.117,-1.81688 -0.1746,-3.63722 -0.2388,-5.45674 -0.2982,-8.43998 -0.4638,-16.88505 -0.7807,-25.3245 -0.3282,-11.10868 -0.6098,-22.22428 -1.2663,-33.31998 -0.4326,-7.31058 -1.3089,-17.52597 -1.7176,-24.79323 -0.2442,-4.34576 -0.3828,-8.69682 -0.5748,-13.04523 0.1044,-4.26003 0.03,-8.52815 0.3132,-12.78012 0.4686,-7.066 1.4289,-13.93376 3.3521,-20.74931 0.6519,-2.31012 4.4121,-5.364 2.4641,-6.76635 -73.4421,-52.86819 -62.0897,-71.56 -77.5005,-41.76065 -0.5694,1.57229 -1.0765,3.16849 -1.7079,4.71688 -1.6874,4.13788 -3.8558,8.62911 -6.072,12.48329 -1.3035,2.26678 -2.8471,4.38928 -4.1592,6.65104 -1.2795,2.2055 -5.66908,5.23744 -3.6114,6.74319 23.295,17.0463 49.3933,29.88683 74.09,44.83024 2.4847,-3.97651 3.3864,-5.68717 6.8563,-9.61294 7.7999,-8.82484 18.0959,-17.83775 28.9814,-22.5509 3.7038,-1.60365 7.767,-2.19847 11.6505,-3.29772 -23.9717,-15.54424 -47.4268,-31.91578 -71.915,-46.63273 -1.2603,-0.75738 1.5195,2.75101 1.3224,4.20808 -0.3342,2.47142 -1.5973,4.75755 -2.828,6.92667 -1.7666,3.11374 -3.8884,6.02547 -6.1122,8.83101 -6.8202,8.60438 -10.8089,11.85451 -18.8271,19.50125 -8.886,6.99185 -10.8385,9.2431 -20.523,14.31801 -2.6105,1.368 -10.4423,1.66767 -8.12456,3.48828 22.71226,17.84102 48.43846,31.46928 72.65766,47.20391 -0.072,-1.11535 -0.612,-2.30107 -0.2154,-3.34603 0.701,-1.84768 2.2286,-3.26422 3.3428,-4.89632 6.3773,-5.88851 8.2655,-8.08051 16.0518,-13.07988 12.644,-8.11828 26.6357,-14.1161 41.1975,-17.7929 4.4087,-1.11319 8.9349,-1.69449 13.4024,-2.54174 3.7111,-0.17328 7.423,-0.71192 11.1332,-0.5199 2.7611,0.14292 10.4462,3.06447 8.1543,1.51816 -19.9021,-13.42726 -95.6967,-27.50646 -67.1174,-48.04352 0.9921,-0.71298 -3.9573,7.11555 -2.7011,2.47766 -1.3742,0.3975 -2.7207,0.90791 -4.1226,1.19247 -4.639,0.94165 -8.3077,1.01422 -13.1127,1.04984 -8.9364,0.0662 -17.8627,-0.5421 -26.781,-1.00474 -15.4088,-1.14143 -30.8511,-2.44634 -45.9243,-6.0247 -12.99824,-2.67698 -26.09546,-4.80526 -39.17042,-7.07195 -11.36898,-1.83154 -22.74252,-3.80624 -34.19214,-5.07951 -5.80674,-0.64575 -14.16036,-1.42623 -20.14146,-1.0494 -2.36172,0.1488 -4.67334,0.74811 -7.01004,1.12216 -1.61088,0.77376 -3.36684,1.29903 -4.8327,2.32129 -2.91048,2.02975 -4.4436,5.64715 -4.97196,9.02159 -0.327,2.08663 0.012,4.24556 -0.5136,6.3153 -0.528,3.1982 -1.00236,6.34758 -2.75148,9.16044 -0.33,0.5304 -0.68538,1.10156 -1.22292,1.41955 -0.1842,0.10902 -0.69366,-0.498 -0.5046,-0.39768 26.3061,13.9507 52.57626,27.96908 78.86442,41.95363 -0.579,0.45642 -1.00482,1.2793 -1.7364,1.36922 -0.4008,0.0492 -0.39,-0.71137 -0.5292,-1.09076 -0.89808,-2.4486 -0.3198,-5.17431 -0.5148,-7.71653 0.1548,-5.93185 0.64614,-11.91289 1.911,-17.71492 9.4404,-31.15367 3.59838,-8.57223 -74.37036,-51.06394 -1.85658,-1.01182 -2.62278,3.37864 -3.44304,5.32747 -0.3798,0.903 -0.036,1.95923 -0.036,2.93896 -0.006,4.37964 0.036,4.31722 0.1992,9.11204 -0.1122,5.15899 -0.1086,9.19416 -0.6417,14.40351 -0.2928,2.85834 -0.7578,5.69656 -1.1772,8.53906 -1.14462,7.75791 -2.50008,15.48381 -5.19504,22.88381 -0.72738,1.56711 -1.43802,3.14213 -2.18214,4.70134 -0.62922,1.31833 -3.16188,3.13365 -1.9377,3.93071 128.40468,83.60359 51.98616,61.34771 81.75654,40.94702 3.69498,-2.67654 6.9927,-5.80229 10.40466,-8.8256 6.08466,-5.7615 12.91548,-10.74814 18.14658,-17.37458 8.34234,-10.21723 15.7459,-21.1544 24.1475,-31.3294 4.1968,-5.18957 9.3864,-10.87349 12.6485,-16.70705 1.1866,-2.12199 1.3224,-2.94597 2.0143,-5.18143 0.543,-4.64198 0.1512,-0.73115 0.4596,-6.0133 0.3132,-5.36825 0.6314,-10.73535 1.2678,-16.07737 0.2988,-2.50644 0.6712,-5.0035 1.0068,-7.50526 1.5212,-8.18651 2.9883,-16.48161 6.7867,-24.00477 1.0566,-2.09278 5.6749,-4.54943 3.7806,-5.93064 -76.52238,-55.79541 -76.65654,-74.43846 -74.38542,-41.53761 -0.1746,2.18902 -0.1794,4.39813 -0.5232,6.56706 -1.71876,10.85619 -5.92794,23.15983 -11.0046,32.835 -4.78434,9.11802 -8.11596,12.8527 -14.1645,20.78056 -30.8679,22.63245 -13.63434,6.31956 67.19912,49.86776 1.5618,0.84139 -2.1786,-3.10439 -2.1288,-4.87767 0.075,-2.66171 1.4481,-5.13885 2.4794,-7.59378 3.3788,-8.0432 4.3196,-8.37177 9.5524,-15.19205 27.4873,-22.64029 9.7089,-5.16519 -69.24662,-48.40471 -1.91568,-1.04914 3.2931,3.1554 3.92682,5.24564 1.64502,5.42564 0.411,20.3209 0.048,24.73697 -0.4818,5.83844 -1.22898,11.65196 -1.84344,17.47794 -2.97954,20.11098 -5.6994,40.49265 -12.34032,59.82198 -1.78764,5.20329 -3.87018,10.33997 -6.50778,15.16833 -1.99842,3.65821 -10.6875,7.6868 -7.3179,10.14069 22.63302,16.48214 49.66932,25.85769 74.50392,38.78654 -0.7758,-3.5121 -2.11212,-6.94598 -2.32746,-10.5363 -0.71082,-11.85326 1.67886,-26.09017 4.77246,-37.28412 3.40182,-12.30917 9.16102,-27.3479 16.84272,-37.86949 2.9517,-4.04295 7.1209,-7.03736 10.6813,-10.55605 -23.7331,-13.73042 -46.01986,-30.33858 -71.19934,-41.19125 -4.18644,-1.80443 4.81416,8.14483 5.08596,12.69551 0.4068,6.81066 -1.57284,13.58411 -3.1197,20.22924 -3.31086,14.22345 -9.06582,29.86488 -15.94728,42.77741 -2.89752,5.43694 -6.69288,10.34547 -10.03938,15.5182 -27.82728,29.22943 -21.3999,15.81262 63.96924,49.46363 3.31962,1.30854 -1.71006,-7.02767 -1.5477,-10.59219 0.2628,-5.76995 1.4907,-11.47512 2.80908,-17.09856 4.03446,-17.20852 9.30772,-30.12836 15.35712,-46.88906 7.3032,-16.96604 14.1787,-34.32457 23.4118,-50.39529 3.8998,-6.78789 8.0283,-13.51506 13.0188,-19.54651 3.5968,-4.34708 16.5669,-7.39341 12.5512,-11.35682 -19.3107,-19.0592 -45.0738,-30.28596 -68.54102,-43.90378 -3.79464,-2.202 6.1092,6.29848 9.16372,9.44772 0.7441,6.29382 1.9059,12.55222 2.2322,18.88146 0.8015,15.54942 -0.3672,34.17425 -2.1556,49.50707 -2.06438,17.70061 -4.81604,32.58628 -9.52652,49.70524 -1.79838,6.53569 -4.17738,12.89757 -6.2661,19.34634 -4.53162,9.98502 -5.65644,13.98127 -11.4276,22.25393 -1.10178,1.57934 -5.39916,3.36007 -3.76614,4.3807 25.13478,15.70951 75.43236,69.17244 79.50966,39.8139 0.1452,-1.04664 0.1302,-2.10933 0.1956,-3.164 -0.5664,-1.96321 -1.0764,-5.04389 -3.0965,-6.25956 -43.8717,-26.40136 -53.20444,-38.60695 -88.1887,-46.96291 -1.93794,-0.47232 -3.86778,-0.97936 -5.81388,-1.41704 -5.77968,-1.29985 -6.219,-1.06169 -12.2844,-2.79973 -2.85564,-0.8183 -5.70642,-1.67079 -8.49258,-2.70128 -20.64666,-7.6364 -32.59794,-17.58761 30.01746,20.04687 -11.20728,-6.92968 -15.89736,-9.10328 -25.58214,-17.82336 -13.13988,-11.83109 -22.86636,-26.75934 -29.72592,-42.95374 -3.36576,-9.55005 -4.66008,-12.22038 -6.75672,-22.04999 -2.53098,-11.86591 -3.25626,-24.04095 -3.04404,-36.14234 0.5628,-9.43096 0.85374,-19.01768 3.22026,-28.20796 0.5418,-1.23339 1.01316,-2.50012 1.62522,-3.70018 5.0058,-9.81509 13.02792,-17.4846 22.4337,-23.0874 5.50428,-2.5926 6.45636,-3.38885 12.3702,-4.80968 11.34786,-2.7264 23.68218,-1.61196 35.2038,-1.20891 12.30972,1.14249 15.5718,1.23309 28.1916,3.34545 23.16244,3.87702 45.89694,9.98273 68.24684,17.12768 21.1146,7.08492 42.3062,14.24781 62.4948,23.72084 z" /><path
       style="fill:#0a3161;fill-opacity:1;stroke-width:6"
       id="path98"
       d="m 978.78732,623.41248 c 0.2538,0.6882 0.5742,1.3554 0.76188,2.0646 1.89,7.15158 0.3066,15.36576 -0.87642,22.4916 -0.2952,1.43832 -2.1063,10.22952 -2.36448,11.61558 -0.3834,2.05812 -0.65142,4.13718 -1.06116,6.1902 -1.06362,5.32872 -2.53506,10.58142 -3.71412,15.88626 -1.61478,7.07214 -2.93766,14.20986 -3.91614,21.39726 -0.2694,2.6046 -1.02444,5.11182 -1.58154,7.65594 -0.5304,2.42304 -0.98208,4.81134 -1.64952,7.206 -0.93822,3.7563 -2.28516,7.36404 -3.82092,10.90632 -1.25748,2.8773 -2.06358,5.91498 -3.06252,8.88294 -1.23144,3.12348 -2.73288,6.1314 -4.01844,9.23016 -0.9105,1.86852 -1.79952,3.7536 -2.79852,5.57736 -0.345,0.62982 -0.76038,1.2207 -1.08264,1.8624 -3.14052,6.25338 1.07256,-1.35822 -2.3538,4.68864 -2.79162,4.63248 -5.79126,9.1392 -8.94246,13.53504 -0.5568,0.76374 -1.11354,1.5273 -1.66974,2.29134 -0.5568,0.76488 -1.08048,1.55514 -1.66956,2.29548 -1.5219,1.91274 -3.35382,3.57216 -4.8516,5.50494 -0.4824,0.62214 -0.89484,1.2951 -1.34232,1.94268 -1.16004,1.83702 -2.78874,3.28878 -4.1577,4.95432 -0.4752,0.5778 -0.88938,1.2039 -1.36128,1.7844 -0.81348,1.00074 -1.6893,1.94928 -2.52048,2.93538 -0.3966,0.552 -0.79278,1.10382 -1.1892,1.6557 -0.4008,0.4872 -0.83154,0.95136 -1.20192,1.46214 -0.4032,0.5556 -0.73128,1.16196 -1.1142,1.7316 -1.19046,1.77102 -2.4873,3.46776 -3.76956,5.17218 -2.68404,4.20498 -5.2422,8.48442 -8.0151,12.63612 -3.34386,4.60182 -5.93652,9.6684 -8.71644,14.61348 -2.5224,4.85454 -5.79168,9.25428 -8.29236,14.1201 -2.28,4.52442 -4.42122,9.11994 -6.96912,13.5024 -0.5316,1.00872 -2.00178,3.73632 -2.39214,4.74264 -0.408,1.05198 -0.65304,2.16054 -1.0116,3.2304 -1.35078,4.03086 -2.8446,8.01714 -4.22514,12.03852 -1.25802,4.22496 -2.4786,8.4543 -3.20034,12.8097 -0.3936,2.37396 -0.75816,5.09124 -0.5778,7.5135 0.0864,1.16526 0.3984,2.30268 0.5976,3.45402 13.9251,29.34006 2.30454,6.34212 77.52372,46.92102 1.11792,0.60312 2.48526,-0.5286 3.71886,-0.83148 4.04298,-0.9924 7.87074,-2.42736 11.76132,-3.88938 4.05072,-1.76424 8.14638,-3.52764 11.98056,-5.74062 4.37724,-2.52642 8.46924,-5.59302 12.58506,-8.51148 8.24682,-5.95464 17.19536,-10.81632 25.71556,-16.34658 3.3472,-2.10198 6.2718,-4.75602 9.2439,-7.3356 1.1031,-0.95742 4.8372,-4.11588 5.8428,-5.15136 1.033,-1.0638 1.939,-2.24418 2.9085,-3.36624 1.0672,-1.12908 2.1408,-2.25228 3.2019,-3.38718 1.1402,-1.21974 2.2297,-2.4876 3.4018,-3.67674 4.2437,-4.30512 8.9108,-8.18586 13.5422,-12.05946 2.977,-2.91486 6.2979,-5.60658 8.9703,-8.82522 1.378,-1.65954 2.5807,-3.45732 3.9034,-5.16114 3.6404,-4.58184 6.6905,-9.58122 9.9109,-14.45484 3.2863,-4.9734 3.3458,-4.9761 6.8781,-9.99168 3.964,-5.09142 8.0508,-10.13874 13.0512,-14.26692 0.8726,-0.72042 6.0452,-4.49898 7.5706,-4.98318 0.7599,-0.2412 1.5914,0.1002 2.3871,0.15 -25.866,-13.1256 -52.039,-25.66314 -77.5981,-39.37686 -0.8542,-0.4584 2.1323,-1.44468 2.8094,-0.75102 1.0634,1.08954 0.7466,2.96988 0.8394,4.4895 0.2568,4.20762 -0.4914,10.38534 -1.2724,14.35728 -0.5808,2.95458 -1.4511,5.84484 -2.1767,8.76732 -3.7878,13.03686 -9.3175,25.6824 -17.9912,36.25818 -1.8811,2.29356 -3.7549,4.67442 -6.1314,6.44952 -1.8445,1.37772 -4.19874,1.88982 -6.29808,2.8347 -32.18448,-17.29314 59.12848,31.7844 65.42948,34.53054 2.9718,1.29522 -3.6787,-5.44122 -4.6831,-8.52348 -1.4969,-4.59378 -2.2283,-9.42954 -2.7327,-14.23464 -1.0943,-10.42536 -0.2856,-23.81046 0.054,-34.19148 0.7005,-4.99482 1.2088,-10.0203 2.1013,-14.98434 0.8065,-4.48554 2.6408,-13.63824 5.4692,-18.1812 0.6922,-1.11168 4.1376,-1.93272 2.985,-2.55438 -79.85374,-43.07196 -75.7906,-65.65824 -77.7715,-28.20492 -0.74352,8.56662 -0.5916,11.0754 -2.75544,19.3725 -0.85086,3.2622 -1.6791,9.89568 -6.69804,10.47186 -1.21272,0.1392 -5.02014,-3.96648 -5.56656,-4.50564 -8.09178,-2.96868 -15.75744,-6.93582 -23.62734,-10.41576 -2.12178,-0.93822 -10.38618,-4.45782 -13.2276,-5.22588 -1.19736,-0.3234 -2.46126,-0.3096 -3.69192,-0.4638 24.45798,17.5269 48.9159,35.05374 73.3739,52.58058 1.454,-0.69792 2.7834,-1.7628 4.3619,-2.09382 2.5988,-0.5448 5.296,-0.5226 7.9511,-0.4884 4.8603,0.0636 13.838,0.8826 18.4802,2.71896 2.4779,0.98022 4.5194,2.82432 6.7791,4.23648 -21.8288,-11.82144 -42.5732,-25.91304 -65.48642,-35.46444 -2.59362,-1.08114 0.91566,5.61936 0.5832,8.40954 -0.5256,4.40964 -1.39188,8.8626 -3.12816,12.94992 -3.65304,8.59968 -10.71048,16.70094 -17.3496,23.07108 -2.99226,2.871 -6.38568,5.2923 -9.57852,7.93842 -2.83614,1.57362 -5.27244,4.5018 -8.50848,4.72074 -2.37006,0.1602 -8.1693,-4.84518 -6.06954,-3.73446 24.18048,12.79068 46.57422,29.54706 72.32372,38.78082 4.4301,1.58868 -2.6626,-9.13782 -2.7809,-13.84278 -0.1896,-7.5543 4.4761,-31.78758 5.5918,-38.16534 4.8584,-18.76188 5.1281,-20.8317 10.8224,-38.92692 1.6699,-5.30664 3.3267,-10.62336 5.2795,-15.83262 1.0057,-2.68296 5.9398,-15.6762 9.7278,-18.49704 1.6566,-1.23366 4.0483,-0.82218 6.0726,-1.2333 -26.12,-11.08776 -50.86366,-26.25312 -78.35998,-33.26328 -4.28688,-1.0929 0.4782,8.87994 -0.054,13.27188 -0.60672,5.01324 -2.03736,9.89784 -3.34098,14.7765 -3.70146,13.85262 -5.70876,19.94544 -12.41046,32.6418 -2.4999,4.7361 -5.53878,9.16746 -8.30814,13.75122 -2.76504,3.6918 -5.36514,7.51308 -8.29506,11.07546 -2.9916,3.63744 -9.16668,10.70964 -14.04528,12.93666 -1.55244,0.70866 -6.59136,-0.285 -5.09208,0.5304 86.89494,47.24712 95.74318,55.62438 71.35098,34.1709 -0.45,-3.48348 -1.30584,-6.93822 -1.3503,-10.45038 -0.1686,-13.3059 3.64806,-27.87396 8.97972,-39.97494 3.7617,-8.5377 6.21198,-11.47794 11.23198,-18.82326 1.6339,-1.70778 3.0506,-3.65388 4.9019,-5.12328 1.1454,-0.90912 2.6347,-1.26948 3.9521,-1.90422 -25.28282,-14.3202 -49.2914,-31.17018 -75.84842,-42.9606 -2.6361,-1.17036 -1.03746,5.68986 -1.90578,8.44026 -3.64704,11.55222 -5.25972,12.75246 -11.73708,23.8905 -3.4587,4.40394 -6.60144,9.07536 -10.37598,13.2117 -6.22254,6.81894 -16.23804,15.4785 -24.3045,20.30334 -3.38916,2.02716 -6.95706,3.93612 -10.78692,4.89954 -2.62536,0.66042 -10.46148,-1.50252 -8.12028,-0.1434 23.4336,13.60488 48.135,24.89838 72.20244,37.3476 -0.963,-1.39206 -2.7327,-2.49072 -2.88912,-4.17618 -0.61956,-6.67644 3.37446,-15.67488 6.49626,-21.04938 3.38232,-5.823 8.54592,-12.1596 14.19294,-16.06536 1.8888,-1.30638 4.19124,-1.87914 6.2868,-2.81874 -24.64818,-13.61364 -48.51162,-28.75674 -73.94454,-40.84104 -1.92168,-0.91302 1.40346,4.15464 1.18776,6.27126 -0.3018,2.96382 -1.27086,5.9049 -2.69526,8.5215 -1.9608,3.60192 -6.64158,8.24454 -10.98546,9.21372 -1.41912,0.3168 -2.86056,-0.5232 -4.29078,-0.78504 -0.036,-1.73094 -1.63566,-6.01092 -0.1098,-5.19276 24.89016,13.34604 48.0192,29.75754 72.42588,43.96848 0.67026,0.39 -0.69498,-1.43898 -0.71478,-2.2143 -0.1104,-4.31646 1.8846,1.03548 1.0833,0.64416 -25.7505,-12.57492 -50.99964,-26.15154 -76.49946,-39.22728 1.401,1.5936 3.07152,2.98578 4.203,4.78086 1.71198,2.71614 2.92302,5.71986 4.25646,8.64054 6.79212,14.87682 6.21558,13.54368 10.68666,29.70288 5.42928,19.62198 4.08504,14.6184 7.43934,33.9996 1.59138,11.8497 2.61252,23.7924 2.40366,35.75676 -0.0942,5.3958 -0.5874,10.80948 -1.0197,16.18764 -0.2514,3.63468 -0.3984,7.27128 -0.594,10.90662 -8.57028,29.37924 -2.09124,6.2634 76.62426,46.84482 1.71702,0.88518 1.56924,-3.55344 2.01936,-5.43198 0.297,-1.23828 0.03,-2.55294 0.1962,-3.81504 0.65322,-4.8738 1.22196,-5.51388 3.01236,-10.33584 1.08924,-2.04408 2.02362,-4.17852 3.2676,-6.13218 5.9739,-9.38178 15.5667,-18.1929 24.49198,-24.68544 2.9378,-2.13714 6.0535,-4.01826 9.0804,-6.02736 16.1678,-9.54354 34.0854,-15.95646 52.6826,-18.66222 2.9207,-0.4248 5.8741,-0.5826 8.8111,-0.87414 2.4484,0.0804 4.9318,-0.18 7.3451,0.2412 1.8639,0.3252 3.5494,1.31178 5.3241,1.96764 -23.2886,-12.73128 -46.5634,-25.48782 -69.8658,-38.1939 -0.821,-0.4476 2.0245,0.5712 2.4205,1.41822 1.8304,3.9153 -0.048,8.52852 -0.8783,12.23268 -2.8242,6.71664 -6.5476,13.14126 -12.0147,18.07794 -1.4062,1.26978 -4.8232,3.71352 -7.0804,4.03884 -0.6655,0.096 -1.30972,-0.3048 -1.96456,-0.4572 136.67706,76.14576 62.67516,67.8771 80.48806,36.37068 2.3304,-4.12176 5.326,-7.9026 8.1852,-11.65836 1.2531,-1.61076 3.5379,-5.14554 5.7755,-5.99514 0.7273,-0.276 1.5403,0.2202 2.3104,0.3306 -25.5952,-13.86216 -50.9448,-28.1877 -76.7855,-41.58648 -0.9323,-0.4836 1.5482,1.61376 1.6989,2.65308 0.2706,1.86474 -0.3318,3.75384 -0.498,5.63076 -1.6999,6.75966 -4.6369,13.04844 -8.981,18.52272 -1.1389,1.43526 -5.0998,6.24126 -7.8365,6.32376 -0.9509,0.03 -1.4783,-1.19796 -2.2174,-1.797 25.2903,14.00412 49.9767,29.15904 75.8709,42.01236 1.6039,0.79608 -1.4308,-3.35034 -1.5777,-5.13486 -0.2532,-3.07422 0.018,-6.18354 0.3942,-9.2454 1.1139,-9.12576 3.3346,-17.15352 6.298,-25.8816 1.6705,-4.92042 3.693,-9.7143 5.5395,-14.57148 2.1522,-4.88514 4.2237,-9.80664 6.4566,-14.65542 3.0624,-6.65004 10.1779,-21.0678 13.5798,-27.6927 2.6559,-5.17206 9.36,-17.7612 12.4288,-23.0739 1.7546,-3.03756 3.6551,-5.98848 5.4827,-8.98272 3.9033,-5.43972 7.3679,-11.41656 12.2575,-16.0878 22.988,-21.96102 108.8532,53.25924 -73.3162,-44.76582 -0.1932,1.4709 -0.2256,2.97198 -0.5796,4.41264 -1.0182,4.14522 -2.7341,7.46616 -4.7426,11.22732 -3.7894,7.0959 -8.2968,13.66038 -12.869,20.26284 -1.8644,2.3181 -3.6017,4.74432 -5.5931,6.95424 -7.6232,8.46 -18.1421,16.80906 -30.3096,15.78732 -2.7126,-0.228 -5.2591,-1.40778 -7.8886,-2.1117 -26.16354,-20.83878 12.9584,10.96224 50.644,25.311 4.1478,1.57932 -5.0835,-7.33224 -6.9379,-11.3646 -4.739,-10.3053 -6.9581,-21.01356 -8.1479,-32.23494 -0.6121,-5.77242 -0.5058,-11.59854 -0.7584,-17.39784 0.168,-13.45332 2.4423,-26.65236 6.0946,-39.55998 0.6074,-4.24176 2.8914,-7.93554 4.044,-11.9943 0.3324,-1.1709 0.4278,-2.39652 0.6417,-3.59478 -26.0541,-12.6558 -51.10574,-27.62664 -78.1622,-37.96746 -2.37696,-0.90846 -2.4345,4.4694 -3.68274,6.68682 -1.39266,2.47404 -2.7588,4.96488 -4.23972,7.38714 -3.4953,5.71692 -6.2745,9.84642 -10.56396,14.98902 -1.7385,2.08422 -3.66282,4.00608 -5.49426,6.00918 -1.6458,1.59822 -3.29154,3.19644 -4.93734,4.79472 -1.37052,1.26942 -2.7708,2.50752 -4.11156,3.80832 -1.15764,1.12314 -2.45568,2.14038 -3.3813,3.46122 -1.1646,1.662 -1.81602,3.63228 -2.82378,5.39376 -3.8136,6.66606 -4.79634,7.66812 -9.48234,14.24412 -2.30502,2.85366 -4.62288,5.697 -6.91512,8.56104 -2.85222,3.5637 -5.4048,7.38378 -8.51802,10.72182 -3.43248,3.6804 -7.27572,6.95988 -11.06316,10.27374 -3.9267,3.43572 -7.89108,6.84198 -12.0696,9.96648 -7.93908,5.93634 -15.13734,9.9567 -23.56824,14.98392 -3.43914,1.81896 -12.67992,6.61674 -16.47726,8.92122 -1.6803,1.01964 -3.48336,1.92654 -4.88016,3.3093 -1.52292,1.50756 -5.5476,7.61376 -1.7682,9.94908 24.91056,15.3921 51.30942,28.23402 76.9641,42.35106 2.56374,-0.108 5.12526,-0.3258 7.69128,-0.3246 5.42754,0.003 14.82414,0.60006 20.11632,1.07418 6.61638,0.5928 12.95616,1.30536 19.4448,2.74386 2.71914,0.60282 5.37252,1.47138 8.05878,2.20704 2.27088,0.94038 4.60902,1.73232 6.81252,2.82114 1.98792,0.98238 7.65876,4.47318 5.73108,3.37734 -20.97624,-11.92422 -41.85552,-24.01926 -62.87736,-35.8629 -1.88202,-1.06032 3.67446,2.2758 5.44878,3.50784 4.49364,3.12024 6.73206,5.10552 10.97118,8.58876 3.28422,3.13218 6.0711,5.32902 8.44674,9.19872 1.09902,1.79022 2.11386,4.16418 1.12638,6.29382 -0.3414,0.7362 -0.9744,1.40172 -1.71936,1.72368 -0.91176,0.3942 -1.97646,0.2004 -2.96466,0.3006 -24.82164,-7.77504 -32.80218,-10.5513 58.19286,32.24736 3.41392,1.60566 -5.80458,-4.93938 -7.99506,-8.0109 -4.91388,-6.89022 -7.4697,-15.1926 -8.24406,-23.53518 -0.3702,-3.9867 0.2292,-8.00436 0.3438,-12.00654 1.99446,-8.1225 2.06808,-11.53668 6.47664,-18.49284 2.97288,-4.6908 5.36436,-6.04926 9.50232,-9.28512 0,0 -68.43354,-40.7808 -68.43354,-40.7808 v 0 c -2.71746,5.64858 -4.26786,8.20536 -5.8134,14.62716 -1.6452,6.83616 -2.21886,15.66798 -2.87928,22.5396 -0.4278,13.2189 -1.09518,24.60282 2.21376,37.61226 0.7812,3.07152 0.4518,7.24158 3.09522,8.98992 67.91196,44.91738 47.1387,46.08858 82.12912,41.61222 1.9305,-1.21818 4.1706,-2.04726 5.7918,-3.65442 5.055,-5.01168 5.2762,-12.56622 2.2822,-18.66576 -1.3171,-2.6832 -6.8429,-8.91204 -8.7262,-11.13192 -3.8372,-3.55302 -5.944,-5.58912 -9.92434,-8.9421 -1.64106,-1.38234 -3.15552,-2.95944 -5.00358,-4.0497 -24.41226,-14.40252 -48.9702,-28.56282 -73.71258,-42.39048 -1.78614,-0.99822 -3.81564,-1.50102 -5.7894,-2.04042 -2.03064,-0.555 -4.12902,-0.82272 -6.19356,-1.23408 -2.31984,-0.2214 -4.6344,-0.5088 -6.95964,-0.66492 -5.71428,-0.3834 -11.45106,-0.3522 -17.1663,-0.7209 -10.88256,-0.70266 -21.73116,-2.00748 -32.01624,-5.86896 21.3477,12.86682 43.1964,24.93678 64.04304,38.60046 1.03332,0.67728 -2.3295,1.1922 -3.5562,1.0449 -3.33054,-0.4002 -2.05974,-4.3572 -1.4727,-5.98074 1.80636,-4.99614 5.31228,-8.95158 8.40354,-13.14762 2.62134,-2.89476 5.10144,-5.92392 7.86396,-8.68428 8.8365,-8.82942 12.87954,-11.6187 23.07498,-19.31676 4.2183,-3.18504 8.37726,-6.4572 12.74004,-9.44124 4.26318,-2.91594 8.85618,-5.32896 13.1187,-8.2458 3.2907,-2.25192 6.34578,-4.83012 9.5187,-7.24518 8.56554,-6.65562 6.96846,-5.36052 14.8206,-11.65038 1.79168,-1.43526 3.80728,-2.63298 5.36258,-4.32156 1.0866,-1.17954 1.6849,-2.7318 2.4384,-4.14744 0.5604,-1.05264 4.9658,-10.32138 5.2364,-10.88856 1.3401,-2.2845 2.5672,-4.63908 4.0201,-6.85344 3.4055,-5.19036 6.7968,-9.59298 11.4383,-13.76418 2.0304,-1.82466 4.1542,-3.606 6.5475,-4.91892 25.1094,-13.77444 97.9741,51.12312 -65.31658,-42.50208 1.75362,0.018 3.75684,-0.85308 5.2608,0.048 4.27776,2.5653 5.91576,11.30946 6.62526,14.98746 0.79938,4.14402 1.27728,8.34792 1.6857,12.54852 1.2762,13.12584 1.0533,18.57816 1.23618,32.02812 -0.054,2.94366 -0.5838,30.26856 -0.552,33.66984 0.042,4.7619 0.018,9.54132 0.5208,14.27676 0.4134,3.89226 -0.83274,9.08064 2.21976,11.53074 49.46798,39.70614 45.67788,37.59672 77.89788,48.9708 2.9195,-0.0738 5.8805,0.2754 8.7585,-0.2208 6.2419,-1.07628 11.973,-4.1364 17.1854,-7.5567 8.2113,-5.38806 15.0278,-12.43962 21.6586,-19.60134 1.9543,-2.23194 3.9336,-4.44228 5.8629,-6.69594 5.3966,-6.30396 4.918,-6.0984 10.2924,-12.13182 2.4095,-2.70492 6.0333,-6.7476 9.0099,-9.01662 1.1348,-0.86502 2.4611,-1.44486 3.6916,-2.16732 -25.2855,-14.90934 -50.5711,-29.81868 -75.8567,-44.72802 0.489,0.417 1.2192,0.65802 1.4664,1.25106 0.4428,1.06254 0.4842,2.26872 0.4806,3.41994 -0.01,1.76208 -0.2748,3.51534 -0.5082,5.26188 -0.8717,6.51648 -1.5695,9.02712 -3.0198,15.76854 -2.5156,9.60816 -3.2093,12.79224 -6.389,22.55184 -6.2823,19.28268 -14.487,37.89498 -23.9577,55.81704 -2.5595,4.4868 -5.0119,9.03648 -7.6786,13.46046 -5.2989,8.79102 -8.5778,13.67922 -14.8663,21.50184 -1.8786,2.33688 -3.8727,4.58124 -5.9093,6.7818 -1.5091,1.63074 -6.53402,3.41982 -4.7216,4.70514 24.083,17.07864 50.5667,30.49074 75.8501,45.73614 0.3528,-2.74548 0.4938,-4.85352 1.4829,-7.5432 1.4815,-4.0287 3.9576,-8.13948 6.1607,-11.75778 3.7365,-6.13662 4.0329,-6.33816 8.1256,-12.0795 1.3191,-1.54272 2.6047,-3.11478 3.9573,-4.62816 1.2675,-1.41816 5.4915,-3.12126 3.901,-4.16418 -24.7238,-16.21188 -51.4033,-29.22468 -77.1049,-43.83696 -0.1542,0.90948 -0.1704,1.85364 -0.4632,2.7285 -1.0105,3.0201 -2.3732,4.55514 -4.1912,7.19874 -2.7877,3.84972 -5.6606,7.6968 -9.0004,11.09862 -24.85892,25.32114 -56.86718,-23.33406 69.3888,51.2325 -0.5706,-0.3018 -1.414,-0.333 -1.7121,-0.90576 -1.0153,-1.95096 0.4158,-6.2709 0.93,-7.6458 2.6937,-7.20588 7.2101,-13.60824 11.1638,-20.13282 1.5429,-2.33286 7.1133,-10.42878 8.2093,-13.30182 0.8219,-2.15406 3.285,-5.50056 1.3672,-6.78012 -57.246,-38.19306 -50.8646,-52.26066 -84.4042,-39.26436 -3.027,1.1445 -12.8776,4.85766 -15.42224,5.87136 -14.37726,5.72718 -28.53204,12.04872 -42.41022,18.8928 -8.17386,4.27752 -12.68772,6.3558 -20.29848,11.41068 -9.91176,6.5832 -18.51882,14.79576 -26.40978,23.6523 -0.5214,0.5784 -6.75114,7.54602 -7.84974,8.58342 -0.79692,0.75252 -1.56864,2.38488 -2.5998,2.01336 -0.87858,-0.3168 -0.2316,-3.19974 0.5814,-2.7405 75.93402,42.88602 82.35528,75.32994 76.0704,44.99238 -0.06,-0.61188 -0.2484,-2.70384 -0.3324,-3.23748 -0.62112,-3.96438 -2.22192,-7.72098 -3.53742,-11.48202 -2.86728,-6.86598 -5.7837,-13.70964 -8.3607,-20.69286 -4.88652,-13.24158 -9.14178,-26.7204 -12.32262,-40.48092 -3.52878,-18.38088 -3.31752,-14.32608 -4.64766,-32.62104 -0.3366,-4.62732 -0.83142,-9.2619 -0.7173,-13.89996 0.0882,-3.59724 0.91332,-7.13868 1.32288,-10.71366 1.04862,-9.15222 -0.087,-4.16454 2.04918,-11.55582 -26.21688,-14.22846 -51.85398,-29.58144 -78.65058,-42.68544 -0.87408,-0.4272 -1.64364,6.6903 -1.67826,6.85248 -0.2664,1.25076 -2.05824,2.94672 -1.02306,3.69762 72.14922,52.3371 53.6469,70.2828 76.4616,45.40068 2.38836,-5.87364 4.848,-12.03156 9.1332,-16.84836 2.10492,-2.36598 4.54884,-4.4463 7.1388,-6.26856 28.24974,-19.8762 51.8408,21.92172 -65.87094,-46.92486 -0.2454,2.10924 -0.1092,4.29888 -0.7362,6.32778 -0.9489,3.07212 -2.3802,5.99274 -3.9381,8.80542 -4.12044,7.43952 -8.86992,13.44528 -14.59536,19.7199 -2.54916,2.79366 -5.46648,5.23368 -8.0445,8.00076 -2.40726,2.58384 -4.59978,5.35968 -6.8997,8.03946 24.98436,13.7331 49.0812,29.22162 74.95296,41.19924 1.80024,0.8334 0.89064,-3.90078 1.75272,-5.68752 1.48002,-3.06768 3.26586,-5.99526 5.22732,-8.77986 9.33738,-13.25568 21.2445,-24.3948 33.64374,-34.72032 7.2618,-5.4504 15.61752,-12.49116 24.1413,-16.27686 2.35006,-1.0437 9.59296,-0.2454 7.51186,-1.75554 -22.91902,-16.63398 -48.01402,-30.0423 -72.02098,-45.06342 0.83388,1.35654 2.20812,2.50452 2.50164,4.06962 0.4722,2.51802 -0.1986,5.11998 -0.2982,7.68 -1.72428,9.01452 -2.33442,13.43736 -5.16618,22.52214 -3.88368,12.45984 -9.59796,25.7481 -16.35654,36.94212 -1.67334,2.77146 -3.69006,5.3205 -5.53506,7.98072 -21.12786,30.59496 -10.30584,9.90804 72.5556,47.09088 1.56174,0.7008 -0.012,-3.43728 0.249,-5.12928 0.4152,-2.70948 1.06848,-5.38068 1.76862,-8.03082 2.7102,-10.25856 4.2207,-13.60002 8.01696,-24.0591 4.57164,-10.79358 8.34544,-20.48406 14.09794,-30.77274 2.8091,-5.02428 6.0609,-9.78966 9.2289,-14.59572 2.6664,-4.04532 5.0374,-8.34426 8.2705,-11.95284 2.6133,-2.9166 12.1956,-5.03652 9.0981,-7.43268 -22.3524,-17.292 -48.96458,-28.23198 -73.44686,-42.34794 2.59746,0.3666 6.00462,-0.81948 7.79244,1.10016 3.3507,3.5979 3.6807,22.35852 3.6438,24.90462 -0.282,19.4433 -4.43868,38.45568 -11.18544,56.64204 -5.151,10.44426 -10.17294,22.37484 -17.73402,31.52424 -2.91804,3.53112 -13.49988,6.19002 -10.12698,9.28962 21.1704,19.45518 47.98062,31.69578 71.97096,47.5437 -0.082,-1.7841 -0.7273,-3.63246 -0.2454,-5.35224 0.7982,-2.84964 2.6461,-5.29422 3.9692,-7.9413 2.1344,-3.38214 4.1468,-6.84444 6.4033,-10.14642 6.2982,-9.21606 11.0653,-15.20922 18.7198,-23.48376 3.4328,-3.71088 7.5209,-6.81924 10.6866,-10.76034 2.3163,-2.88366 8.3597,-7.05774 5.6349,-9.55884 -20.5289,-18.84354 -45.6027,-32.0382 -68.404,-48.0573 -1.75938,-0.231 -3.51006,-0.5418 -5.27808,-0.69306 -2.55888,-0.219 -5.13114,-0.2406 -7.69326,-0.4158 -7.26906,-0.4974 -13.43448,-0.87876 -20.59722,-2.66766 -31.01496,-7.746 -61.64232,-42.38124 57.82796,48.10398 -0.8255,-0.1824 -1.8051,-0.036 -2.4766,-0.5472 -0.4248,-0.3252 1.0757,-0.228 1.6003,-0.123 1.5518,0.3102 3.0621,0.81534 4.5509,1.35198 8.9113,3.21252 17.2946,7.71048 26.0992,11.18172 3.596,0.4764 7.2537,2.24466 10.788,1.4283 4.9734,-1.14876 3.7476,-8.89536 3.935,-11.59284 0.1974,-2.83902 0.2964,-5.70108 0.8224,-8.49786 1.614,-8.5782 2.425,-8.81454 6.3524,-16.19706 26.9874,-19.85082 5.8056,-2.2152 -68.65738,-45.09012 -1.99344,-1.1478 4.61442,1.51632 6.05562,3.30918 2.17374,2.70414 3.30996,6.16254 4.24422,9.50394 2.95124,10.5555 2.27894,18.64614 2.43054,29.59224 -0.7712,5.45904 -1.21488,10.97448 -2.31378,16.37712 -2.20284,10.83 -4.57302,16.41138 -8.451,26.36196 -1.13838,2.92104 -6.00894,6.8448 -3.50286,8.7285 70.36224,52.88712 57.28064,67.28106 77.58224,40.74552 9.7027,-16.83624 19.9354,-33.38346 28.7718,-50.70642 3.5427,-6.82854 7.0283,-13.73028 11.0718,-20.28426 0.492,-0.79752 6.4314,-9.33894 5.8278,-9.70644 -25.2744,-15.38748 -52.6552,-27.01314 -78.9828,-40.51968 -0.2154,0.83514 -0.3486,1.69596 -0.6465,2.50542 -0.9806,2.66628 -2.4234,5.00682 -4.0267,7.3494 -3.6783,5.37474 -8.0546,10.20918 -12.5405,14.91174 -7.0458,7.19358 -14.13878,14.3367 -21.2129,21.50178 -0.81042,0.80334 -1.60716,1.62078 -2.43126,2.41002 -0.7884,0.75504 -1.65252,1.43184 -2.40552,2.22216 -0.62862,0.65964 -1.15764,1.40754 -1.72932,2.11716 -1.91268,2.37444 -3.7302,4.81944 -5.59632,7.23024 -2.52216,3.2613 -5.03586,6.51768 -7.89516,9.498 -3.22398,3.36048 -3.87468,3.7647 -7.44546,6.79908 -1.20918,1.02756 -2.42004,2.0532 -3.63006,3.0798 -1.17096,0.88614 -2.36592,1.74144 -3.513,2.6583 -2.00178,1.60002 -3.89136,3.33582 -5.85924,4.97736 -1.91238,1.59522 -3.88698,3.11496 -5.79552,4.71474 -0.9258,0.77598 -1.82214,1.58646 -2.73318,2.37966 -7.40628,6.19614 -15.009,12.25386 -23.41188,17.05806 -4.51722,2.43474 -9.0345,4.66248 -13.72536,6.73986 -3.7692,1.66932 -7.5339,3.37578 -11.57166,4.31484 -3.55884,0.70752 -7.38096,1.60392 -10.97424,0.3906 -1.01148,-0.3414 -3.7182,-2.09982 -2.79858,-1.55754 71.31582,42.05346 97.55274,47.5353 68.18694,41.08254 -0.7305,-0.4518 -1.59018,-0.74178 -2.1915,-1.35498 -3.79182,-3.86664 -1.54812,-12.56916 -0.1092,-16.98462 1.28094,-3.5331 1.24566,-3.89598 3.09546,-7.17102 2.86668,-5.0754 0.94704,-1.20714 3.94806,-5.75082 0.93474,-1.41528 1.49556,-3.05646 2.51796,-4.42176 2.3568,-4.55748 4.6878,-9.12666 7.00554,-13.70322 2.4813,-4.73424 4.78998,-9.56178 7.59408,-14.12004 2.7252,-4.69758 5.49132,-9.3882 8.60382,-13.84104 2.86368,-4.0314 5.77284,-8.02692 8.85126,-11.89368 1.18608,-1.6959 2.38386,-3.40914 3.69936,-5.00886 0.4416,-0.537 0.94974,-1.01778 1.38156,-1.5627 0.3894,-0.4914 0.71886,-1.02756 1.07826,-1.54134 0.3972,-0.4944 0.79392,-0.98868 1.19088,-1.48302 2.50074,-3.43482 5.04958,-6.83286 7.55098,-10.26522 3.1633,-4.00866 5.619,-8.54028 8.803,-12.54516 1.6932,-2.3025 3.4425,-4.57062 5.0316,-6.94746 2.3606,-3.53058 0.7481,-1.23984 2.9078,-4.68816 0.4992,-0.79752 1.031,-1.57464 1.5465,-2.36196 0.513,-0.78054 1.026,-1.56102 1.539,-2.34156 0.5184,-0.69252 1.0714,-1.3605 1.5553,-2.0775 1.6752,-2.48214 3.0327,-5.19096 4.6798,-7.69242 1.8742,-3.12882 3.4664,-6.40968 4.822,-9.79656 1.2364,-2.96316 2.415,-5.92866 3.2394,-9.03774 0.5016,-1.8657 1.0774,-3.71196 1.523,-5.59242 0.9766,-4.12086 -0.036,-0.1482 0.8786,-4.34148 0.177,-0.8109 0.3942,-1.61238 0.591,-2.41854 0.159,-0.7713 0.8763,-4.27986 1.057,-5.04186 0.213,-0.89742 0.5274,-1.77132 0.6958,-2.6781 0.1614,-0.86802 0.1788,-1.75698 0.2916,-2.63268 0.8968,-6.94668 -0.018,1.18104 0.756,-5.99616 0.6048,-7.56246 0.3492,-15.1545 0.835,-22.72488 0.2022,-3.55074 0.3462,-6.9792 0.7677,-10.51788 0.932,-7.82166 3.2189,-15.38784 5.0355,-23.03208 1.5049,-4.9278 3.0792,-9.7812 4.8905,-14.6049 0.8995,-2.39586 1.4163,-3.94158 2.5138,-6.17616 0.2814,-0.573 0.6275,-1.1121 0.9413,-1.66812 z" /><path
       style="fill:#0a3161;fill-opacity:1;stroke-width:6"
       id="path99"
       d="m 987.24462,1081.201 c 0.4116,3.1251 0.2298,6.3771 -0.4458,9.4596 -0.288,1.3138 -0.88104,2.6971 -1.36962,3.9468 0,0 76.5577,41.4388 76.5577,41.4388 v 0 c 0.5898,-4.225 1.0947,-8.9247 3.9097,-12.3118 z" /><path
       style="fill:#0a3161;fill-opacity:1;stroke-width:6"
       id="path100"
       d="m 921.34836,1285.643 c -0.94542,3.8157 -3.20772,7.2456 -5.12448,10.6339 -3.51138,6.2069 -1.47252,3.0847 -5.71956,8.8271 -2.48154,3.3076 -5.69394,5.99 -8.247,9.2331 -1.836,2.3322 -3.2109,4.9319 -4.5144,7.5795 -1.5513,3.948 -3.83628,7.5402 -5.46174,11.4481 -0.2034,0.4602 -0.3732,0.9364 -0.61002,1.3803 -0.453,0.8496 -0.76392,1.0363 -1.46742,1.7197 26.22522,14.1883 52.0854,29.0734 78.67572,42.5652 0.75078,0.381 0.1026,-1.6854 0.264,-2.5117 0.1896,-0.9724 0.5238,-1.911 0.78522,-2.8664 2.6409,-6.5649 6.45804,-12.5243 10.78956,-18.0837 1.52868,-1.9569 3.2916,-3.7281 4.58346,-5.8639 0.4086,-0.6759 1.23006,-2.3226 1.57368,-2.9975 1.0956,-2.7867 2.88096,-5.2136 4.33038,-7.811 0.93378,-1.6732 1.76082,-3.4039 2.64288,-5.1051 3.61026,-6.8353 7.83386,-13.3093 11.98006,-19.8257 3.5225,-5.266 7.1334,-10.4822 11.0739,-15.4472 8.2305,-10.3701 -2.1735,3.0847 5.9645,-7.5071 6.706,-8.4396 12.059,-17.8493 17.0629,-27.3658 6.1499,-11.4945 12.0253,-23.1246 17.4802,-34.9641 0.8068,-1.9535 1.6262,-3.9019 2.4204,-5.8606 1.4789,-3.6476 2.9538,-7.345 4.2305,-11.0707 1.7866,-5.214 3.2079,-10.5246 4.5812,-15.8579 1.4089,-5.306 2.7077,-10.651 4.278,-15.9132 1.006,-3.3713 1.6816,-5.7304 3.3732,-8.7589 0.498,-0.8919 1.1706,-1.6746 1.7559,-2.5119 29.0098,-14.0244 8.4737,-3.2608 -76.2913,-41.9812 -1.3613,-0.6218 -0.3306,2.9815 -0.6625,4.4409 -1.51396,6.6544 -4.48012,11.9388 -7.6969,17.8767 -8.0118,12.7019 -17.71836,24.2297 -27.3825,35.6885 -4.33992,5.0405 -8.35692,10.3499 -12.61032,15.4607 -3.99138,4.7958 -8.17728,9.4398 -12.35424,14.0731 -3.68262,4.0891 -7.3161,8.219 -11.02398,12.2853 -1.10202,1.2085 -2.27514,2.3558 -3.30642,3.6251 -1.07586,1.3243 -1.97232,2.7855 -3.00522,4.1436 -1.03368,1.359 -2.12856,2.6703 -3.19284,4.0055 -2.93556,3.8588 -6.10308,7.5346 -9.0927,11.3501 -0.92592,1.1817 -1.9197,2.3192 -2.72244,3.5879 -0.9234,1.4593 -1.60332,3.0595 -2.4396,4.5704 -0.91122,1.6464 -1.86822,3.2671 -2.80236,4.9006 -3.07218,5.2205 -5.75112,10.7017 -9.26928,15.6527 -0.63042,0.8871 -4.74174,6.177 -6.13164,6.9232 -0.76584,0.411 -1.7379,0.042 -2.60682,0.067 25.55304,13.6428 50.20464,29.1283 76.65918,40.9283 2.38704,1.0647 -1.61706,-5.0042 -1.9365,-7.5984 -0.5262,-4.272 -0.65442,-8.5956 -0.588,-12.8994 0.2058,-13.3208 1.5294,-24.806 4.6401,-37.8783 1.69296,-7.1143 4.17354,-14.0179 6.26028,-21.0269 7.41852,-16.8607 8.24748,-21.2596 18.76026,-35.8991 3.05022,-4.2475 6.27906,-8.4458 10.1493,-11.9624 2.76664,-2.5137 5.83904,-5.3057 9.52694,-5.9157 2.5412,-0.4206 9.348,4.3273 7.0446,3.1749 -24.0392,-12.0275 -48.17126,-23.8684 -72.25688,-35.8026 0.1224,5.8035 1.17624,11.6625 0.3666,17.4106 -2.49306,17.7052 -9.7728,34.8138 -18.72696,50.0982 -8.66892,14.7977 -22.27884,32.0822 -35.2206,43.6151 -5.2476,4.6764 -11.47182,8.1253 -17.20776,12.1879 -33.51576,5.5474 -52.16508,5.7935 55.6995,38.0483 5.10798,1.5274 -3.0414,-10.4289 -2.76714,-15.7533 0.5214,-10.1199 1.84914,-20.3752 5.12214,-29.9654 8.57094,-25.1137 20.41692,-37.0284 36.20754,-57.4917 6.93648,-6.8745 12.67248,-15.2232 20.8095,-20.6235 22.88326,-15.1869 105.92036,4.6272 -44.63418,-50.1277 -6.41568,-2.3333 -0.336,13.7439 -1.87866,20.3941 -4.73598,20.4168 -9.66018,23.5499 -21.88176,40.5224 -8.41212,7.5234 -19.12842,20.4117 -32.20788,21.2962 -3.80784,0.2574 -13.8777,-6.3574 -10.449,-4.6812 23.36988,11.4256 44.78994,28.7268 70.27734,33.9312 6.38664,1.3042 -0.9084,-13.1192 0.1272,-19.5547 1.3098,-8.1375 4.56294,-15.8402 6.84444,-23.7603 3.98004,-7.695 7.19208,-15.8386 11.94018,-23.0849 5.59632,-8.5409 17.41086,-23.3559 29.0463,-26.1632 3.56028,-0.859 13.93788,4.244 10.68428,2.5624 -77.46794,-40.0389 -72.2294,-59.7701 -71.28092,-15.1082 -5.71776,20.6522 -4.93998,23.795 -16.50306,42.0386 -3.36282,5.3056 -7.11606,10.4656 -11.65374,14.8093 -3.0357,2.9059 -6.70692,5.4051 -10.73046,6.6179 -2.77836,0.8374 -11.33316,-1.9256 -8.67144,-0.7698 25.38048,11.0202 51.4626,20.3483 77.1939,30.5225 1.05192,-6.3182 1.39998,-12.7948 3.15582,-18.9546 4.05684,-14.2327 11.83104,-30.6392 21.2085,-42.1672 4.35846,-5.3579 8.67336,-11.9005 15.2414,-14.0369 5.0657,-1.6477 20.2075,6.4651 15.459,4.0509 -20.6903,-10.5188 -42.35696,-18.9952 -63.53546,-28.4927 1.77822,8.0613 5.1324,15.9313 5.33472,24.184 0.3648,14.8902 -5.04486,31.9223 -13.2693,44.3592 -2.58504,3.9092 -5.85588,7.6835 -9.98748,9.8955 -2.52462,1.3517 -11.16666,-1.2 -8.59086,0.054 24.68424,11.993 50.42304,21.6813 75.63458,32.522 0.5364,-5.9574 0.3714,-12.0202 1.6094,-17.8723 3.0265,-14.309 8.555,-26.8289 16.7488,-38.9071 3.9112,-5.7654 13.9729,-19.9095 23.8986,-19.2929 3.3668,0.2094 5.1206,4.3924 7.6808,6.5887 -21.1302,-9.7587 -40.2146,-27.1333 -63.39058,-29.2761 -8.2362,-0.7616 5.22198,15.7989 6.31008,23.9983 3.4315,25.8594 -0.9864,57.0788 -10.15866,81.4856 -2.0217,5.3796 -5.2047,10.248 -7.80708,15.372 -2.21064,2.0148 -9.0831,4.3301 -6.63198,6.0443 22.40364,15.668 45.78052,31.309 71.84402,39.5617 5.1422,1.6282 1.7146,-10.6519 2.7251,-15.9501 3.1821,-16.6841 4.1978,-23.3069 11.151,-39.2191 2.6638,-6.0959 6.1944,-11.7752 9.2916,-17.6627 3.471,-4.5491 11.166,-18.9532 20.4916,-17.8358 2.9801,0.357 8.7842,7.873 6.0253,6.6911 -22.4159,-9.603 -41.89,-26.8412 -65.6704,-32.2431 -6.2154,-1.4119 4.1037,12.1468 4.9884,18.4588 1.0097,7.2032 0.4374,14.5405 0.6561,21.8108 -0.8986,5.4558 -2.5222,27.8289 -9.8479,32.9973 -2.6733,1.8861 -6.4688,-0.9849 -9.7032,-1.4774 24.3516,10.7406 47.1136,26.2708 73.0549,32.2217 5.45,1.2503 -3.1963,-10.7786 -3.8086,-16.3366 -0.6981,-6.3362 -0.065,-12.7488 -0.098,-19.1233 0.9849,-6.2089 1.582,-12.492 2.9548,-18.627 2.0532,-9.1759 5.852,-19.974 10.2168,-28.4548 2.3588,-4.5831 5.9123,-9.8496 9.8273,-13.4494 0.9953,-0.9152 2.2541,-1.4939 3.3812,-2.2408 0.7211,0.024 2.1734,-0.6483 2.1632,0.073 -0.03,2.1213 -0.369,6.9388 -2.2485,5.9543 -26.0108,-13.6254 -49.6614,-31.3595 -74.8998,-46.3675 -0.6899,-0.4104 0.6456,1.4894 0.765,2.2832 0.3498,2.3262 -0.061,5.4593 -0.2436,7.7142 -1.4412,10.3282 -5.5045,19.9412 -9.8268,29.3388 -0.7004,1.527 -1.3872,3.0605 -2.1012,4.5812 -1.7515,3.7305 -2.4468,4.9536 -4.1253,8.7147 -2.0305,4.5498 -3.8464,9.1972 -5.8026,13.7794 -4.0185,9.0329 -8.205,17.985 -12.0203,27.107 -3.19926,7.9833 -6.4365,15.9445 -10.30704,23.6295 -2.6283,4.9626 -5.08854,10.0159 -7.32948,15.1648 -0.84594,2.3787 -2.4042,4.4431 -3.3291,6.782 -0.3288,0.8314 -0.531,1.7077 -0.82368,2.5524 -0.4368,1.7107 -0.7023,3.4597 -1.08144,5.1823 -0.069,0.3126 -0.4656,2.2846 -0.92244,2.6039 -0.3102,0.2166 -0.7542,0.06 -1.1313,0.089 125.81678,67.5342 77.12408,68.305 78.68568,33.6811 0.225,-4.9831 1.2007,-9.2628 2.4891,-14.0412 0.414,-1.2144 0.8074,-2.4359 1.2422,-3.643 1.5146,-4.2054 0.7763,-1.6154 1.9725,-5.6145 0.567,-1.8953 0.9947,-3.7715 1.7643,-5.5952 29.7207,-8.6231 5.2542,-1.2126 -78.44036,-40.0033 -0.92412,-0.4284 0.5298,1.9747 0.64626,2.9866 0.4596,3.9975 -0.1518,7.0686 -1.09734,10.8953 -0.591,1.3078 -1.04904,2.9772 -2.33118,3.875 -0.4116,0.2886 -0.95334,0.3198 -1.43004,0.48 26.45746,13.5334 52.51586,27.877 79.37236,40.6002 1.0021,0.4746 -0.462,-2.1729 -0.5856,-3.2749 -0.1686,-1.5067 -0.1932,-3.0261 -0.2898,-4.5391 -0.5376,-3.2527 0.9411,-6.4667 0.6971,-9.6988 -0.1266,-1.6738 0.2616,-4.0433 -1.1851,-4.8941 -25.0696,-14.7417 -50.5636,-28.8998 -76.97834,-41.0682 -2.32314,-1.0703 -4.8561,1.6302 -7.34418,2.2231 -2.97138,0.7082 -6.0063,1.1162 -9.00948,1.6742 -6.12054,0.5826 -12.21582,1.4845 -18.39006,0.858 -2.43696,-0.2472 -4.93896,-0.5814 -7.17756,-1.5756 -1.79748,-0.7985 -6.34482,-4.6173 -4.6233,-3.6662 68.04902,37.599 84.77522,60.185 67.24222,37.0881 0,-1.9948 -0.3864,-4.4161 1.1753,-6.1107 2.9644,-3.217 3.554,6.083 0.9669,4.7569 -72.4392,-37.129 -84.62046,-70.463 -72.47988,-39.5879 0.1524,2.3026 0.61056,4.6052 0.4578,6.9078 -0.1908,2.8791 -0.83478,5.7165 -1.4811,8.5287 -0.79626,3.4648 -1.60194,6.9478 -2.84142,10.2799 -2.56152,6.8861 -6.43854,13.384 -10.5306,19.4423 -1.88334,2.7883 -3.99348,5.4164 -5.99016,8.1246 -4.7289,5.9699 -9.91206,11.6155 -15.48588,16.8104 -1.56432,1.4579 -4.98678,4.5163 -7.14804,5.5297 -0.76938,0.3606 -1.66284,0.351 -2.4942,0.5262 -3.39012,-31.4246 -0.87294,0.048 73.39572,38.4997 1.45788,0.7548 -1.5459,-2.9338 -1.93662,-4.5284 -0.85836,-3.5031 -0.61032,-7.3803 -0.002,-10.8867 0.2538,-1.4636 0.74598,-2.8759 1.11894,-4.3138 0.5766,-1.9505 1.87578,-5.7556 1.76148,-7.8282 -0.1512,-2.7444 -0.89898,-5.4234 -1.32462,-8.1388 -0.5646,-3.602 -1.0689,-7.2133 -1.64616,-10.8133 -1.49208,-9.305 -3.0762,-18.5952 -4.57974,-27.8984 -3.28926,-16.8214 -3.34362,-14.9418 -4.99374,-31.484 -1.0032,-10.0577 -1.3689,-15.6181 -1.22424,-25.4616 0.0882,-5.9933 0.5466,-10.5279 1.03008,-16.384 0.786,-5.0088 0.543,-10.0851 0.85572,-15.123 0.0816,-1.3152 0.456,-5.4785 0.98856,-6.9044 0.2184,-0.585 0.73878,-1.0062 1.10814,-1.5093 30.58272,2.5015 18.2784,1.7002 -77.22336,-38.8172 -1.77192,-0.7518 0.6174,3.8179 0.60456,5.7426 -0.036,5.2271 -1.05792,10.172 -2.72382,15.114 -0.825,2.4475 -1.99704,4.7639 -2.99562,7.1459 -1.1259,1.8978 -2.10942,3.8876 -3.37776,5.6933 -1.03374,1.4717 -3.6735,4.9742 -6.08832,5.2623 -0.67362,0.08 -2.40144,-1.2633 -1.80462,-0.9408 79.00428,42.6849 77.39394,71.5913 78.00492,38.4374 0.3366,-1.4695 0.531,-2.9788 1.00932,-4.4085 0.4938,-1.4765 2.49444,-5.7152 3.7962,-6.9227 0.5898,-0.5466 2.92794,-0.5142 2.2314,-0.916 -77.1036,-44.4626 -68.67732,-70.0757 -77.62326,-39.3716 -0.4872,0.7647 -0.62142,1.9548 -1.46238,2.2938 -0.567,0.2286 -1.9902,-1.4116 -1.45398,-1.118 25.57932,14.0073 50.37234,29.5212 76.602,42.2692 1.70616,0.8292 -1.09416,-3.6841 -1.11396,-5.581 -0.0858,-8.2086 2.08518,-13.3559 4.32888,-21.3889 5.13276,-10.9008 8.54214,-19.4645 16.09038,-29.2896 10.866,-14.1435 27.8667,-27.7761 43.78108,-35.8685 4.1719,-2.1213 8.7031,-3.4464 13.0546,-5.1697 3.4279,-0.2562 7.0832,-2.023 10.2838,-0.769 2.5206,0.9876 7.1094,7.8383 4.685,6.634 -23.0412,-11.4457 -44.14112,-26.5871 -67.32134,-37.7485 -1.85418,-0.8928 1.27536,3.9574 1.40826,6.011 0.3042,4.7049 -0.78384,6.2516 -2.40756,10.2681 -0.7401,0.7145 -1.22022,1.9028 -2.22042,2.1433 -0.69204,0.1662 -2.40948,-1.5109 -1.77846,-1.1816 25.96062,13.5453 51.39542,28.1305 77.77752,40.8351 1.2149,0.585 -0.9286,-2.5589 -1.077,-3.8991 -0.4446,-4.0173 0.3444,-6.0544 1.1993,-9.9396 0.6957,-1.0273 1.0429,-2.4119 2.0872,-3.0819 0.618,-0.3966 1.4503,0.231 2.1755,0.3462 -25.2251,-12.7328 -49.47554,-27.615 -75.67526,-38.1981 -2.71734,-1.0976 1.84992,5.6039 2.18988,8.5147 1.03572,8.8665 -0.339,13.6438 -1.70298,22.4128 -1.06806,3.4433 -2.13606,6.8866 -3.20406,10.3298 0,0 62.87182,34.1715 62.87182,34.1715 v 0 c 0.8542,-3.6094 1.7083,-7.2187 2.5624,-10.8282 2.6373,-7.3857 4.1806,-12.9329 8.1736,-19.6539 1.3027,-2.1927 6.6735,-4.6219 4.6034,-6.1116 -170.35652,-122.591 -73.6823,-71.0874 -75.20492,-41.5008 -0.078,1.5137 -0.411,3.0032 -0.61692,4.5048 -1.45884,4.1675 -1.69368,5.58 -4.00608,9.326 -0.68808,1.1147 -3.48012,2.4375 -2.37078,3.1342 25.17564,15.8121 51.6909,29.3835 77.5364,44.0753 -0.3108,-0.905 -0.743,-1.7771 -0.933,-2.7149 -0.2838,-1.4017 -0.3204,-2.8423 -0.4806,-4.2634 0.2634,-5.8826 0.1662,-6.7365 1.0503,-12.8388 0.351,-2.4249 3.1749,-5.7071 1.2642,-7.2408 -22.2408,-17.8541 -46.2821,-33.429 -70.56368,-48.39 -1.27848,-0.7877 -2.58006,1.5985 -3.61956,2.6823 -1.76472,1.8398 -3.14856,4.0104 -4.7229,6.0156 -2.48676,3.0878 -4.87734,6.2556 -7.46028,9.2635 -8.87682,10.3375 -14.23506,15.7809 -24.54006,25.2747 -5.1345,4.7303 -10.47966,9.2267 -15.71952,13.8401 -5.31192,4.288 -10.87308,8.2845 -15.93576,12.8641 -3.9492,3.5724 -7.36344,7.6949 -11.04516,11.5424 -4.6386,4.9115 -10.59804,11.4296 -15.70278,16.171 -1.59342,1.48 -6.76326,2.9544 -4.98606,4.2077 24.17244,17.0473 50.64762,30.5693 75.97146,45.854 0.081,-0.8485 -0.06,-1.7482 0.243,-2.5453 0.3372,-0.8902 1.0755,-1.571 1.61328,-2.3565 24.07008,-20.9706 4.42566,-2.6565 -72.70314,-47.0167 -0.73608,-0.4236 0.72054,1.6188 0.64428,2.4645 -0.1164,1.2916 -0.72594,2.4937 -1.20012,3.7008 -1.6449,4.187 -1.76166,3.913 -4.28112,7.5671 -24.02934,23.1144 -4.2486,2.4438 73.96662,47.9511 0.62652,0.3642 -1.1616,-0.9679 -1.42392,-1.6436 -0.4278,-1.1029 -0.5946,-2.3196 -0.5736,-3.5024 0.0708,-3.9255 1.5237,-8.4227 2.48022,-12.1018 0.92898,-2.4585 1.71696,-4.9751 2.78694,-7.3757 1.8129,-4.0673 4.7742,-9.4111 7.56438,-12.9903 1.06236,-1.3627 5.04984,-2.809 3.59232,-3.7371 -48.5496,-30.9106 -105.44682,-55.4125 -75.9633,-42.6811 0.2532,0.9642 0.5988,1.9087 0.7605,2.8924 0.1356,0.8256 0.69546,8.1585 0.7425,8.6117 0.456,4.3903 0.78708,6.7452 1.89366,11.1178 0.60042,2.3726 1.35324,4.704 2.02986,7.056 3.2757,10.8701 6.63174,21.7285 8.96046,32.8545 1.0158,4.853 1.8348,9.7461 2.6307,14.6399 2.8557,17.5594 2.1423,12.5907 2.74956,29.9758 -0.1818,10.917 0.3108,13.4898 -1.7595,23.8076 -3.13176,15.6063 -0.83778,1.8022 -4.93734,13.7268 -0.73842,2.1477 -0.73482,6.3354 -0.82164,8.5036 -0.2172,5.558 -0.4422,10.9276 -1.95492,16.325 -0.4554,1.6242 -3.03996,3.804 -1.66362,4.7791 73.4256,52.0194 58.38042,71.3969 77.36892,44.0537 0.87216,-2.1288 1.73304,-4.2813 2.6937,-6.3709 1.5981,-3.4762 3.33708,-6.8864 4.94274,-10.3592 1.05678,-2.2856 2.02704,-4.611 3.11418,-6.8823 1.30026,-2.7165 2.69784,-5.3853 4.04676,-8.078 4.99734,-9.7956 10.08606,-19.5186 16.0884,-28.7519 1.99464,-3.0683 4.25538,-5.9573 6.26736,-9.0142 17.49528,-26.5816 -6.64518,8.9558 8.78988,-13.6303 16.1571,-30.3304 6.4415,-8.5278 -72.4128,-52.5643 -1.6143,-0.9015 -2.15514,3.0375 -2.89236,4.7331 -0.486,1.118 -0.4374,2.4001 -0.72438,3.5851 -0.76704,3.1692 -1.85052,6.2564 -2.57262,9.4375 -3.63588,34.3037 -2.57496,7.3319 72.71946,51.1193 1.1557,0.672 2.6793,-0.048 4.0046,-0.222 7.1731,-0.9503 14.0973,-3.4652 21.393,-3.6768 3.4203,-0.094 6.8446,-0.4734 10.2609,-0.2832 3.3325,0.186 12.6555,3.3112 9.9137,1.4077 -20.7299,-14.392 -43.3592,-25.8486 -64.64464,-39.4053 -1.06332,-0.6772 2.70162,-0.1152 3.7326,0.6104 2.86452,2.0161 1.05588,4.9674 0.4188,7.2952 -0.5592,1.0739 -1.01028,2.2112 -1.6773,3.2216 -0.4476,0.678 -2.34348,1.3977 -1.63956,1.8031 25.9058,14.9219 52.6469,28.3448 78.8783,42.6866 0.4212,0.2304 -1.1133,0.054 -1.4031,-0.3276 -0.7419,-0.98 -0.4656,-4.5008 -0.4572,-5.2784 0.6141,-3.5318 1.1352,-7.1651 2.8597,-10.3746 0.3996,-0.7434 2.2074,-1.6429 1.4731,-2.059 -73.83304,-41.8393 -109.30816,-44.3315 -78.05314,-41.9807 1.02984,5.3851 0.4326,10.9845 0.2064,16.4148 -0.6987,4.6932 -1.41906,8.8952 -3.43134,13.2577 -14.811,32.1092 -79.1328,-34.3528 75.01798,48.6305 -0.3534,-0.1038 -0.9051,0.024 -1.06,-0.312 -0.2202,-0.4758 0.097,-1.0452 0.1926,-1.5606 0.3714,-2.0091 1.0428,-3.9519 1.6556,-5.8946 0.1794,-0.5922 0.6641,-2.1176 0.7812,-2.768 0.079,-0.4398 0.074,-0.8908 0.1368,-1.3331 0.2748,-1.9375 0.7792,-3.8331 1.4633,-5.666 1.7854,-5.3542 3.4126,-10.7611 5.2115,-16.1114 2.7222,-8.2487 5.4242,-16.5055 8.6336,-24.5833 3.6532,-9.1212 7.4064,-18.2115 11.4955,-27.146 4.1154,-9.0209 8.3225,-18.0033 11.8698,-27.2701 3.9337,-9.877 7.7184,-19.8155 11.9608,-29.5669 0.7406,-1.6157 2.381,-5.2868 3.3026,-6.9799 0.4758,-0.8738 2.3653,-1.9767 1.5518,-2.5492 -17.297,-12.1736 -70.0297,-72.654 -77.8831,-43.3507 -0.261,0.9738 0.4662,1.9617 0.6992,2.9426 0.8842,5.178 1.3961,7.5214 1.7328,13.2394 0.8641,14.6729 -0.1386,29.6184 -2.8959,44.0558 -1.1588,6.0675 -2.9202,12.0043 -4.3803,18.0065 -2.1174,5.303 -3.6649,10.8706 -6.3522,15.9088 -2.0808,3.9015 -11.1851,7.8086 -7.84,10.7002 21.3534,18.459 47.9476,29.7966 71.9214,44.6948 -2.6664,-2.8521 -6.6647,-4.8871 -7.9992,-8.5563 -4.0089,-11.0216 0.2154,-26.9918 1.9073,-37.4676 1.9838,-6.2846 3.5793,-12.7052 5.9513,-18.8538 1.892,-4.9041 10.4438,-10.4257 6.8096,-14.2233 -20.8646,-21.8027 -64.3535,-79.925 -70.4549,-44.5316 -0.6478,3.7575 -0.4482,7.6426 -1.2506,11.3702 -1.1884,5.5205 -3.1336,10.8505 -4.7003,16.2757 -6.5439,15.3155 -8.4938,22.6076 -19.0006,35.9691 -3.79222,4.8227 -7.93624,9.5442 -12.95356,13.0747 -3.17286,2.2325 -13.94892,1.2562 -11.0064,3.7846 91.40586,78.5433 73.21916,55.4281 55.18226,29.2537 -1.0977,-6.972 -3.1185,-13.8603 -3.2932,-20.9159 -0.3972,-16.0321 3.7489,-38.6451 8.1931,-53.7841 2.452,-8.3529 5.6136,-16.5089 9.1914,-24.4449 2.7531,-6.107 14.0362,-12.4237 9.7509,-17.5725 -17.9212,-21.5321 -44.5409,-33.99 -66.81128,-50.9849 -3.65412,9.6211 -1.71276,3.7579 -5.04528,17.8286 -1.98456,5.7581 -4.35546,11.3989 -7.10376,16.8341 -6.76794,13.3849 -13.55154,24.0926 -24.62274,34.4041 -4.20426,3.9158 -9.36492,6.6584 -14.04738,9.9876 22.3983,15.0168 44.7174,30.1525 67.19484,45.0506 3.0249,2.0049 -7.26762,-3.092 -8.83092,-6.367 -2.3691,-4.9632 -2.30526,-10.8818 -2.0244,-16.3742 0.78084,-15.2678 6.08772,-31.5339 14.09872,-44.4774 3.9286,-6.3474 9.6101,-11.4255 14.4152,-17.1384 -22.431,-15.5324 -43.34646,-33.5214 -67.29282,-46.5972 -2.97654,-1.6253 1.58142,6.9245 0.561,10.1587 -2.02458,6.4166 -5.79696,12.1808 -9.40218,17.8617 -7.81626,12.3165 -19.76844,27.0938 -30.7599,36.7954 -4.87266,4.3008 -10.59558,7.5295 -15.89334,11.2943 22.25826,15.3613 45.12078,29.8818 66.77466,46.0839 2.52864,1.892 -7.35738,-0.1956 -9.02742,-2.8756 -2.31384,-3.7137 -1.58742,-8.7693 -0.92268,-13.094 0.96492,-6.2779 3.1944,-12.3493 5.72862,-18.1735 8.24334,-18.9448 12.23418,-21.5565 25.21578,-37.3391 35.80808,-27.2509 24.87918,-11.3897 -52.29924,-58.9485 -2.6253,-1.6177 3.72648,5.3241 3.86586,8.4047 0.24,5.3115 -1.0578,10.6756 -2.775,15.7077 -6.23106,18.259 -13.47858,26.2371 -24.4842,42.2253 -5.56044,6.1523 -10.68612,12.7274 -16.68132,18.4569 -4.78242,4.5704 -19.72032,7.2096 -15.54318,12.3391 17.31948,21.2683 43.87482,32.9274 65.81226,49.391 -0.73338,-2.4956 -2.49726,-4.9026 -2.20014,-7.4867 0.5454,-4.7447 2.337,-9.3677 4.62036,-13.5625 3.4149,-6.2735 8.20644,-11.693 12.30966,-17.5395 11.75136,-11.4101 22.75752,-24.6357 38.93862,-30.3558 4.7634,-1.6839 18.8825,3.5231 15.1566,0.111 -116.79438,-106.9604 -53.68884,-55.6997 -61.76028,-26.043 -2.48742,9.1395 -8.76546,16.794 -13.14822,25.1909 -15.45228,22.395 -22.2675,35.3627 -43.5561,53.3212 -8.24514,6.9554 -17.8866,12.0711 -27.0399,17.7787 -5.43852,3.3913 -21.32478,5.0526 -16.71426,9.5048 73.9743,71.4341 70.44834,64.5515 69.171,29.8824 2.3841,-6.1123 4.2069,-12.4745 7.1523,-18.3369 7.92108,-15.7664 20.04588,-32.8121 31.17954,-46.2513 12.11124,-14.6192 24.48318,-27.0229 39.01104,-39.1191 4.67378,-3.8915 9.78428,-7.226 14.67648,-10.839 -23.0193,-16.1179 -45.20214,-33.5019 -69.05796,-48.3537 -1.85748,-1.1564 1.6374,4.1755 1.61058,6.3633 -0.048,3.7569 -0.94338,7.4704 -1.8246,11.1228 -1.2579,5.2132 -2.87706,10.3375 -4.5804,15.4227 -5.5146,16.4628 -8.33418,22.1269 -15.28266,38.4262 -3.0435,6.5488 -5.91876,13.1784 -9.13062,19.6463 -5.53194,11.1398 -10.79658,20.7723 -17.89386,30.8865 -2.16624,3.087 -4.49718,6.0727 -7.04886,8.8496 -1.61814,1.761 -7.37118,3.34 -5.41146,4.7107 24.09174,16.851 50.69334,29.7935 76.03998,44.6902 -0.1986,-0.8938 -0.70038,-1.7718 -0.5958,-2.6815 0.168,-1.4637 2.96946,-7.789 3.4233,-8.7109 2.6235,-5.3294 6.0054,-10.216 9.51708,-14.9878 1.13856,-1.4579 2.27718,-2.9158 3.41574,-4.3737 1.14018,-1.2815 2.35848,-2.4976 3.42042,-3.8446 0.9006,-1.1424 1.63782,-2.4045 2.45496,-3.608 2.6562,-3.912 5.2761,-7.8533 8.17164,-11.5957 4.18932,-5.3287 2.01366,-2.7183 6.52968,-7.8289 0.99756,-1.245 1.85694,-2.5947 2.79584,-3.8844 3.1809,-4.3691 6.5347,-8.6035 9.6945,-12.9881 7.9262,-10.1985 16.0883,-20.2139 23.8048,-30.5747 8.7738,-12.3177 17.3922,-24.7555 26.7499,-36.6443 3.278,-3.9601 5.9472,-7.3396 9.4841,-11.0385 1.2917,-1.3509 2.5805,-2.7197 4.0355,-3.893 0.9885,-0.7971 4.3315,-1.3144 3.2524,-1.9839 -70.1116,-43.4975 -106.27218,-45.7567 -73.9993,-43.3922 0.048,1.1713 0.1974,2.3424 0.1488,3.5137 -0.3642,8.8386 -4.07378,17.1043 -5.97074,25.6418 -2.9334,10.8586 -5.15418,21.963 -9.34332,32.4325 -4.80612,11.7569 -10.3572,23.2178 -17.41164,33.8124 -5.88486,8.6662 -11.89194,17.2451 -18.4131,25.4503 -5.9337,7.6097 -11.82876,15.2523 -17.52582,23.0415 -4.96284,6.2536 -9.8418,12.5734 -14.76498,18.859 -2.87214,3.9887 -5.73258,7.988 -8.63946,11.9497 -0.63978,0.8841 -1.4793,1.9926 -2.03262,2.9485 -1.2846,2.2193 -2.0499,4.6994 -2.90052,7.1008 -2.32356,6.6189 -5.73378,12.7749 -10.3527,18.0872 -0.74148,0.7633 -1.42128,1.5919 -2.22438,2.2902 -0.5346,0.4644 -2.37426,0.8163 -1.76658,1.18 25.5618,15.2986 51.81192,29.417 77.65356,44.238 0.2106,0.1206 -0.61878,0.1074 -0.71946,-0.114 -0.1302,-0.2856 0.3522,-2.3678 0.3906,-2.5551 1.12224,-3.8856 1.72542,-7.9275 3.43248,-11.632 2.52804,-5.9064 4.69158,-12.0164 8.03568,-17.5238 1.02888,-1.3611 1.94808,-2.8124 3.0867,-4.0831 1.1583,-1.2927 2.49066,-2.4194 3.7806,-3.5808 3.09306,-2.7851 6.33552,-5.2629 10.35606,-6.5148 z" /><path
       style="fill:#0a3161;fill-opacity:1;stroke-width:6"
       id="path101"
       d="m 962.52714,1550.1477 c 0.95412,6.5668 -2.00358,12.6409 -4.9167,18.3128 -3.54624,5.7327 -7.54224,11.1482 -11.77434,16.3865 -2.91132,3.9342 -5.16492,8.2927 -7.7841,12.4212 -2.77716,4.5345 -5.72826,8.9517 -8.91276,13.212 -3.3636,4.3552 -7.2267,8.2933 -10.75986,12.5068 -4.28904,5.1447 -8.89128,10.0011 -13.39242,14.9568 -3.15258,3.6173 -6.70236,6.8903 -9.74928,10.5993 -2.02386,2.4636 -2.30412,3.0129 -4.08888,5.6565 -2.53194,4.2151 -4.65264,8.6469 -6.16416,13.332 -0.8163,2.5303 -1.74288,6.2856 -2.39928,8.8275 -1.7664,7.5686 -2.4246,15.33 -3.80268,22.9679 -0.82704,4.584 -1.2609,6.1383 -2.31528,10.5382 -0.4062,1.2338 -0.73248,2.4968 -1.21896,3.7013 -12.76404,31.6032 -96.37722,-24.1529 76.28532,43.1694 2.10636,0.8213 0.1194,-4.5203 0.2226,-6.7788 0.1266,-2.7721 0.3102,-5.5413 0.4656,-8.3119 0.3432,-3.1978 0.62646,-6.4026 1.02918,-9.5935 1.6239,-12.865 1.19334,-7.2521 3.09132,-19.8876 0.69636,-4.6362 1.79688,-12.5491 1.73094,-17.3836 -0.036,-2.6011 -0.492,-5.1794 -0.73806,-7.769 -1.05072,-6.3274 -3.52494,-12.2212 -5.9337,-18.1131 -0.4752,-1.162 -1.12344,-2.265 -1.44096,-3.4796 -0.1638,-0.6261 0.60954,-1.6664 0.024,-1.9414 -25.92954,-12.1695 -52.34874,-23.2671 -78.52308,-34.9007 0.294,5.9294 1.49574,12.0744 0.3072,17.9999 -0.2112,1.0545 -0.4188,2.228 -1.15434,3.0128 -0.3552,0.3792 -2.02326,-0.3432 -1.55298,-0.123 26.38506,12.352 52.92372,24.3732 79.38558,36.5598 -0.81432,-0.1962 -1.69662,-0.2082 -2.4429,-0.5886 -0.4524,-0.231 -0.68358,-0.7537 -0.9885,-1.16 -0.036,-0.048 -6.6e-4,-0.225 -0.012,-0.1692 -0.099,0.6599 0.036,1.3872 -0.2634,1.9845 -1.18866,2.3855 -3.05958,4.4049 -4.1352,6.8435 -0.5628,1.2756 1.71444,-2.1992 2.57166,-3.2988 0.5544,-1.8467 1.60422,-3.6128 1.6623,-5.5399 0.048,-1.5674 -3.6882,-13.409 -3.71268,-13.4978 -1.45248,-5.2631 -3.54372,-12.6828 -3.55374,-18.2934 -0.004,-1.9745 0.7398,-3.879 1.1097,-5.8185 16.39098,30.0481 0.582,-1.4502 -69.42894,-31.2591 -2.87844,-1.2255 3.49032,5.2225 4.81128,8.0584 1.92588,4.1347 3.73782,10.7808 4.10526,15.4886 0.1146,1.4653 -0.2268,2.9307 -0.3402,4.3959 -28.58616,13.1025 -9.29538,3.4936 76.48308,36.6886 1.83576,0.7104 -1.35714,-3.7102 -1.75998,-5.637 -0.3,-1.4357 -0.65028,-2.9548 -0.336,-4.3875 0.129,-0.588 2.05494,-0.7183 1.51464,-0.9839 -25.72338,-12.6475 -51.89472,-24.3627 -77.84208,-36.5441 1.6623,1.757 3.77904,3.1755 4.98702,5.271 3.19578,5.5439 6.08532,17.5506 7.19514,23.3496 1.80594,9.4366 2.63094,18.0841 2.60874,27.6747 -0.012,3.9546 -0.4284,7.8977 -0.64302,11.8466 -1.30374,9.21 -1.02672,9.656 -3.40896,18.1079 -1.40226,4.9751 -2.30706,7.6524 -4.79412,12.0285 -1.69992,2.9911 -2.96514,4.3617 -5.04738,6.9258 -0.60714,0.9708 -1.4421,1.8322 -1.82148,2.9126 -2.01222,5.7306 0.5154,11.697 1.97292,17.1949 1.60812,6.065 1.56648,6.1113 2.88576,11.933 6.50496,34.4391 -2.12844,14.7653 79.29624,45.591 2.59386,0.9819 2.0784,-5.1547 2.8308,-7.8242 0.94728,-3.361 1.42938,-6.8373 2.25756,-10.2295 1.05078,-4.3041 2.2521,-8.5699 3.37818,-12.8548 6.0099,-20.1066 16.35408,-38.3998 26.69244,-56.5141 2.21892,-3.8879 4.56732,-7.7028 6.7061,-11.6353 1.93,-3.5486 3.6642,-7.2002 5.4962,-10.8003 1.3385,-3.5822 3.1302,-7.0263 4.0154,-10.7466 1.0373,-4.359 1.1073,-8.893 1.7146,-13.3324 0.6158,-4.5025 1.3284,-8.9914 1.9546,-13.4925 0.6851,-4.9235 1.0559,-9.8964 1.9791,-14.7808 1.9161,-10.1363 4.5924,-17.6158 7.6817,-27.39 3.9543,-11.8306 8.8606,-23.299 13.5946,-34.8272 2.2772,-5.545 5.3529,-13.4182 7.8827,-18.9522 1.1296,-2.4709 2.4058,-4.872 3.6088,-7.3079 0.8301,-1.3764 3.9996,-7.4111 6.1353,-8.5826 0.7433,-0.4074 1.6896,0.141 2.5343,0.2112 -25.7232,-13.1043 -50.6088,-28.0025 -77.1697,-39.313 -2.32716,-0.9909 1.61622,4.8169 2.02338,7.3133 0.5682,3.4823 0.5934,7.0317 0.8898,10.5476 -0.1356,18.7495 -3.32328,37.2924 -7.41876,55.5358 -1.06182,4.7298 -2.13594,9.4593 -3.38394,14.1434 -1.15812,4.347 -2.5545,8.6268 -3.83178,12.9402 -1.39638,3.5971 -2.63652,7.2587 -4.18908,10.7912 -1.55328,3.5341 -4.53444,10.2878 -8.24922,12.8623 -0.9867,0.6839 -4.61784,0.071 -3.54852,0.6162 120.00422,61.2337 99.64392,49.7583 73.14422,34.6608 -0.9091,-2.1461 -1.9885,-4.2279 -2.7274,-6.4384 -1.6463,-4.9253 -3.0467,-12.144 -3.7802,-17.2022 -0.881,-6.0748 -1.299,-11.0285 -1.1539,-17.1182 0.048,-2.0961 0.3294,-4.1804 0.4938,-6.2707 18.2796,-26.3253 8.0113,-9.5559 -74.19106,-44.8368 -2.76678,-1.1875 -0.74052,5.9831 -0.85968,8.9916 -0.1326,3.3412 0.2748,6.6912 0.1062,10.0308 -0.5322,10.553 -1.656,14.1141 -3.74544,24.6374 -3.8595,14.8788 -8.54388,29.5888 -15.02706,43.5485 -1.3788,2.9689 -4.09326,8.1721 -5.71038,11.3065 -0.5436,1.1847 -2.72508,2.8468 -1.63032,3.5542 24.56232,15.8718 49.3428,31.6815 75.71568,44.3183 2.2035,1.0559 2.9862,-3.8993 4.11402,-6.0669 1.68492,-3.2384 2.49006,-6.8999 4.28614,-10.0779 5.737,-10.1512 10.185,-13.8393 18.2049,-22.4492 10.6185,-9.0209 11.9014,-10.872 23.5708,-17.9353 3.3901,-2.052 6.8591,-4.0116 10.5016,-5.5722 2.7782,-1.1902 5.6662,-2.3426 8.6736,-2.643 2.0779,-0.2076 7.9828,2.1736 6.1561,1.1618 -22.9709,-12.7227 -46.5626,-24.2908 -69.84394,-36.4361 1.22494,2.0625 2.96054,3.8974 3.67484,6.1875 2.7516,8.8227 2.2993,16.8997 1.1175,25.9633 -1.1926,9.1466 -3.94268,19.3769 -6.71846,28.1512 -1.36998,4.3304 -3.0111,8.5702 -4.51668,12.8554 -3.93414,9.9979 -8.06364,20.0322 -13.6047,29.2763 -1.56444,2.6099 -4.41354,7.2143 -7.36662,9.0137 -0.88524,0.5394 -2.01798,0.4758 -3.02694,0.7136 25.93566,13.4131 50.853,29.0119 77.807,40.2392 2.3928,0.9967 -0.1488,-5.1983 0.1314,-7.7753 0.3996,-3.6761 1.0241,-7.3369 1.902,-10.9289 0.9962,-4.0764 8.7224,-28.251 9.5972,-30.4471 2.3761,-5.9652 5.4568,-11.625 8.1852,-17.4375 3.0602,-6.0491 5.8275,-12.2555 9.1806,-18.1472 5.7369,-10.08 13.4424,-20.9774 20.8087,-30.0052 4.4313,-5.4308 11.9489,-13.621 17.5529,-18.3776 2.0218,-1.7161 4.3178,-3.0805 6.4767,-4.6207 1.6176,-0.3318 3.6819,-2.1591 4.8527,-0.9947 1.4054,1.3976 1.9081,6.8103 0.1248,5.9447 -24.743,-12.0122 -46.4536,-29.9597 -71.7644,-40.7241 -3.2433,-1.3793 0.9084,7.0203 0.7986,10.5429 -0.3042,9.762 -2.5682,17.4562 -4.7257,26.9619 -7.0213,25.054 -17.3432,49.0236 -27.9684,72.723 -1.5479,3.1735 -4.8092,10.4442 -7.2624,13.5216 -0.8994,1.1281 -1.9045,2.5214 -3.3256,2.7703 -0.9901,0.1734 -3.3451,-2.2141 -2.449,-1.7591 79.3011,40.2626 82.2454,67.7371 74.9403,30.4702 -0.1434,-4.2181 -0.486,-8.4341 -0.4302,-12.6543 0.067,-5.1506 0.3834,-10.2982 0.798,-15.4326 1.4223,-17.609 4.3766,-35.0648 8.2882,-52.2848 1.1682,-5.1428 2.58,-10.2272 3.87,-15.3409 1.6499,-5.1824 5.0957,-16.6846 7.5536,-22.1414 0.9205,-2.0437 1.9061,-4.1248 3.3816,-5.812 0.8425,-0.9634 4.4695,-1.2671 3.3469,-1.8816 -80.5572,-44.0964 -79.9609,-66.6869 -76.2112,-28.6328 1.0818,15.306 -0.8012,30.5165 -3.7964,45.5042 -2.1631,10.8238 -4.5607,20.48 -8.3718,30.8157 -1.4336,3.8878 -3.2926,7.6054 -4.9389,11.4081 -1.762,2.2023 -3.0603,4.8745 -5.286,6.6069 -1.3018,1.0133 -3.1946,0.825 -4.7919,1.2375 25.2647,12.4869 49.7204,26.7657 75.7943,37.4608 2.7916,1.1451 -3.1558,-5.2013 -4.1195,-8.0607 -3.1075,-9.2211 -3.8455,-19.9314 -5.0074,-29.4192 -1.1501,-17.502 -0.9623,-35.1301 1.8787,-52.4764 0.4284,-2.614 3.8975,-19.8879 6.3959,-23.2983 1.1353,-1.5497 3.5602,-1.4445 5.3403,-2.1667 -25.1991,-12.5929 -49.2683,-27.7607 -75.5972,-37.7788 -3.3703,-1.2823 2.5452,6.7715 3.3462,10.2874 1.1243,4.9355 1.9236,9.9548 2.4128,14.993 1.0801,11.1262 0.9496,27.5976 0.417,38.5359 -0.345,7.0814 -1.0919,14.1376 -1.6378,21.2064 -2.0506,19.4475 -5.2547,38.7681 -9.3355,57.8896 -1.5163,7.1051 -4.6903,20.5688 -6.96056,27.8737 -0.9981,3.2114 -2.30004,6.3204 -3.45006,9.4807 -1.23834,1.7909 -2.01462,4.0127 -3.71502,5.3727 -0.98754,0.7898 -2.49774,0.3966 -3.74658,0.5952 25.08902,11.5981 48.88862,26.5386 75.26702,34.7943 3.9081,1.2232 -2.136,-7.9476 -2.5152,-12.025 -1.1047,-11.8783 0.435,-15.9885 2.5191,-27.492 1.5229,-3.2273 2.1696,-7.0401 4.5687,-9.6819 1.4999,-1.6517 4.1633,-2.9424 6.2934,-2.2789 1.8116,0.564 4.3226,5.8889 2.6182,5.0548 -156.32994,-76.512 -78.67776,-59.5803 -68.5105,-33.3008 0.7856,2.0304 0.9588,4.2473 1.4382,6.3709 0.2238,7.9587 1.0381,15.893 1.3001,23.8487 0.2088,6.3474 0.071,7.3722 -0.1308,13.8219 -0.6191,6.1446 -1.4313,12.4436 -4.3028,18.0186 -0.6076,1.1796 -1.1454,2.5379 -2.2365,3.2929 -0.6208,0.4296 -2.0466,0.5412 -2.2573,-0.1836 -0.51,-1.753 0.4146,-3.6277 0.6217,-5.4415 22.478,12.6154 43.919,27.2891 67.434,37.8461 4.413,1.9812 -6.1858,-7.4676 -8.814,-11.5287 -3.8699,-5.9796 -7.4422,-12.1661 -10.6398,-18.5306 -8.5617,-17.0412 -16.3673,-37.1552 -22.0354,-55.2015 -3.5506,-11.3045 -6.277,-22.8516 -9.4155,-34.2774 -2.2819,-11.9388 -5.0463,-23.7955 -6.8458,-35.8166 -1.729,-11.5502 -2.8447,-23.1922 -3.7304,-34.8374 -1.8384,-24.17 -2.4502,-38.1866 0.8706,-61.6739 1.0117,-7.1563 2.415,-14.3014 4.6177,-21.1851 1.4753,-4.6108 4.2277,-8.7104 6.3416,-13.0656 29.7337,-14.4825 28.7235,-11.5737 -65.49826,-37.3352 -6.25122,-1.7092 8.26044,10.3361 10.3065,16.4854 2.79978,8.4142 3.54324,17.4517 3.9336,26.3109 1.12236,25.4701 -2.72406,36.4756 -7.75212,61.4513 -3.58104,9.9518 -6.44496,20.1917 -10.74324,29.8555 -7.3701,16.5699 -18.23448,34.5547 -30.98442,47.7202 -9.7869,10.1058 -22.77432,19.4163 -36.84588,22.5875 -5.57238,1.2558 -11.42262,0.1932 -17.1339,0.2898 -4.75662,-2.0231 -18.83586,-8.4924 -14.26992,-6.0693 13.39656,7.1091 25.86942,17.4557 40.79508,20.1454 6.03492,1.0875 -8.07834,-9.361 -10.96662,-14.7703 -6.38034,-11.9492 -8.42508,-22.7906 -4.827,-36.1364 1.74018,-6.4548 5.80056,-12.0466 8.7009,-18.07 5.57652,-5.0683 10.33314,-11.2211 16.72956,-15.2051 16.10766,-10.0325 30.66984,-12.84 49.45554,-9.768 8.57766,1.4027 18.68628,2.0975 24.69096,8.3814 5.19786,5.4396 -18.5877,-12.2163 -21.9006,-5.4612 -3.99594,8.1477 8.52876,16.0209 12.79314,24.0315 2.00934,9.0045 5.00382,17.8447 6.02802,27.0137 1.85526,16.6084 -10e-4,35.1998 -4.79082,51.2225 -2.04396,6.8377 -4.98072,13.427 -8.38212,19.7009 -2.74014,5.0542 -5.92488,9.9804 -9.94032,14.095 -2.89428,2.9656 -6.94986,4.515 -10.42482,6.7726 -37.71138,-12.6389 36.98592,23.2892 57.52674,30.1086 4.685,1.5555 -5.46984,-8.3487 -7.04154,-13.0284 -4.14186,-12.3319 -4.62042,-26.2845 -3.09348,-39.0572 0.76812,-6.4251 2.77374,-12.6411 4.16064,-18.9616 2.09694,-5.2895 4.19388,-10.579 6.29088,-15.8685 0,0 -52.73778,-28.7181 -52.73778,-28.7181 v 0 c -1.0704,5.9765 -2.1408,11.953 -3.21126,17.9295 -1.40034,6.4908 -2.71356,13.001 -4.20096,19.4724 -3.13146,13.6241 -5.27598,21.675 -8.99316,34.8364 -1.10922,3.9275 -6.63942,9.21 -3.44424,11.7491 22.32342,17.7389 47.8218,31.3384 73.43466,43.8677 2.16374,1.0584 1.41254,-4.6057 2.11884,-6.9085 0.6622,-4.31 1.2758,-8.6278 1.9866,-12.9301 2.3876,-14.4509 4.9479,-26.8855 6.6719,-41.5911 2.0114,-17.156 3.5586,-36.8856 2.2158,-54.1388 -0.7152,-9.19 -2.7864,-18.2239 -4.1796,-27.3358 -3.2649,-8.1708 -3.4546,-18.4112 -9.79466,-24.5126 -20.95656,-20.1673 -50.11332,-43.8508 -81.7248,-46.6363 -19.70826,-1.7367 -35.65044,2.2215 -53.53674,10.3068 -8.27328,3.7399 -15.6831,9.1528 -23.52468,13.7292 -8.79066,14.2428 -16.0323,21.2929 -15.9141,38.9506 0.042,6.2774 2.36814,12.3943 4.5957,18.2634 13.47636,35.5079 54.02496,54.7997 90.1101,60.628 4.79778,-1.6961 10.12842,-2.3125 14.39328,-5.0885 10.43202,-6.7902 19.90362,-21.9393 25.6329,-31.9972 4.51566,-7.9274 8.47596,-16.1671 12.30132,-24.4496 9.3951,-20.3419 15.33624,-36.878 23.38824,-57.844 3.59736,-9.7403 7.13194,-19.5041 10.79214,-29.2209 4.5002,-11.9467 12.2519,-34.2106 19.9325,-45.6222 3.1308,-4.6517 15.9872,-8.8344 11.5353,-12.2435 -22.2495,-17.0384 -49.24454,-27.245 -75.58694,-36.8065 -3.92088,-1.4231 3.56622,7.5415 5.34936,11.3123 1.74372,6.413 3.7803,12.7535 5.23116,19.239 3.86538,17.2784 7.33524,40.4824 9.26016,57.7154 1.28304,11.4863 1.8744,23.041 3.04722,34.539 1.19562,11.7212 2.70498,23.4082 4.0575,35.1123 1.15218,11.4292 2.30436,22.8585 3.45648,34.2876 2.27778,26.0049 4.76136,52.0292 6.12354,78.1047 0.2514,4.816 0.354,9.6387 0.4842,14.4595 0.0798,2.9645 -2.20518,7.0884 0.1464,8.8956 23.28162,17.8931 49.24672,31.9931 73.87002,47.9897 1.7116,-1.191 3.8066,-1.9656 5.1349,-3.573 1.2007,-1.4534 1.7537,-7.7952 1.9272,-9.2284 0.8194,-6.7677 1.5789,-13.5433 2.6661,-20.276 0.722,-5.2082 1.275,-8.5867 1.6728,-13.8006 0.6346,-8.3194 0.018,-16.6191 -1.1204,-24.8702 -0.071,-2.1742 -0.2964,-4.3488 -0.213,-6.5226 0.077,-2.0092 2.3432,-4.8412 0.6943,-5.992 -24.1106,-16.8278 -49.2196,-32.3463 -75.2402,-46.0368 -1.7044,-0.8968 -1.7462,3.5464 -1.8647,5.4687 -0.1698,2.7478 0.6812,5.4638 1.0217,8.1957 -0.3396,3.9828 -0.6792,7.9656 -1.0188,11.9483 -2.4334,10.0942 -3.0452,15.7179 -8.08552,24.8508 -1.56996,2.8448 -8.43168,5.83 -5.84718,7.7992 22.8187,17.3871 49.2821,29.3815 73.9231,44.0724 -0.9818,-1.4894 -2.3048,-2.8034 -2.9456,-4.4682 -1.0468,-2.72 -1.3638,-5.6673 -2.0458,-8.5009 -0.387,-3.9589 -0.9209,-7.9063 -1.1612,-11.8768 -0.2946,-4.8706 -0.3924,-9.7527 -0.4434,-14.632 -0.2682,-25.6998 1.8091,-51.3863 5.6781,-76.787 2.9943,-15.9029 3.9101,-22.9634 8.3463,-38.2857 1.4735,-5.089 3.0211,-10.1776 5.0658,-15.0652 1.5591,-3.7266 3.3752,-7.3928 5.7091,-10.6899 1.405,-1.9849 7.3838,-3.5988 5.3608,-4.9482 -23.7147,-15.8187 -49.8893,-27.5956 -74.834,-41.3934 1.6179,2.4004 3.9465,4.4524 4.8537,7.2013 1.55,4.6965 2.3871,24.1225 2.4197,27.9338 0.1464,17.1345 -1.6835,34.2169 -4.9611,51.0219 -2.1421,8.1214 -3.5123,15.776 -7.5689,23.1847 -1.1653,2.1283 -6.4755,4.4399 -4.4434,5.7659 24.2718,15.839 51.0182,27.5158 76.5273,41.2737 -0.8262,-1.9473 -2.0189,-3.7772 -2.4787,-5.8419 -0.74,-3.3233 -0.7225,-6.7708 -1.0837,-10.1562 0.3198,-4.5119 0.4146,-9.0453 0.9597,-13.5354 1.3788,-11.3558 3.4562,-20.6072 6.767,-31.5888 2.9477,-9.7769 6.3904,-19.2931 11.3698,-28.2423 1.8119,-3.2564 4.1736,-6.1748 6.2603,-9.2622 28.3034,-20.9496 8.3083,-3.6208 -69.2554,-46.6472 -1.625,-0.9015 3.323,2.014 4.2228,3.6401 2.7329,4.9387 3.2715,15.2546 3.4346,20.1517 0.1602,4.8091 -0.083,9.6231 -0.1248,14.4347 -0.5484,5.4657 -0.8741,10.9582 -1.6453,16.3969 -2.9852,21.0515 -8.9596,43.3388 -18.4584,62.4414 -1.6274,3.2729 -3.6603,6.3279 -5.4905,9.4919 -24.56396,27.4839 -8.5824,5.8621 70.4669,51.3635 1.0056,0.579 -1.2567,-1.9915 -1.5627,-3.1108 -1.9308,-7.0657 0.4374,-14.5344 1.2565,-21.5303 0.6893,-3.4586 1.3272,-6.9279 2.0678,-10.3759 4.7952,-22.3237 11.0652,-44.3899 19.9317,-65.4596 4.0969,-8.7728 6.8104,-15.3813 11.9547,-23.4965 1.7597,-2.776 8.2573,-5.7029 5.8482,-7.9386 -24.5034,-22.7406 -66.27,-74.9938 -72.0005,-46.3641 -0.3234,1.6162 -0.054,3.2962 -0.077,4.9443 -0.5046,2.5842 -0.8753,5.1981 -1.5142,7.7524 -3.4419,13.7592 -8.7961,27.0174 -14.9849,39.7489 -2.8243,5.8102 -5.7277,11.5917 -8.9564,17.1873 -3.3906,5.8762 -7.256,11.4654 -10.884,17.1981 -3.5373,5.3532 -6.7747,10.9171 -10.6119,16.0595 -3.5765,4.7931 -7.73424,9.1236 -11.59044,13.6947 -2.9862,3.5397 -5.7888,7.241 -8.9367,10.6377 -2.4666,2.6617 -5.0622,5.2253 -7.88136,7.5102 -1.8141,1.4705 -7.86732,2.3681 -5.949,3.6996 23.9109,16.5965 50.1366,29.5805 75.205,44.3708 -0.9052,-0.6195 -2.2545,-0.8634 -2.7154,-1.8587 -1.3423,-2.898 -0.1512,-10.6631 0.1584,-12.9586 1.5135,-11.2207 3.9155,-22.3292 6.6746,-33.3002 3.6185,-13.8763 7.2652,-27.7154 11.9852,-41.2705 1.4602,-4.1935 2.9192,-8.3954 4.6732,-12.4748 1.4899,-3.465 3.5589,-6.6616 5.0456,-10.1279 1.1061,-2.5787 1.8105,-5.3116 2.7157,-7.9675 -24.8715,-14.4585 -48.982,-30.3138 -74.6145,-43.3757 -1.44014,-0.7339 -1.9847,2.5521 -2.94326,3.8535 -1.48746,2.0194 -2.85942,4.124 -4.3941,6.1077 -8.03262,10.3827 -17.0934,19.8968 -27.29976,28.1824 -8.27034,6.2593 -16.37952,13.1062 -25.86108,17.5853 -3.65694,1.7275 -7.55298,3.062 -11.53752,3.7553 -1.54872,0.2694 -5.94,-1.7984 -4.62036,-0.9442 23.25696,15.0551 47.12646,29.1421 70.68966,43.7131 -1.13994,-0.7538 -2.27988,-1.5076 -3.41982,-2.2614 -0.4296,-1.9281 -1.09848,-3.8181 -1.28934,-5.7843 -0.5058,-5.2131 0.2238,-13.0292 0.915,-17.9895 1.71114,-12.2758 4.84362,-24.3146 9.05728,-35.9626 3.2443,-7.7289 5.4945,-14.1362 10.0344,-21.1659 1.4859,-2.3007 3.0488,-4.6478 5.156,-6.3972 0.7197,-0.5976 3.5962,0.282 2.7986,-0.207 -79.09298,-48.4625 -92.31272,-64.1349 -69.90638,-39.0242 0.5994,2.4549 1.30908,4.8853 1.79784,7.3645 2.05938,10.4464 2.53824,22.318 1.19616,32.9049 -0.2346,1.8494 -0.69906,3.6624 -1.04862,5.4936 -13.21206,32.1238 -5.37342,8.1298 76.9426,43.9208 1.4734,0.6407 -0.7541,-3.1311 -0.9488,-4.726 -1.2259,-10.0484 0,-20.121 1.3552,-30.087 0.8252,-4.5746 1.5634,-9.1657 2.4757,-13.7237 0.9585,-4.7887 2.0466,-9.5509 3.1357,-14.3116 3.995,-17.462 8.5583,-34.8759 15.7599,-51.333 1.4651,-2.6549 2.7188,-5.4379 4.3952,-7.9647 1.1248,-1.6953 5.6587,-3.5091 3.9667,-4.6388 -24.4901,-16.3511 -51.1083,-29.2649 -76.6625,-43.8974 0.4944,0.9487 1.23444,1.8057 1.48332,2.8462 0.81054,3.3885 0.1746,8.7436 -0.012,11.9236 -0.4002,2.8402 -0.68796,5.6987 -1.20132,8.5207 -1.12116,6.1636 -3.2751,14.483 -4.84086,20.4634 -3.2484,12.4069 -6.82836,24.7237 -10.09656,37.1254 -1.1901,4.6352 -2.3979,9.266 -3.5703,13.9057 -1.20414,4.7656 -2.27748,9.5648 -3.55932,14.3102 -1.25772,4.6563 -2.85924,9.2169 -4.05774,13.8888 -1.0851,4.23 -1.68078,8.5765 -2.78886,12.8004 -1.02816,3.9194 -2.40912,7.7375 -3.61374,11.6062 -0.88098,3.6332 -1.76202,7.2665 -2.64306,10.8997 -2.63496,9.2791 -4.13736,15.2563 -7.58466,24.4168 -7.3254,19.466 -17.1324,38.0217 -29.8965,54.4791 -3.93222,4.5485 -9.8406,12.2331 -15.27018,15.8444 -1.3008,0.8651 -5.79324,0.597 -4.4661,1.4209 23.44776,14.562 48.41142,26.5491 72.15804,40.6185 1.26132,0.7473 -3.08946,0.2484 -4.37436,-0.4578 -1.48434,-0.8157 -2.2491,-2.533 -3.37368,-3.7996 -0.77328,-1.791 -1.70784,-3.5207 -2.31984,-5.373 -1.27518,-3.8595 -1.61724,-6.7572 -1.6788,-10.7388 -0.018,-1.1625 0.1386,-2.3211 0.1938,-3.4824 0.036,-0.8156 -0.012,-1.6381 0.0894,-2.448 0.1398,-1.0853 0.426,-2.1465 0.63918,-3.2197 1.09968,-5.6333 2.31114,-11.3308 2.85258,-17.0502 0.94518,-9.985 0.012,-19.9505 -0.96852,-29.8946 -0.83946,-9.4277 -1.71354,-17.0388 -1.74504,-26.5501 -0.012,-4.3498 0.1746,-8.7024 0.5058,-13.0395 0.4014,-5.2535 1.36788,-13.7159 3.32496,-18.9953 0.7407,-1.9981 2.03148,-3.7466 3.04722,-5.6198 -26.4966,-12.9653 -52.53936,-26.9025 -79.48986,-38.8959 -1.21464,-0.5406 0.70614,2.5757 0.8454,3.8979 0.156,1.4796 0.2652,2.9933 0.036,4.4634 -0.1632,1.043 -2.11584,2.4261 -1.1907,2.9346 59.8128,32.8737 107.403,50.2953 74.41368,38.0905 -1.14642,-1.9447 -2.52258,-3.7712 -3.43926,-5.8342 -1.79424,-4.0383 -3.77736,-11.411 -4.12332,-15.8248 -0.1764,-2.2551 2.22072,-5.4938 0.3576,-6.7766 -78.99774,-54.3922 -78.71202,-74.4924 -75.79242,-38.5371 1.72248,8.4471 3.35652,15.391 1.9002,24.0995 -0.297,1.7763 -0.84336,3.5158 -1.52214,5.184 -0.3276,0.8044 -0.78816,2.7001 -1.46424,2.155 -0.70638,-0.5694 0.6627,-1.6894 0.99408,-2.5342 0.5724,-0.9726 2.44806,-3.7789 1.7181,-2.918 -2.2245,2.6234 -5.38062,5.3467 -5.17836,9.1097 0.036,0.7021 0.4272,1.3398 0.62784,2.0137 0.909,3.0578 0.71478,1.6103 0.3714,5.0168 27.00606,12.5997 53.69106,25.9117 81.01812,37.799 0.96852,0.4212 -0.71382,-1.9889 -1.01988,-2.9998 -0.4188,-1.383 -0.91026,-2.7543 -1.15374,-4.1786 -0.5208,-3.0449 -0.70446,-7.1465 0.1476,-10.1775 0.2934,-1.045 1.07916,-1.8837 1.61874,-2.8255 -25.4637,-13.2716 -51.00918,-26.3875 -76.39116,-39.8148 -1.194,-0.6316 2.68968,0.6407 3.7983,1.4124 1.43262,0.9972 2.50062,2.4422 3.63936,3.765 4.3842,5.0928 7.80648,10.839 10.24524,17.103 1.90008,6.3959 2.90328,8.5896 3.42528,15.4395 0.71466,9.3779 -0.72102,18.8654 -3.8343,27.7213 -0.95052,2.7038 -2.28696,5.2561 -3.4305,7.8842 -1.27302,1.9119 -2.29734,4.0153 -3.81912,5.7359 -0.92388,1.0445 -4.60338,1.7191 -3.4044,2.4311 25.09038,14.8992 51.89934,26.7438 77.15394,41.3628 1.02774,0.5952 -2.15304,1.7948 -3.2742,1.4036 -1.28364,-0.4482 -1.60854,-7.2556 -1.6149,-7.3165 0.002,-1.7298 -0.0894,-3.4623 0.006,-5.1894 0.5082,-9.1094 3.13338,-17.9614 6.29022,-26.4627 2.51124,-6.6149 5.55156,-13.0851 9.37488,-19.0493 3.51654,-5.5878 7.82262,-10.6142 12.3669,-15.3919 4.80918,-4.91 9.87672,-9.5509 14.75232,-14.394 3.93162,-4.1299 7.52796,-8.569 11.11664,-12.9968 3.4635,-4.3327 6.4349,-8.9902 9.6056,-13.5363 2.7919,-4.0366 5.521,-8.0958 7.6629,-12.5268 3.2818,-6.1417 6.2124,-12.4699 9.7326,-18.4868 3.1773,-5.7924 6.4342,-11.7961 11.2591,-16.4026 z" /></g><g
     id="g102"
     transform="matrix(9.75,0,0,9.75,-546,-546)"><circle
       cx="256"
       cy="256"
       r="200"
       fill="url(#base)"
       id="circle7"
       style="display:inline;fill:url(#base)" /><circle
       cx="256"
       cy="256"
       r="200"
       fill="url(#rim)"
       id="circle8"
       style="display:inline;fill:url(#rim)" /></g></svg>
